<?xml version="1.0" standalone="no"?>
<!DOCTYPE svg PUBLIC "-//W3C//DTD SVG 1.1//EN" "http://www.w3.org/Graphics/SVG/1.1/DTD/svg11.dtd" >
<svg>
<metadata>
Created by FontForge 20120731 at Sat Jun 29 14:40:56 2019
 By www
Copyright 1990-1999 as an unpublished work by Bitstream Inc.  All rights reserved.  Confidential.
</metadata>
<defs>
<font id="BellGothicBT-Bold" horiz-adv-x="500" >
  <font-face 
    font-family="Bell Gothic"
    font-weight="700"
    font-stretch="normal"
    units-per-em="1000"
    panose-1="0 0 0 0 0 0 0 0 0 0"
    ascent="800"
    descent="-200"
    x-height="523"
    cap-height="731"
    bbox="-167 -236 1222 1023"
    underline-thickness="52"
    underline-position="-61"
    stemh="79"
    stemv="88"
    unicode-range="U+0020-FB02"
  />
<missing-glyph horiz-adv-x="278" 
 />
    <glyph glyph-name=".notdef" horiz-adv-x="278" 
 />
    <glyph glyph-name="space" unicode=" " horiz-adv-x="278" 
 />
    <glyph glyph-name="exclam" unicode="!" horiz-adv-x="389" 
d="M124 59c0 39 32 71 70 71c39 0 71 -32 71 -71s-32 -71 -71 -71c-38 0 -70 33 -70 71zM162 239l-22 492h109l-22 -492h-65z" />
    <glyph glyph-name="quotedbl" unicode="&#x22;" horiz-adv-x="288" 
d="M103 700v-270h-57v270h57zM242 700v-270h-58v270h58z" />
    <glyph glyph-name="numbersign" unicode="#" horiz-adv-x="769" 
d="M450 711l-81 -230h127l82 230h70l-80 -230h150l-21 -60h-152l-46 -133h161l-21 -60h-162l-81 -229h-71l82 229h-129l-82 -229h-70l81 229h-156l21 60h156l47 133h-167l21 60h168l82 230h71zM475 421h-129l-46 -133h128z" />
    <glyph glyph-name="dollar" unicode="$" horiz-adv-x="556" 
d="M311 79c72 5 118 54 118 117c0 57 -39 98 -118 123v-240zM257 447v208c-75 -5 -116 -41 -116 -92c0 -54 35 -85 116 -116zM39 89l46 84c56 -58 110 -89 172 -93v264c-134 48 -197 107 -197 207c0 103 69 170 197 182v37h54v-38c73 -10 135 -35 187 -77l-53 -76
c-45 46 -88 70 -134 73v-227c139 -49 202 -114 202 -224c0 -111 -76 -190 -202 -200v-132h-54v131c-88 5 -161 34 -218 89z" />
    <glyph glyph-name="percent" unicode="%" horiz-adv-x="840" 
d="M33 568c0 101 80 182 181 182s182 -81 182 -182s-81 -181 -182 -181c-100 0 -181 81 -181 181zM112 568c0 -56 46 -102 102 -102c57 0 102 46 102 102c0 57 -45 102 -102 102s-102 -45 -102 -102zM219 -19h-74l476 769h74zM444 163c0 101 81 182 182 182
s182 -81 182 -182s-81 -182 -182 -182c-100 0 -182 82 -182 182zM524 163c0 -56 46 -102 102 -102c57 0 102 46 102 102c0 57 -45 102 -102 102s-102 -45 -102 -102z" />
    <glyph glyph-name="ampersand" unicode="&#x26;" horiz-adv-x="722" 
d="M419 134c-77 97 -135 180 -171 249c-66 -33 -101 -84 -101 -155c0 -83 70 -155 147 -155c38 0 79 20 125 61zM298 483c82 28 123 70 123 127c0 49 -38 86 -86 86c-46 0 -80 -38 -80 -93c0 -31 15 -70 43 -120zM472 69c-66 -58 -134 -88 -202 -88c-124 0 -214 96 -214 223
c0 95 55 181 160 237c-28 56 -44 104 -44 151c0 94 65 158 161 158c93 0 154 -59 154 -143c0 -71 -53 -134 -156 -180c61 -96 111 -168 151 -213c32 40 59 92 86 156l91 -38c-28 -65 -68 -127 -119 -187c37 -41 64 -63 94 -63c12 0 29 6 49 17v-98c-19 -11 -39 -16 -63 -16
c-49 0 -99 28 -148 84z" />
    <glyph glyph-name="quoteright" unicode="&#x2019;" horiz-adv-x="278" 
d="M39 443l116 307h84l-116 -307h-84z" />
    <glyph glyph-name="parenleft" unicode="(" horiz-adv-x="333" 
d="M227 -173c-100 165 -151 317 -151 461s51 296 151 462h88c-100 -166 -151 -318 -151 -462s51 -296 151 -461h-88z" />
    <glyph glyph-name="parenright" unicode=")" horiz-adv-x="333" 
d="M107 750c100 -165 150 -318 150 -462s-50 -295 -150 -461h-88c100 166 150 317 150 461s-50 297 -150 462h88z" />
    <glyph glyph-name="asterisk" unicode="*" horiz-adv-x="556" 
d="M277 506l-82 -151l-73 55l118 124l-167 33l27 85l154 -74l-18 172h83l-18 -172l154 74l28 -85l-167 -33l118 -124l-74 -55z" />
    <glyph glyph-name="plus" unicode="+" horiz-adv-x="833" 
d="M446 596v-269h263v-57h-263v-270h-58v270h-264v57h264v269h58z" />
    <glyph glyph-name="comma" unicode="," horiz-adv-x="278" 
d="M6 -174l116 308h84l-116 -308h-84z" />
    <glyph glyph-name="hyphen" unicode="-" horiz-adv-x="333" 
d="M37 229v78h259v-78h-259z" />
    <glyph glyph-name="period" unicode="." horiz-adv-x="278" 
d="M68 59c0 39 33 71 71 71c39 0 70 -32 70 -71s-31 -71 -70 -71c-38 0 -71 33 -71 71z" />
    <glyph glyph-name="slash" unicode="/" horiz-adv-x="278" 
d="M242 750h59l-265 -843h-59z" />
    <glyph glyph-name="zero" unicode="0" horiz-adv-x="556" 
d="M37 366c0 248 93 384 241 384s240 -136 240 -384s-92 -385 -240 -385s-241 137 -241 385zM139 366c0 -204 46 -305 139 -305s138 101 138 305s-44 305 -138 305c-93 0 -139 -101 -139 -305z" />
    <glyph glyph-name="one" unicode="1" horiz-adv-x="556" 
d="M101 0v88h155v556h-170v87h268v-643h150v-88h-403z" />
    <glyph glyph-name="two" unicode="2" horiz-adv-x="556" 
d="M49 0v12c0 116 44 190 128 272c44 43 110 85 173 150c37 38 56 81 56 118c0 65 -48 110 -120 110c-79 0 -125 -36 -161 -121l-80 51c60 110 128 158 233 158c137 0 227 -83 227 -203c0 -53 -19 -105 -55 -150c-38 -48 -93 -85 -151 -131c-79 -63 -133 -105 -138 -178h354
v-88h-466z" />
    <glyph glyph-name="three" unicode="3" horiz-adv-x="556" 
d="M5 42l99 1c89 1 162 28 224 84c40 36 62 82 62 122c0 60 -45 106 -110 106c-24 0 -50 -4 -75 -12l-49 -16l-27 68l64 30c106 49 159 102 159 160c0 48 -40 82 -98 82s-116 -33 -180 -101l-56 70c77 78 153 115 248 115c114 0 186 -65 186 -152c0 -68 -45 -125 -134 -177
c113 -19 169 -80 169 -183c0 -76 -38 -145 -114 -202c-60 -45 -158 -80 -251 -81l-115 -1z" />
    <glyph glyph-name="four" unicode="4" horiz-adv-x="556" 
d="M345 0v200h-305v114l245 417h150v-443h87v-88h-87v-200h-90zM117 288h228v392z" />
    <glyph glyph-name="five" unicode="5" horiz-adv-x="556" 
d="M38 -1l17 92c49 -17 91 -26 128 -26c135 0 229 83 229 185c0 90 -63 153 -145 153c-42 0 -81 -17 -120 -52h-70l43 380h347v-88h-280l-21 -193c35 22 71 33 111 33c141 0 230 -95 230 -233c0 -152 -126 -274 -332 -274c-47 0 -92 7 -137 23z" />
    <glyph glyph-name="six" unicode="6" horiz-adv-x="556" 
d="M165 394c51 35 98 51 147 51c61 0 116 -22 161 -67c41 -40 64 -99 64 -165c0 -65 -24 -123 -64 -163c-44 -44 -104 -69 -174 -69c-153 0 -247 105 -247 286c0 167 66 332 197 483h121c-113 -123 -182 -234 -205 -356zM156 213c0 -87 55 -144 141 -144s143 57 143 144
s-57 144 -143 144c-85 0 -141 -57 -141 -144z" />
    <glyph glyph-name="seven" unicode="7" horiz-adv-x="556" 
d="M126 0c68 221 150 435 246 643h-336v88h464v-14c-121 -263 -206 -501 -252 -717h-122z" />
    <glyph glyph-name="eight" unicode="8" horiz-adv-x="556" 
d="M184 396c-85 38 -126 89 -126 162c0 108 92 192 220 192s220 -84 220 -192c0 -73 -41 -124 -126 -162c99 -39 142 -99 142 -198c0 -128 -102 -217 -236 -217c-135 0 -236 89 -236 217c0 99 43 159 142 198zM155 551c0 -69 50 -118 123 -118s122 49 122 118
c0 70 -48 118 -122 118c-73 0 -123 -48 -123 -118zM140 211c0 -87 58 -146 138 -146c81 0 138 59 138 146c0 88 -56 146 -138 146c-81 0 -138 -58 -138 -146z" />
    <glyph glyph-name="nine" unicode="9" horiz-adv-x="556" 
d="M393 338c-51 -35 -99 -52 -148 -52c-61 0 -116 23 -161 68c-41 40 -64 99 -64 165c0 65 24 123 64 163c44 44 105 68 175 68c153 0 247 -104 247 -285c0 -167 -66 -333 -197 -484h-122c113 123 183 235 206 357zM402 519c0 87 -56 143 -142 143s-142 -56 -142 -143
s56 -145 142 -145c85 0 142 58 142 145z" />
    <glyph glyph-name="colon" unicode=":" horiz-adv-x="278" 
d="M68 470c0 39 33 70 71 70c39 0 70 -31 70 -70s-31 -71 -70 -71c-38 0 -71 33 -71 71zM68 59c0 39 33 71 71 71c39 0 70 -32 70 -71s-31 -71 -70 -71c-38 0 -71 33 -71 71z" />
    <glyph glyph-name="semicolon" unicode=";" horiz-adv-x="278" 
d="M6 -174l116 308h84l-116 -308h-84zM97 470c0 39 32 70 70 70c39 0 71 -31 71 -70s-32 -71 -71 -71c-38 0 -70 33 -70 71z" />
    <glyph glyph-name="less" unicode="&#x3c;" horiz-adv-x="833" 
d="M704 497l-488 -199l488 -198v-63l-575 236v50l575 236v-62z" />
    <glyph glyph-name="equal" unicode="=" horiz-adv-x="833" 
d="M709 420v-57h-585v57h585zM709 233v-57h-585v57h585z" />
    <glyph glyph-name="greater" unicode="&#x3e;" horiz-adv-x="833" 
d="M704 323v-50l-575 -236v63l488 198l-488 199v62z" />
    <glyph glyph-name="question" unicode="?" 
d="M184 248c0 8 -1 16 -1 24c0 60 14 112 44 163c37 65 94 107 94 163c0 46 -37 79 -87 79c-45 0 -74 -28 -95 -88l-92 36c33 82 102 127 194 127c106 0 179 -66 179 -156c0 -79 -51 -119 -98 -175c-38 -44 -57 -85 -57 -149c0 -8 0 -16 1 -24h-82zM156 59c0 39 33 71 71 71
c39 0 71 -32 71 -71s-32 -71 -71 -71c-38 0 -71 33 -71 71z" />
    <glyph glyph-name="at" unicode="@" horiz-adv-x="1000" 
d="M587 231l29 118c-11 59 -49 93 -101 93c-96 0 -167 -98 -167 -224c0 -72 35 -112 96 -112c65 0 124 49 143 125zM631 412l28 59h54l-69 -277c-4 -16 -6 -29 -6 -39c0 -29 18 -44 54 -44c26 0 65 14 99 43c56 48 93 130 93 220c0 170 -135 288 -349 288
c-109 0 -204 -34 -279 -100c-92 -80 -138 -186 -138 -311c0 -112 38 -196 121 -261c64 -51 157 -82 261 -82c111 0 220 32 308 92l22 -32c-96 -72 -205 -108 -322 -108c-124 0 -227 30 -305 90c-99 76 -148 176 -148 305c0 107 34 203 98 282c94 114 228 175 392 175
c110 0 208 -31 273 -82c84 -65 128 -152 128 -250c0 -112 -43 -204 -120 -266c-45 -36 -98 -55 -152 -55c-64 0 -97 25 -97 76c0 3 1 7 1 11c-33 -57 -84 -87 -145 -87c-100 0 -153 57 -153 162c0 153 104 268 229 268c59 0 100 -26 122 -77z" />
    <glyph glyph-name="A" unicode="A" horiz-adv-x="667" 
d="M217 242h232l-116 383zM525 0l-50 156h-284l-50 -156h-106l240 731h116l240 -731h-106z" />
    <glyph glyph-name="B" unicode="B" horiz-adv-x="667" 
d="M208 88h135c100 0 151 42 151 124c0 86 -69 147 -176 147h-110v-271zM208 438h119c86 0 130 39 130 115c0 68 -45 100 -137 100h-112v-215zM103 0v731h227c148 0 225 -58 225 -160c0 -82 -43 -135 -132 -164v-13c117 -30 174 -95 174 -201c0 -120 -85 -193 -233 -193
h-261z" />
    <glyph glyph-name="C" unicode="C" horiz-adv-x="611" 
d="M540 205c-17 -141 -104 -224 -222 -224c-156 0 -245 132 -245 385s89 384 245 384c112 0 193 -73 218 -206l-94 -23c-17 94 -57 139 -124 139c-100 0 -140 -96 -140 -294s40 -294 140 -294c71 0 111 51 123 152z" />
    <glyph glyph-name="D" unicode="D" horiz-adv-x="646" 
d="M194 90h56c162 0 232 83 232 276s-70 275 -232 275h-56v-551zM89 0v731h173c215 0 329 -125 329 -365s-114 -366 -329 -366h-173z" />
    <glyph glyph-name="E" unicode="E" horiz-adv-x="667" 
d="M115 0v732h455v-91h-351v-209h254v-90h-254v-251h365v-91h-469z" />
    <glyph glyph-name="F" unicode="F" horiz-adv-x="579" 
d="M110 0v731h451v-90h-347v-229h248v-90h-248v-322h-104z" />
    <glyph glyph-name="G" unicode="G" horiz-adv-x="667" 
d="M570 -12h-36l-39 73h-20c-45 -55 -91 -80 -156 -80c-147 0 -244 139 -244 388c0 245 103 381 260 381c98 0 178 -64 209 -176l-97 -22c-16 67 -59 105 -116 105c-98 0 -149 -96 -149 -289c0 -196 51 -294 150 -294c77 0 141 67 141 167v7h-140v90h237v-350z" />
    <glyph glyph-name="H" unicode="H" horiz-adv-x="722" 
d="M125 0v731h104v-302h265v302h104v-731h-104v339h-265v-339h-104z" />
    <glyph glyph-name="I" unicode="I" horiz-adv-x="389" 
d="M79 0v69h63v593h-63v69h231v-69h-63v-593h63v-69h-231z" />
    <glyph glyph-name="J" unicode="J" 
d="M15 190l100 37v-13c0 -91 31 -138 91 -138c76 0 99 55 99 170v485h104v-507c0 -157 -72 -243 -195 -243c-121 0 -199 77 -199 202v7z" />
    <glyph glyph-name="K" unicode="K" horiz-adv-x="667" 
d="M108 0v731h104v-731h-104zM237 392l291 339h123l-292 -336l290 -395h-128z" />
    <glyph glyph-name="L" unicode="L" horiz-adv-x="590" 
d="M123 0v731h104v-641h335v-90h-439z" />
    <glyph glyph-name="M" unicode="M" horiz-adv-x="889" 
d="M125 0v731h156l159 -583h9l159 583h155v-731h-88v674h-5l-185 -674h-82l-184 674h-6v-674h-88z" />
    <glyph glyph-name="N" unicode="N" horiz-adv-x="722" 
d="M111 0v731h139l169 -379c35 -78 68 -159 97 -241h7v620h88v-731h-135l-183 407c-34 75 -63 149 -87 225h-7v-632h-88z" />
    <glyph glyph-name="O" unicode="O" horiz-adv-x="611" 
d="M60 366c0 253 90 384 246 384s245 -131 245 -384s-89 -385 -245 -385s-246 132 -246 385zM166 366c0 -198 40 -294 140 -294s139 96 139 294s-39 294 -139 294s-140 -96 -140 -294z" />
    <glyph glyph-name="P" unicode="P" horiz-adv-x="623" 
d="M121 0v731h188c180 0 277 -78 277 -220s-97 -220 -277 -220h-84v-291h-104zM225 644v-265h73c122 0 181 40 181 132s-59 133 -181 133h-73z" />
    <glyph glyph-name="Q" unicode="Q" horiz-adv-x="611" 
d="M344 81l-69 104l49 42l77 -100c33 55 42 133 42 239c0 198 -40 294 -140 294s-140 -96 -140 -294c0 -196 41 -292 133 -292c15 0 31 2 48 7zM389 1c-25 -14 -51 -20 -81 -20c-162 0 -251 131 -251 385c0 253 90 384 246 384s245 -131 245 -384c0 -155 -28 -259 -92 -320
c28 -40 57 -59 98 -59c4 0 9 1 13 1v-103c-7 -1 -14 -1 -20 -1c-63 0 -113 38 -158 117z" />
    <glyph glyph-name="R" unicode="R" horiz-adv-x="667" 
d="M220 644v-233h73c122 0 181 35 181 116c0 80 -59 117 -181 117h-73zM115 0v731h189c181 0 276 -73 276 -204c0 -95 -48 -156 -145 -186l190 -341h-120l-175 323h-110v-323h-105z" />
    <glyph glyph-name="S" unicode="S" horiz-adv-x="611" 
d="M59 148l89 57c45 -90 93 -134 164 -134c75 0 122 46 122 117c0 29 -12 59 -33 79c-40 38 -91 56 -143 81s-100 46 -135 93c-24 32 -37 71 -37 112c0 117 85 197 211 197c103 0 178 -51 230 -154l-84 -53c-37 80 -79 116 -146 116c-68 0 -106 -35 -106 -96
c0 -20 7 -41 21 -58c31 -39 81 -55 138 -83c126 -62 189 -116 189 -231c0 -127 -91 -210 -230 -210c-117 0 -198 54 -250 167z" />
    <glyph glyph-name="T" unicode="T" horiz-adv-x="544" 
d="M220 0v641h-213v90h530v-90h-213v-641h-104z" />
    <glyph glyph-name="U" unicode="U" horiz-adv-x="722" 
d="M124 731h104v-463c0 -132 41 -196 128 -196c99 0 138 70 138 215v444h93v-499c0 -153 -93 -251 -232 -251c-148 0 -231 92 -231 266v484z" />
    <glyph glyph-name="V" unicode="V" horiz-adv-x="667" 
d="M278 0l-235 731h103l183 -606h9l183 606h103l-236 -731h-110z" />
    <glyph glyph-name="W" unicode="W" horiz-adv-x="944" 
d="M235 0l-186 731h96l115 -460c7 -30 17 -79 26 -146h9c8 55 15 91 19 107l122 499h81l117 -460c7 -28 17 -77 26 -146h9c8 53 15 89 19 107l118 499h89l-183 -731h-106l-107 428c-8 32 -15 76 -22 135h-11c-3 -46 -11 -91 -22 -137l-107 -426h-102z" />
    <glyph glyph-name="X" unicode="X" horiz-adv-x="667" 
d="M45 0l231 378l-228 353h116l125 -195c18 -28 31 -55 41 -83h11c12 33 34 66 56 103l105 175h108l-216 -346l250 -385h-125l-144 236c-11 18 -25 39 -36 69h-11c-14 -31 -25 -52 -33 -66l-143 -239h-107z" />
    <glyph glyph-name="Y" unicode="Y" horiz-adv-x="667" 
d="M284 0v286l-246 445h114l181 -351h12l184 351h107l-247 -442v-289h-105z" />
    <glyph glyph-name="Z" unicode="Z" horiz-adv-x="611" 
d="M62 0v75l350 563v8c-31 -3 -62 -5 -93 -5h-244v90h469v-60l-358 -574v-9c22 3 47 5 75 5h298v-93h-497z" />
    <glyph glyph-name="bracketleft" unicode="[" horiz-adv-x="389" 
d="M107 -173v904h239v-46h-151v-813h151v-45h-239z" />
    <glyph glyph-name="backslash" unicode="\" horiz-adv-x="278" 
d="M-23 750h59l265 -843h-59z" />
    <glyph glyph-name="bracketright" unicode="]" horiz-adv-x="389" 
d="M281 731v-904h-238v46h151v813h-151v45h238z" />
    <glyph glyph-name="asciicircum" unicode="^" horiz-adv-x="1000" 
d="M539 712l254 -272h-77l-216 214l-216 -214h-78l254 272h79z" />
    <glyph glyph-name="underscore" unicode="_" 
d="M500 -178v-58h-500v58h500z" />
    <glyph glyph-name="quoteleft" unicode="&#x2018;" horiz-adv-x="278" 
d="M239 443h-84l-116 307h84z" />
    <glyph glyph-name="a" unicode="a" 
d="M346 71h-11c-53 -56 -91 -83 -151 -83c-81 0 -135 55 -135 140c0 112 107 193 297 195v53c0 55 -25 80 -79 80c-49 0 -98 -17 -149 -50l-41 67c68 41 131 62 197 62c110 0 160 -42 160 -135v-295c0 -29 12 -44 38 -44c3 0 7 1 10 1v-71h-15c-66 0 -104 24 -121 80z
M346 131v139c-136 -5 -208 -53 -208 -128c0 -53 33 -88 84 -88c35 0 76 26 124 77z" />
    <glyph glyph-name="b" unicode="b" 
d="M55 21v697l88 32v-318h9c49 69 92 103 145 103c97 0 166 -99 166 -273s-69 -274 -166 -274c-54 0 -97 35 -145 105h-9v-105zM143 262c0 -124 59 -200 129 -200c67 0 101 67 101 200s-34 199 -101 199c-70 0 -129 -75 -129 -199z" />
    <glyph glyph-name="c" unicode="c" horiz-adv-x="444" 
d="M334 383c-13 50 -40 73 -85 73c-69 0 -108 -65 -108 -194c0 -130 37 -195 113 -195c54 0 83 31 92 97l79 -35c-17 -91 -78 -141 -176 -141c-124 0 -199 97 -199 274s75 273 199 273c78 0 134 -39 165 -116z" />
    <glyph glyph-name="d" unicode="d" 
d="M367 -12v105h-10c-48 -70 -90 -105 -144 -105c-97 0 -166 100 -166 274s69 273 166 273c53 0 95 -34 144 -103h10v286l88 32v-729zM238 62c70 0 129 76 129 200s-59 199 -129 199c-67 0 -101 -66 -101 -199s34 -200 101 -200z" />
    <glyph glyph-name="e" unicode="e" horiz-adv-x="444" 
d="M121 314h219c-12 94 -50 142 -110 142s-97 -48 -109 -142zM397 54c-45 -46 -95 -66 -160 -66c-133 0 -208 93 -208 260c0 179 87 287 205 287c109 0 193 -104 195 -283h-309v-9c0 -119 37 -176 121 -176c32 0 64 14 97 42z" />
    <glyph glyph-name="f" unicode="f" horiz-adv-x="319" 
d="M116 0v421h-72v63h72v125c0 89 57 141 152 141c25 0 47 -4 68 -16v-74c-19 8 -40 11 -63 11c-46 0 -69 -23 -69 -68v-119h97v-63h-97v-421h-88z" />
    <glyph glyph-name="g" unicode="g" 
d="M448 21c0 -112 -81 -195 -216 -195c-40 0 -80 7 -124 21v92h25c23 -24 52 -35 91 -35c89 0 136 44 136 123v117h-9c-49 -62 -91 -93 -145 -93c-98 0 -166 90 -166 243s68 242 166 242c53 0 96 -30 145 -91h9v80h88v-504zM231 116c71 0 129 69 129 178s-58 176 -129 176
c-67 0 -101 -58 -101 -176s34 -178 101 -178z" />
    <glyph glyph-name="h" unicode="h" 
d="M74 0v718l88 32v-324h8c62 73 117 109 164 109c59 0 102 -50 102 -135v-400h-88v376c0 61 -13 89 -49 89c-13 0 -26 -4 -41 -13c-16 -10 -31 -23 -46 -39c-32 -34 -50 -53 -50 -62v-351h-88z" />
    <glyph glyph-name="i" unicode="i" horiz-adv-x="278" 
d="M95 523h88v-523h-88v523zM81 616v95h115v-95h-115z" />
    <glyph glyph-name="j" unicode="j" horiz-adv-x="278" 
d="M105 523h88v-575c0 -79 -45 -122 -129 -122c-25 0 -50 4 -73 11v92h23c6 -16 20 -24 40 -24c38 0 51 21 51 70v548zM91 616v95h115v-95h-115z" />
    <glyph glyph-name="k" unicode="k" 
d="M80 0v718l89 32v-750h-89zM386 0l-200 268l194 255h96l-186 -255l207 -268h-111z" />
    <glyph glyph-name="l" unicode="l" horiz-adv-x="278" 
d="M95 0v718l88 32v-750h-88z" />
    <glyph glyph-name="m" unicode="m" horiz-adv-x="778" 
d="M70 0v502l89 33v-109h8c67 72 123 109 175 109c55 0 85 -36 89 -109h10c67 72 123 109 175 109c64 0 91 -44 91 -135v-400h-88v376c0 61 -13 89 -49 89c-13 0 -26 -4 -41 -13c-16 -10 -32 -23 -47 -39c-32 -34 -49 -53 -49 -62v-351h-88v376c0 61 -14 89 -50 89
c-13 0 -25 -4 -40 -13c-16 -10 -32 -23 -47 -39c-32 -34 -49 -53 -49 -62v-351h-89z" />
    <glyph glyph-name="n" unicode="n" 
d="M71 0v502l88 33v-109h9c62 73 117 109 164 109c59 0 102 -50 102 -135v-400h-88v376c0 61 -14 89 -50 89c-13 0 -26 -4 -41 -13c-16 -10 -31 -23 -46 -39c-32 -34 -50 -53 -50 -62v-351h-88z" />
    <glyph glyph-name="o" unicode="o" horiz-adv-x="486" 
d="M243 456c-69 0 -109 -65 -109 -194s40 -195 109 -195s108 66 108 195s-39 194 -108 194zM44 262c0 177 76 273 199 273c124 0 198 -96 198 -273s-74 -274 -198 -274s-199 98 -199 274z" />
    <glyph glyph-name="p" unicode="p" 
d="M61 -174v676l89 33v-103h9c49 69 91 103 144 103c97 0 167 -99 167 -273s-70 -274 -167 -274c-54 0 -96 35 -144 105h-9v-267h-89zM150 262c0 -124 58 -200 128 -200c67 0 101 67 101 200s-34 199 -101 199c-70 0 -128 -75 -128 -199z" />
    <glyph glyph-name="q" unicode="q" 
d="M450 -174h-88v267h-9c-48 -70 -91 -105 -145 -105c-97 0 -166 100 -166 274s69 273 166 273c53 0 96 -34 145 -103h9v103l88 -33v-676zM362 262c0 124 -59 199 -129 199c-67 0 -101 -66 -101 -199s34 -200 101 -200c70 0 129 76 129 200z" />
    <glyph glyph-name="r" unicode="r" horiz-adv-x="389" 
d="M96 0v502l88 33v-180h13c55 98 115 159 175 180v-150c-13 2 -23 3 -32 3c-54 0 -101 -31 -156 -92v-296h-88z" />
    <glyph glyph-name="s" unicode="s" horiz-adv-x="389" 
d="M18 61l48 58c44 -42 83 -63 123 -63c56 0 91 31 91 77c0 47 -24 64 -72 88l-69 34c-62 30 -93 75 -93 134c0 85 63 146 162 146c47 0 90 -15 133 -43l-26 -69c-36 29 -71 42 -112 42c-54 0 -85 -24 -85 -61c0 -31 19 -51 59 -70l59 -29c85 -41 121 -81 121 -160
c0 -88 -70 -157 -167 -157c-55 0 -113 25 -172 73z" />
    <glyph glyph-name="t" unicode="t" horiz-adv-x="333" 
d="M34 422v60h76v116l88 83v-199h89v-60h-89v-292c0 -47 6 -67 38 -67c31 0 63 15 96 44v-88c-39 -21 -72 -32 -103 -32c-85 0 -119 48 -119 147v288h-76z" />
    <glyph glyph-name="u" unicode="u" 
d="M435 523v-502l-88 -33v109h-8c-62 -73 -117 -109 -164 -109c-59 0 -102 50 -102 135v400h88v-376c0 -61 13 -89 49 -89c13 0 26 4 41 13c16 10 32 23 47 39c32 34 49 53 49 62v351h88z" />
    <glyph glyph-name="v" unicode="v" horiz-adv-x="444" 
d="M164 0l-137 523h94l96 -428h11l95 428h95l-138 -523h-116z" />
    <glyph glyph-name="w" unicode="w" horiz-adv-x="667" 
d="M327 437c-5 -67 -14 -132 -28 -194l-57 -243h-91l-143 523h91l74 -313c9 -36 14 -78 17 -125h13c5 50 14 103 27 159l62 279h82l63 -279c13 -56 22 -109 27 -159h13c3 43 8 85 17 125l74 313h91l-144 -523h-91l-56 243c-14 62 -24 127 -29 194h-12z" />
    <glyph glyph-name="x" unicode="x" 
d="M250 205l-117 -205h-101l167 268l-152 255h97l106 -194l106 194h97l-152 -255l167 -268h-102z" />
    <glyph glyph-name="y" unicode="y" horiz-adv-x="444" 
d="M28 -154v92h21c13 -22 30 -33 47 -33c40 0 62 42 97 129l-162 489h89l107 -357h10l114 357h90l-161 -488c-46 -140 -99 -208 -175 -208c-23 0 -49 6 -77 19z" />
    <glyph glyph-name="z" unicode="z" horiz-adv-x="444" 
d="M399 0h-348v74l245 370h-234v79h335v-74l-242 -370h244v-79z" />
    <glyph glyph-name="braceleft" unicode="{" 
d="M419 659c-8 0 -15 1 -22 1c-86 0 -101 -30 -101 -119v-118c0 -96 -16 -142 -97 -164c81 -22 97 -68 97 -164v-118c0 -90 16 -118 104 -118h19v-61h-17c-56 0 -97 5 -128 25c-44 29 -49 77 -49 153v119c0 97 -30 134 -119 134c-7 0 -14 -1 -22 -1v62c8 0 15 -1 22 -1
c89 0 119 37 119 135v119c0 76 4 124 49 153c31 20 71 25 128 25h17v-62z" />
    <glyph glyph-name="bar" unicode="|" 
d="M281 764v-1000h-62v1000h62z" />
    <glyph glyph-name="braceright" unicode="}" 
d="M275 543v-119c0 -98 31 -135 120 -135c7 0 14 1 22 1v-62c-8 0 -15 1 -22 1c-89 0 -120 -37 -120 -135v-118c0 -76 -4 -125 -48 -154c-30 -20 -71 -24 -126 -24h-20v61c8 0 15 -1 22 -1c86 0 101 31 101 120v117c0 96 16 142 97 164c-81 22 -97 68 -97 164v118
c0 90 -16 119 -104 119h-19v61h17c56 0 98 -5 129 -25c44 -29 48 -77 48 -153z" />
    <glyph glyph-name="asciitilde" unicode="~" horiz-adv-x="833" 
d="M747 306c-66 -47 -129 -70 -189 -70c-29 0 -60 6 -93 17c-69 23 -128 50 -190 50c-59 0 -117 -28 -188 -78v65c68 47 131 71 189 71c52 0 97 -16 142 -32c48 -17 91 -36 141 -36c60 0 118 28 188 77v-64z" />
    <glyph glyph-name="exclamdown" unicode="&#xa1;" horiz-adv-x="389" 
d="M265 672c0 -39 -33 -70 -71 -70c-39 0 -70 31 -70 70s31 71 70 71c38 0 71 -33 71 -71zM227 493l22 -493h-109l22 493h65z" />
    <glyph glyph-name="cent" unicode="&#xa2;" horiz-adv-x="556" 
d="M395 383c-1 5 -4 14 -9 24l-133 -329c17 -7 35 -11 55 -11c58 0 91 32 101 97l79 -35c-18 -91 -84 -141 -188 -141c-27 0 -54 5 -80 15l-51 -134h-53l63 157c-60 45 -90 124 -90 236c0 176 79 273 211 273c29 0 56 -4 80 -14l47 118h53l-59 -144c23 -18 41 -42 55 -76z
M350 446c-14 8 -30 10 -49 10c-76 0 -121 -66 -121 -194c0 -74 11 -123 35 -149z" />
    <glyph glyph-name="sterling" unicode="&#xa3;" horiz-adv-x="556" 
d="M41 -20v111c79 20 107 67 107 159c0 28 -3 56 -9 82h-123v69h111c-13 57 -20 99 -20 127c0 140 78 222 206 222c62 0 117 -20 174 -62l-52 -88c-41 48 -76 71 -126 71c-64 0 -108 -50 -108 -129c0 -30 9 -77 27 -141h155v-69h-145c3 -26 4 -47 4 -65
c0 -49 -10 -95 -30 -140c59 -38 106 -57 143 -57c58 0 97 39 100 107h61v-7c0 -122 -56 -189 -152 -189c-61 0 -118 30 -191 78c-39 -40 -82 -66 -132 -79z" />
    <glyph glyph-name="fraction" unicode="&#x2044;" horiz-adv-x="167" 
d="M270 750h63l-436 -769h-64z" />
    <glyph glyph-name="yen" unicode="&#xa5;" horiz-adv-x="667" 
d="M284 0v277h-238v55h213l-221 399h114l181 -356h12l184 356h107l-222 -399h206v-55h-231v-277h-105z" />
    <glyph glyph-name="florin" unicode="&#x192;" horiz-adv-x="556" 
d="M10 -143l40 88c18 -24 37 -36 58 -36c50 0 77 58 94 178l40 277h-142v77h151l6 56c17 166 79 253 171 253c37 0 71 -12 101 -35l-32 -76c-20 21 -39 31 -56 31c-44 0 -67 -42 -80 -128l-15 -101h142v-77h-151l-40 -294c-22 -158 -91 -244 -190 -244c-32 0 -62 11 -97 31z
" />
    <glyph glyph-name="section" unicode="&#xa7;" horiz-adv-x="556" 
d="M168 413c0 -29 22 -51 54 -84c52 -55 83 -92 119 -92c24 0 42 18 42 45s-21 49 -51 81c-53 57 -78 94 -119 94c-24 0 -45 -19 -45 -44zM119 8l62 45c30 -36 55 -55 87 -55c37 0 59 21 59 55c0 44 -39 79 -96 138c-85 89 -145 145 -145 211c0 62 36 101 106 117
c-34 40 -52 75 -52 110c0 68 57 121 142 121c57 0 102 -25 142 -77l-61 -46c-29 33 -54 50 -81 50c-31 0 -54 -23 -54 -51c0 -35 43 -72 109 -139c73 -74 132 -125 132 -203c0 -60 -41 -102 -110 -110c37 -41 55 -81 55 -123c0 -73 -58 -128 -144 -128
c-64 0 -112 27 -151 85z" />
    <glyph glyph-name="currency" unicode="&#xa4;" horiz-adv-x="556" 
d="M389 278h-190c12 -142 56 -217 140 -217c65 0 107 63 119 138l95 -19c-4 -11 -47 -199 -214 -199c-134 0 -221 101 -241 297h-84l16 55h64v33c0 14 0 28 1 42h-80l15 55h69c21 189 107 287 240 287c132 0 193 -122 211 -188l-93 -23c-4 20 -29 132 -118 132
c-83 0 -126 -70 -139 -208h242l-16 -55h-229c-1 -13 -1 -27 -1 -42v-33h209z" />
    <glyph glyph-name="quotesingle" unicode="'" horiz-adv-x="149" 
d="M103 700v-270h-57v270h57z" />
    <glyph glyph-name="quotedblleft" unicode="&#x201c;" horiz-adv-x="556" 
d="M244 443h-84l-116 307h84zM503 443h-84l-116 307h84z" />
    <glyph glyph-name="guillemotleft" unicode="&#xab;" 
d="M183 109l-129 158l129 159h83l-129 -159l129 -158h-83zM359 109l-129 158l129 159h83l-129 -159l129 -158h-83z" />
    <glyph glyph-name="guilsinglleft" unicode="&#x2039;" horiz-adv-x="333" 
d="M191 109l-129 158l129 159h83l-129 -159l129 -158h-83z" />
    <glyph glyph-name="guilsinglright" unicode="&#x203a;" horiz-adv-x="333" 
d="M142 109h-83l129 158l-129 159h83l129 -159z" />
    <glyph glyph-name="fi" unicode="&#xfb01;" horiz-adv-x="586" 
d="M116 0v421h-85v63h85v97c0 97 81 169 207 169c40 0 85 -8 136 -25v-89c-55 23 -100 35 -136 35c-75 0 -119 -36 -119 -97v-90h288v-484h-88v421h-200v-421h-88z" />
    <glyph glyph-name="fl" unicode="&#xfb02;" horiz-adv-x="586" 
d="M116 0v421h-85v63h85v97c0 97 81 169 207 169c42 0 81 -7 118 -22l51 22v-750h-88v421h-200v-421h-88zM204 484h200v172c-28 10 -55 15 -81 15c-76 0 -119 -36 -119 -97v-90z" />
    <glyph glyph-name="endash" unicode="&#x2013;" 
d="M0 242v52h500v-52h-500z" />
    <glyph glyph-name="dagger" unicode="&#x2020;" horiz-adv-x="556" 
d="M253 -37c-2 142 -10 260 -26 354c14 68 23 125 27 174l-159 -29v96l160 -30l-31 203h107l-31 -203l160 30v-96l-160 30c6 -59 15 -117 27 -175c-15 -75 -22 -193 -26 -354h-48z" />
    <glyph glyph-name="daggerdbl" unicode="&#x2021;" horiz-adv-x="556" 
d="M327 317c-13 -64 -21 -122 -27 -175l160 30v-97l-160 31l31 -204h-107l31 204l-160 -31v97l159 -30c-4 49 -14 107 -27 175c13 68 23 126 27 175l-159 -30v97l160 -31l-31 203h107l-31 -203l160 31v-97l-160 30c6 -58 15 -117 27 -175z" />
    <glyph glyph-name="periodcentered" unicode="&#xb7;" horiz-adv-x="278" 
d="M68 374c0 39 33 71 71 71c39 0 70 -32 70 -71s-31 -71 -70 -71c-38 0 -71 33 -71 71z" />
    <glyph glyph-name="paragraph" unicode="&#xb6;" 
d="M463 684h-61v-684h-46v684h-90v-684h-46v382c-114 5 -183 73 -183 170c0 100 74 170 192 170h234v-38z" />
    <glyph glyph-name="bullet" unicode="&#x2022;" horiz-adv-x="590" 
d="M150 372c0 80 65 144 145 144c79 0 144 -64 144 -144c0 -79 -65 -145 -145 -145s-144 65 -144 145z" />
    <glyph glyph-name="quotesinglbase" unicode="&#x201a;" horiz-adv-x="278" 
d="M6 -174l116 308h84l-116 -308h-84z" />
    <glyph glyph-name="quotedblbase" unicode="&#x201e;" horiz-adv-x="556" 
d="M303 -174l116 308h84l-116 -308h-84zM44 -174l116 308h84l-116 -308h-84z" />
    <glyph glyph-name="quotedblright" unicode="&#x201d;" horiz-adv-x="556" 
d="M303 443l116 307h84l-116 -307h-84zM44 443l116 307h84l-116 -307h-84z" />
    <glyph glyph-name="guillemotright" unicode="&#xbb;" 
d="M141 109h-83l129 158l-129 159h83l129 -159zM317 109h-83l129 158l-129 159h83l129 -159z" />
    <glyph glyph-name="ellipsis" unicode="&#x2026;" horiz-adv-x="1000" 
d="M96 59c0 39 33 71 71 71c39 0 70 -32 70 -71s-31 -71 -70 -71c-38 0 -71 33 -71 71zM429 59c0 39 33 71 71 71c39 0 70 -32 70 -71s-31 -71 -70 -71c-38 0 -71 33 -71 71zM763 59c0 39 33 71 71 71c39 0 70 -32 70 -71s-31 -71 -70 -71c-38 0 -71 33 -71 71z" />
    <glyph glyph-name="perthousand" unicode="&#x2030;" horiz-adv-x="1255" 
d="M33 568c0 101 80 182 181 182s182 -81 182 -182s-81 -181 -182 -181c-100 0 -181 81 -181 181zM112 568c0 -56 46 -102 102 -102c57 0 102 46 102 102c0 57 -45 102 -102 102s-102 -45 -102 -102zM219 -19h-74l476 769h74zM444 163c0 101 81 182 182 182
s182 -81 182 -182s-81 -182 -182 -182c-100 0 -182 82 -182 182zM938 163c0 -56 46 -102 102 -102c57 0 102 46 102 102c0 57 -45 102 -102 102s-102 -45 -102 -102zM859 163c0 101 80 182 181 182s182 -81 182 -182s-81 -182 -182 -182c-100 0 -181 82 -181 182zM524 163
c0 -56 46 -102 102 -102c57 0 102 46 102 102c0 57 -45 102 -102 102s-102 -45 -102 -102z" />
    <glyph glyph-name="questiondown" unicode="&#xbf;" 
d="M316 486c0 -8 1 -16 1 -24c0 -60 -14 -112 -44 -163c-37 -65 -94 -107 -94 -163c0 -46 37 -80 87 -80c45 0 74 29 95 89l92 -37c-33 -82 -102 -127 -194 -127c-106 0 -179 67 -179 157c0 79 51 119 98 175c38 44 57 85 57 149c0 8 0 16 -1 24h82zM344 675
c0 -39 -33 -71 -71 -71c-39 0 -71 32 -71 71s32 70 71 70c38 0 71 -32 71 -70z" />
    <glyph glyph-name="grave" unicode="`" 
d="M320 589h-59l-139 170h98z" />
    <glyph glyph-name="acute" unicode="&#xb4;" 
d="M180 589l100 170h98l-139 -170h-59z" />
    <glyph glyph-name="circumflex" unicode="&#x2c6;" 
d="M106 589l96 170h96l96 -170h-60l-84 111l-85 -111h-59z" />
    <glyph glyph-name="tilde" unicode="&#x2dc;" 
d="M393 725c-13 -67 -47 -102 -96 -102c-10 0 -21 2 -32 5l-47 13c-10 3 -18 4 -24 4c-20 0 -35 -11 -44 -33h-43c12 65 46 100 94 100c10 0 20 -2 29 -5l48 -13c11 -3 19 -5 26 -5c22 0 37 12 46 36h43z" />
    <glyph glyph-name="macron" unicode="&#xaf;" 
d="M118 634v69h264v-69h-264z" />
    <glyph glyph-name="breve" unicode="&#x2d8;" 
d="M108 742h53c3 -47 31 -68 89 -68c57 0 86 21 89 68h53c-7 -94 -51 -136 -142 -136s-135 42 -142 136z" />
    <glyph glyph-name="dotaccent" unicode="&#x2d9;" 
d="M203 615v107h94v-107h-94z" />
    <glyph glyph-name="dieresis" unicode="&#xa8;" 
d="M125 618v102h89v-102h-89zM286 618v102h89v-102h-89z" />
    <glyph glyph-name="ring" unicode="&#x2da;" 
d="M127 703c0 69 54 123 123 123s124 -54 124 -123s-55 -123 -124 -123s-123 54 -123 123zM184 703c0 -37 29 -66 66 -66c36 0 66 29 66 66c0 36 -30 66 -66 66c-37 0 -66 -29 -66 -66z" />
    <glyph glyph-name="cedilla" unicode="&#xb8;" 
d="M143 -208v49c59 -14 100 -19 121 -19c39 0 58 13 58 40c0 29 -21 42 -65 42c-8 0 -16 0 -26 -1v97h38v-50h14c72 0 109 -31 109 -88c0 -59 -43 -92 -123 -92c-31 0 -74 7 -126 22z" />
    <glyph glyph-name="hungarumlaut" unicode="&#x2dd;" 
d="M152 589l67 170h87l-107 -170h-47zM278 589l81 170h86l-120 -170h-47z" />
    <glyph glyph-name="ogonek" unicode="&#x2db;" 
d="M303 0c-44 -39 -67 -73 -67 -108c0 -29 13 -38 47 -38h41v-70h-42c-73 0 -110 27 -110 82c0 46 31 86 91 134h40z" />
    <glyph glyph-name="caron" unicode="&#x2c7;" 
d="M106 759h59l85 -111l84 111h60l-96 -170h-96z" />
    <glyph glyph-name="emdash" unicode="&#x2014;" horiz-adv-x="1000" 
d="M0 294h1000v-52h-1000v52z" />
    <glyph glyph-name="AE" unicode="&#xc6;" horiz-adv-x="965" 
d="M216 242h231v397h-53zM332 731h565v-90h-351v-209h254v-90h-254v-251h364v-91h-463v156h-269l-71 -156h-100z" />
    <glyph glyph-name="ordfeminine" unicode="&#xaa;" horiz-adv-x="375" 
d="M260 416h-9c-39 -40 -68 -58 -113 -58c-61 0 -101 38 -101 98c0 78 80 135 223 136v37c0 39 -19 56 -60 56c-36 0 -73 -12 -111 -35l-31 47c51 29 98 43 148 43c82 0 120 -29 120 -94v-207c0 -20 9 -30 28 -30h8v-49h-12c-49 0 -78 16 -90 56zM260 458v97
c-102 -4 -156 -37 -156 -90c0 -37 24 -61 63 -61c26 0 57 18 93 54z" />
    <glyph glyph-name="Lslash" unicode="&#x141;" horiz-adv-x="590" 
d="M123 3v335l-123 -85v62l123 87v329h104v-273l196 139v-65l-196 -136v-303h335v-90h-439z" />
    <glyph glyph-name="Oslash" unicode="&#xd8;" horiz-adv-x="611" 
d="M117 88c-39 62 -57 154 -57 278c0 253 90 384 246 384c55 0 110 -22 152 -62l34 62h64l-62 -106c39 -62 57 -154 57 -278c0 -253 -89 -385 -245 -385c-55 0 -111 22 -153 62l-54 -97h-64zM411 605c-27 42 -62 63 -105 63c-102 0 -144 -100 -144 -303
c0 -71 2 -129 14 -174zM201 127c27 -42 61 -62 105 -62c102 0 143 99 143 302c0 67 -1 124 -14 174z" />
    <glyph glyph-name="OE" unicode="&#x152;" horiz-adv-x="968" 
d="M416 215v302c0 88 -28 129 -97 129c-116 0 -153 -87 -153 -280s37 -280 153 -280c69 0 97 41 97 129zM774 342h-254v-251h364v-91h-578c-155 0 -246 125 -246 366s92 365 246 365h565v-90h-351v-210h254v-89z" />
    <glyph glyph-name="ordmasculine" unicode="&#xba;" horiz-adv-x="365" 
d="M182 685c-51 0 -81 -45 -81 -136c0 -90 30 -136 81 -136c52 0 81 46 81 136c0 91 -29 136 -81 136zM33 549c0 124 57 191 149 191c93 0 149 -67 149 -191s-56 -191 -149 -191s-149 68 -149 191z" />
    <glyph glyph-name="ae" unicode="&#xe6;" horiz-adv-x="736" 
d="M322 134v136c-136 -5 -208 -53 -208 -128c0 -53 33 -88 84 -88c36 0 80 26 124 80zM689 54c-45 -47 -95 -66 -160 -66c-88 0 -144 36 -181 115c-64 -77 -123 -115 -189 -115c-79 0 -134 55 -134 140c0 112 106 193 297 195v53c0 55 -25 80 -79 80c-49 0 -98 -17 -149 -50
l-41 67c68 41 131 62 201 62s115 -23 140 -77c21 49 65 77 124 77c118 0 199 -102 202 -283h-309v-9c0 -119 38 -176 122 -176c32 0 63 14 96 42zM412 314h219c-12 94 -49 142 -109 142s-98 -48 -110 -142z" />
    <glyph glyph-name="dotlessi" unicode="&#x131;" horiz-adv-x="278" 
d="M95 523h88v-523h-88v523z" />
    <glyph glyph-name="lslash" unicode="&#x142;" horiz-adv-x="278" 
d="M95 0v316l-95 -66v58l95 66v344l88 32v-314l95 65v-57l-95 -68v-376h-88z" />
    <glyph glyph-name="oslash" unicode="&#xf8;" horiz-adv-x="486" 
d="M137 168l180 255c-22 27 -44 39 -74 39c-71 0 -112 -67 -112 -200c0 -36 1 -67 6 -94zM348 356l-179 -256c22 -27 44 -38 74 -38c71 0 111 67 111 200c0 36 -1 67 -6 94zM406 438c24 -47 35 -105 35 -176c0 -177 -74 -274 -198 -274c-46 0 -87 15 -122 44l-54 -79h-79
l92 132c-24 47 -36 106 -36 177c0 177 75 273 199 273c46 0 87 -15 122 -44l29 44h79z" />
    <glyph glyph-name="oe" unicode="&#x153;" horiz-adv-x="759" 
d="M243 456c-69 0 -109 -65 -109 -194s40 -195 109 -195s108 66 108 195s-39 194 -108 194zM435 314h219c-12 94 -49 142 -109 142s-98 -48 -110 -142zM712 54c-46 -45 -94 -66 -151 -66c-81 0 -141 36 -170 100c-32 -65 -86 -100 -148 -100c-124 0 -199 97 -199 274
s75 273 199 273c67 0 117 -35 154 -106c38 70 91 106 151 106c110 0 192 -104 195 -283h-309v-9c0 -119 38 -176 122 -176c32 0 63 14 96 42z" />
    <glyph glyph-name="germandbls" unicode="&#xdf;" horiz-adv-x="556" 
d="M82 0v507c0 163 60 243 185 243c109 0 183 -70 183 -183c0 -75 -29 -121 -101 -156v-7c102 -32 145 -97 145 -211c0 -126 -65 -204 -165 -204c-22 0 -47 3 -75 11v85c20 -10 37 -16 54 -16c56 0 96 47 96 129c0 103 -52 161 -142 162v80c67 9 102 50 102 120
c0 71 -37 112 -97 112c-65 0 -97 -49 -97 -148v-524h-88z" />
    <glyph glyph-name="Aacute" unicode="&#xc1;" horiz-adv-x="667" 
d="M217 242h232l-116 383zM525 0l-50 156h-284l-50 -156h-106l240 731h116l240 -731h-106zM264 804l100 170h98l-139 -170h-59z" />
    <glyph glyph-name="Acircumflex" unicode="&#xc2;" horiz-adv-x="667" 
d="M217 242h232l-116 383zM525 0l-50 156h-284l-50 -156h-106l240 731h116l240 -731h-106zM190 804l96 170h96l96 -170h-60l-84 111l-85 -111h-59z" />
    <glyph glyph-name="Adieresis" unicode="&#xc4;" horiz-adv-x="667" 
d="M217 242h232l-116 383zM525 0l-50 156h-284l-50 -156h-106l240 731h116l240 -731h-106zM209 833v102h89v-102h-89zM370 833v102h89v-102h-89z" />
    <glyph glyph-name="Agrave" unicode="&#xc0;" horiz-adv-x="667" 
d="M217 242h232l-116 383zM525 0l-50 156h-284l-50 -156h-106l240 731h116l240 -731h-106zM404 804h-59l-139 170h98z" />
    <glyph glyph-name="Aring" unicode="&#xc5;" horiz-adv-x="667" 
d="M217 242h232l-116 383zM525 0l-50 156h-284l-50 -156h-106l240 731h116l240 -731h-106zM209 900c0 69 55 123 124 123s123 -54 123 -123s-54 -124 -123 -124s-124 55 -124 124zM267 900c0 -37 29 -66 66 -66c36 0 66 29 66 66c0 36 -30 66 -66 66c-37 0 -66 -29 -66 -66z
" />
    <glyph glyph-name="Atilde" unicode="&#xc3;" horiz-adv-x="667" 
d="M217 242h232l-116 383zM525 0l-50 156h-284l-50 -156h-106l240 731h116l240 -731h-106zM477 940c-13 -67 -47 -102 -96 -102c-10 0 -21 2 -32 5l-47 13c-10 3 -18 4 -24 4c-20 0 -35 -11 -44 -33h-43c12 65 46 100 94 100c10 0 20 -2 29 -5l48 -13c11 -3 19 -5 26 -5
c22 0 37 12 46 36h43z" />
    <glyph glyph-name="Ccedilla" unicode="&#xc7;" horiz-adv-x="611" 
d="M540 205c-17 -141 -104 -224 -222 -224c-156 0 -245 132 -245 385s89 384 245 384c112 0 193 -73 218 -206l-94 -23c-17 94 -57 139 -124 139c-100 0 -140 -96 -140 -294s40 -294 140 -294c71 0 111 51 123 152zM215 -208v49c59 -14 100 -19 121 -19c39 0 58 13 58 40
c0 29 -21 42 -65 42c-8 0 -16 0 -26 -1v97h38v-50h14c72 0 109 -31 109 -88c0 -59 -43 -92 -123 -92c-31 0 -74 7 -126 22z" />
    <glyph glyph-name="Eacute" unicode="&#xc9;" horiz-adv-x="667" 
d="M115 0v732h455v-91h-351v-209h254v-90h-254v-251h365v-91h-469zM273 804l100 170h98l-139 -170h-59z" />
    <glyph glyph-name="Ecircumflex" unicode="&#xca;" horiz-adv-x="667" 
d="M115 0v732h455v-91h-351v-209h254v-90h-254v-251h365v-91h-469zM199 804l96 170h96l96 -170h-60l-84 111l-85 -111h-59z" />
    <glyph glyph-name="Edieresis" unicode="&#xcb;" horiz-adv-x="667" 
d="M115 0v732h455v-91h-351v-209h254v-90h-254v-251h365v-91h-469zM218 833v102h89v-102h-89zM379 833v102h89v-102h-89z" />
    <glyph glyph-name="Egrave" unicode="&#xc8;" horiz-adv-x="667" 
d="M115 0v732h455v-91h-351v-209h254v-90h-254v-251h365v-91h-469zM413 804h-59l-139 170h98z" />
    <glyph glyph-name="Eth" unicode="&#xd0;" horiz-adv-x="646" 
d="M194 90h56c162 0 232 83 232 276s-70 275 -232 275h-56v-229h138v-56h-138v-266zM89 0v356h-89v56h89v319h173c215 0 329 -125 329 -365s-114 -366 -329 -366h-173z" />
    <glyph glyph-name="Euro" unicode="&#x20ac;" horiz-adv-x="556" 
d="M389 278h-190c12 -142 56 -217 140 -217c65 0 107 63 119 138l95 -19c-4 -11 -47 -199 -214 -199c-134 0 -221 101 -241 297h-84l16 55h64v33c0 14 0 28 1 42h-80l15 55h69c21 189 107 287 240 287c132 0 193 -122 211 -188l-93 -23c-4 20 -29 132 -118 132
c-83 0 -126 -70 -139 -208h242l-16 -55h-229c-1 -13 -1 -27 -1 -42v-33h209z" />
    <glyph glyph-name="Iacute" unicode="&#xcd;" horiz-adv-x="389" 
d="M79 0v69h63v593h-63v69h231v-69h-63v-593h63v-69h-231zM125 804l100 170h98l-139 -170h-59z" />
    <glyph glyph-name="Icircumflex" unicode="&#xce;" horiz-adv-x="389" 
d="M79 0v69h63v593h-63v69h231v-69h-63v-593h63v-69h-231zM51 804l96 170h96l96 -170h-60l-84 111l-85 -111h-59z" />
    <glyph glyph-name="Idieresis" unicode="&#xcf;" horiz-adv-x="389" 
d="M79 0v69h63v593h-63v69h231v-69h-63v-593h63v-69h-231zM70 833v102h89v-102h-89zM231 833v102h89v-102h-89z" />
    <glyph glyph-name="Igrave" unicode="&#xcc;" horiz-adv-x="389" 
d="M79 0v69h63v593h-63v69h231v-69h-63v-593h63v-69h-231zM265 804h-59l-139 170h98z" />
    <glyph glyph-name="Ntilde" unicode="&#xd1;" horiz-adv-x="722" 
d="M111 0v731h139l169 -379c35 -78 68 -159 97 -241h7v620h88v-731h-135l-183 407c-34 75 -63 149 -87 225h-7v-632h-88zM504 940c-13 -67 -47 -102 -96 -102c-10 0 -21 2 -32 5l-47 13c-10 3 -18 4 -24 4c-20 0 -35 -11 -44 -33h-43c12 65 46 100 94 100c10 0 20 -2 29 -5
l48 -13c11 -3 19 -5 26 -5c22 0 37 12 46 36h43z" />
    <glyph glyph-name="Oacute" unicode="&#xd3;" horiz-adv-x="611" 
d="M60 366c0 253 90 384 246 384s245 -131 245 -384s-89 -385 -245 -385s-246 132 -246 385zM166 366c0 -198 40 -294 140 -294s139 96 139 294s-39 294 -139 294s-140 -96 -140 -294zM236 804l100 170h98l-139 -170h-59z" />
    <glyph glyph-name="Ocircumflex" unicode="&#xd4;" horiz-adv-x="611" 
d="M60 366c0 253 90 384 246 384s245 -131 245 -384s-89 -385 -245 -385s-246 132 -246 385zM166 366c0 -198 40 -294 140 -294s139 96 139 294s-39 294 -139 294s-140 -96 -140 -294zM162 804l96 170h96l96 -170h-60l-84 111l-85 -111h-59z" />
    <glyph glyph-name="Odieresis" unicode="&#xd6;" horiz-adv-x="611" 
d="M60 366c0 253 90 384 246 384s245 -131 245 -384s-89 -385 -245 -385s-246 132 -246 385zM166 366c0 -198 40 -294 140 -294s139 96 139 294s-39 294 -139 294s-140 -96 -140 -294zM181 833v102h89v-102h-89zM342 833v102h89v-102h-89z" />
    <glyph glyph-name="Ograve" unicode="&#xd2;" horiz-adv-x="611" 
d="M60 366c0 253 90 384 246 384s245 -131 245 -384s-89 -385 -245 -385s-246 132 -246 385zM166 366c0 -198 40 -294 140 -294s139 96 139 294s-39 294 -139 294s-140 -96 -140 -294zM376 804h-59l-139 170h98z" />
    <glyph glyph-name="Otilde" unicode="&#xd5;" horiz-adv-x="611" 
d="M60 366c0 253 90 384 246 384s245 -131 245 -384s-89 -385 -245 -385s-246 132 -246 385zM166 366c0 -198 40 -294 140 -294s139 96 139 294s-39 294 -139 294s-140 -96 -140 -294zM449 940c-13 -67 -47 -102 -96 -102c-10 0 -21 2 -32 5l-47 13c-10 3 -18 4 -24 4
c-20 0 -35 -11 -44 -33h-43c12 65 46 100 94 100c10 0 20 -2 29 -5l48 -13c11 -3 19 -5 26 -5c22 0 37 12 46 36h43z" />
    <glyph glyph-name="Scaron" unicode="&#x160;" horiz-adv-x="611" 
d="M59 148l89 57c45 -90 93 -134 164 -134c75 0 122 46 122 117c0 29 -12 59 -33 79c-40 38 -91 56 -143 81s-100 46 -135 93c-24 32 -37 71 -37 112c0 117 85 197 211 197c103 0 178 -51 230 -154l-84 -53c-37 80 -79 116 -146 116c-68 0 -106 -35 -106 -96
c0 -20 7 -41 21 -58c31 -39 81 -55 138 -83c126 -62 189 -116 189 -231c0 -127 -91 -210 -230 -210c-117 0 -198 54 -250 167zM162 974h59l85 -111l84 111h60l-96 -170h-96z" />
    <glyph glyph-name="Thorn" unicode="&#xde;" horiz-adv-x="623" 
d="M121 731h104v-138h84c180 0 277 -79 277 -221s-97 -220 -277 -220h-84v-152h-104v731zM298 505h-73v-265h73c122 0 181 40 181 132s-59 133 -181 133z" />
    <glyph glyph-name="Uacute" unicode="&#xda;" horiz-adv-x="722" 
d="M124 731h104v-463c0 -132 41 -196 128 -196c99 0 138 70 138 215v444h93v-499c0 -153 -93 -251 -232 -251c-148 0 -231 92 -231 266v484zM291 804l100 170h98l-139 -170h-59z" />
    <glyph glyph-name="Ucircumflex" unicode="&#xdb;" horiz-adv-x="722" 
d="M124 731h104v-463c0 -132 41 -196 128 -196c99 0 138 70 138 215v444h93v-499c0 -153 -93 -251 -232 -251c-148 0 -231 92 -231 266v484zM217 804l96 170h96l96 -170h-60l-84 111l-85 -111h-59z" />
    <glyph glyph-name="Udieresis" unicode="&#xdc;" horiz-adv-x="722" 
d="M124 731h104v-463c0 -132 41 -196 128 -196c99 0 138 70 138 215v444h93v-499c0 -153 -93 -251 -232 -251c-148 0 -231 92 -231 266v484zM236 833v102h89v-102h-89zM397 833v102h89v-102h-89z" />
    <glyph glyph-name="Ugrave" unicode="&#xd9;" horiz-adv-x="722" 
d="M124 731h104v-463c0 -132 41 -196 128 -196c99 0 138 70 138 215v444h93v-499c0 -153 -93 -251 -232 -251c-148 0 -231 92 -231 266v484zM431 804h-59l-139 170h98z" />
    <glyph glyph-name="Yacute" unicode="&#xdd;" horiz-adv-x="667" 
d="M284 0v286l-246 445h114l181 -351h12l184 351h107l-247 -442v-289h-105zM264 804l100 170h98l-139 -170h-59z" />
    <glyph glyph-name="Ydieresis" unicode="&#x178;" horiz-adv-x="667" 
d="M284 0v286l-246 445h114l181 -351h12l184 351h107l-247 -442v-289h-105zM209 833v102h89v-102h-89zM370 833v102h89v-102h-89z" />
    <glyph glyph-name="Zcaron" unicode="&#x17d;" horiz-adv-x="611" 
d="M62 0v75l350 563v8c-31 -3 -62 -5 -93 -5h-244v90h469v-60l-358 -574v-9c22 3 47 5 75 5h298v-93h-497zM162 974h59l85 -111l84 111h60l-96 -170h-96z" />
    <glyph glyph-name="aacute" unicode="&#xe1;" 
d="M346 71h-11c-53 -56 -91 -83 -151 -83c-81 0 -135 55 -135 140c0 112 107 193 297 195v53c0 55 -25 80 -79 80c-49 0 -98 -17 -149 -50l-41 67c68 41 131 62 197 62c110 0 160 -42 160 -135v-295c0 -29 12 -44 38 -44c3 0 7 1 10 1v-71h-15c-66 0 -104 24 -121 80z
M346 131v139c-136 -5 -208 -53 -208 -128c0 -53 33 -88 84 -88c35 0 76 26 124 77zM201 589l100 170h98l-139 -170h-59z" />
    <glyph glyph-name="acircumflex" unicode="&#xe2;" 
d="M346 71h-11c-53 -56 -91 -83 -151 -83c-81 0 -135 55 -135 140c0 112 107 193 297 195v53c0 55 -25 80 -79 80c-49 0 -98 -17 -149 -50l-41 67c68 41 131 62 197 62c110 0 160 -42 160 -135v-295c0 -29 12 -44 38 -44c3 0 7 1 10 1v-71h-15c-66 0 -104 24 -121 80z
M346 131v139c-136 -5 -208 -53 -208 -128c0 -53 33 -88 84 -88c35 0 76 26 124 77zM127 589l96 170h96l96 -170h-60l-84 111l-85 -111h-59z" />
    <glyph glyph-name="adieresis" unicode="&#xe4;" 
d="M346 71h-11c-53 -56 -91 -83 -151 -83c-81 0 -135 55 -135 140c0 112 107 193 297 195v53c0 55 -25 80 -79 80c-49 0 -98 -17 -149 -50l-41 67c68 41 131 62 197 62c110 0 160 -42 160 -135v-295c0 -29 12 -44 38 -44c3 0 7 1 10 1v-71h-15c-66 0 -104 24 -121 80z
M346 131v139c-136 -5 -208 -53 -208 -128c0 -53 33 -88 84 -88c35 0 76 26 124 77zM146 618v102h89v-102h-89zM307 618v102h89v-102h-89z" />
    <glyph glyph-name="agrave" unicode="&#xe0;" 
d="M346 71h-11c-53 -56 -91 -83 -151 -83c-81 0 -135 55 -135 140c0 112 107 193 297 195v53c0 55 -25 80 -79 80c-49 0 -98 -17 -149 -50l-41 67c68 41 131 62 197 62c110 0 160 -42 160 -135v-295c0 -29 12 -44 38 -44c3 0 7 1 10 1v-71h-15c-66 0 -104 24 -121 80z
M346 131v139c-136 -5 -208 -53 -208 -128c0 -53 33 -88 84 -88c35 0 76 26 124 77zM341 589h-59l-139 170h98z" />
    <glyph glyph-name="aring" unicode="&#xe5;" 
d="M346 71h-11c-53 -56 -91 -83 -151 -83c-81 0 -135 55 -135 140c0 112 107 193 297 195v53c0 55 -25 80 -79 80c-49 0 -98 -17 -149 -50l-41 67c68 41 131 62 197 62c110 0 160 -42 160 -135v-295c0 -29 12 -44 38 -44c3 0 7 1 10 1v-71h-15c-66 0 -104 24 -121 80z
M346 131v139c-136 -5 -208 -53 -208 -128c0 -53 33 -88 84 -88c35 0 76 26 124 77zM145 703c0 69 55 123 124 123s123 -54 123 -123s-54 -123 -123 -123s-124 54 -124 123zM203 703c0 -37 29 -66 66 -66c36 0 66 29 66 66c0 36 -30 66 -66 66c-37 0 -66 -29 -66 -66z" />
    <glyph glyph-name="atilde" unicode="&#xe3;" 
d="M346 71h-11c-53 -56 -91 -83 -151 -83c-81 0 -135 55 -135 140c0 112 107 193 297 195v53c0 55 -25 80 -79 80c-49 0 -98 -17 -149 -50l-41 67c68 41 131 62 197 62c110 0 160 -42 160 -135v-295c0 -29 12 -44 38 -44c3 0 7 1 10 1v-71h-15c-66 0 -104 24 -121 80z
M346 131v139c-136 -5 -208 -53 -208 -128c0 -53 33 -88 84 -88c35 0 76 26 124 77zM414 725c-13 -67 -47 -102 -96 -102c-10 0 -21 2 -32 5l-47 13c-10 3 -18 4 -24 4c-20 0 -35 -11 -44 -33h-43c12 65 46 100 94 100c10 0 20 -2 29 -5l48 -13c11 -3 19 -5 26 -5
c22 0 37 12 46 36h43z" />
    <glyph glyph-name="brokenbar" unicode="&#xa6;" 
d="M281 699v-370h-62v370h62zM281 199v-370h-62v370h62z" />
    <glyph glyph-name="ccedilla" unicode="&#xe7;" horiz-adv-x="444" 
d="M334 383c-13 50 -40 73 -85 73c-69 0 -108 -65 -108 -194c0 -130 37 -195 113 -195c54 0 83 31 92 97l79 -35c-17 -91 -78 -141 -176 -141c-124 0 -199 97 -199 274s75 273 199 273c78 0 134 -39 165 -116zM146 -208v49c59 -14 100 -19 121 -19c39 0 58 13 58 40
c0 29 -21 42 -65 42c-8 0 -16 0 -26 -1v97h38v-50h14c72 0 109 -31 109 -88c0 -59 -43 -92 -123 -92c-31 0 -74 7 -126 22z" />
    <glyph glyph-name="copyright" unicode="&#xa9;" horiz-adv-x="833" 
d="M416 713c97 0 187 -36 256 -105c67 -67 103 -157 103 -254c0 -98 -36 -186 -103 -252c-71 -69 -162 -107 -256 -107c-95 0 -183 37 -252 106s-106 158 -106 253s38 185 107 255c66 67 154 104 251 104zM733 354c0 85 -33 165 -92 224c-60 60 -139 92 -225 92
s-163 -32 -221 -91c-61 -62 -94 -142 -94 -225s33 -161 93 -222c60 -60 138 -93 222 -93c83 0 164 33 226 94c59 58 91 135 91 221zM520 445c-10 51 -49 80 -102 80c-75 0 -121 -61 -121 -172c0 -107 48 -168 121 -168c56 0 97 33 107 89h63c-7 -83 -77 -140 -173 -140
c-113 0 -188 83 -188 218c0 138 78 223 193 223c90 0 156 -54 163 -130h-63z" />
    <glyph glyph-name="degree" unicode="&#xb0;" horiz-adv-x="329" 
d="M165 710c76 0 138 -62 138 -138c0 -75 -61 -138 -139 -138c-77 0 -137 61 -137 138c0 78 62 138 138 138zM263 572c0 54 -43 98 -98 98c-54 0 -99 -43 -99 -98c0 -56 45 -99 99 -99c56 0 98 45 98 99z" />
    <glyph glyph-name="divide" unicode="&#xf7;" horiz-adv-x="833" 
d="M417 530c31 0 56 -25 56 -56c0 -30 -24 -56 -56 -56s-56 25 -56 56s26 56 56 56zM709 327v-57h-585v57h585zM417 178c30 0 56 -25 56 -56c0 -30 -24 -56 -56 -56c-31 0 -56 25 -56 56c0 32 26 56 56 56z" />
    <glyph glyph-name="eacute" unicode="&#xe9;" horiz-adv-x="444" 
d="M121 314h219c-12 94 -50 142 -110 142s-97 -48 -109 -142zM397 54c-45 -46 -95 -66 -160 -66c-133 0 -208 93 -208 260c0 179 87 287 205 287c109 0 193 -104 195 -283h-309v-9c0 -119 37 -176 121 -176c32 0 64 14 97 42zM161 589l100 170h98l-139 -170h-59z" />
    <glyph glyph-name="ecircumflex" unicode="&#xea;" horiz-adv-x="444" 
d="M121 314h219c-12 94 -50 142 -110 142s-97 -48 -109 -142zM397 54c-45 -46 -95 -66 -160 -66c-133 0 -208 93 -208 260c0 179 87 287 205 287c109 0 193 -104 195 -283h-309v-9c0 -119 37 -176 121 -176c32 0 64 14 97 42zM87 589l96 170h96l96 -170h-60l-84 111
l-85 -111h-59z" />
    <glyph glyph-name="edieresis" unicode="&#xeb;" horiz-adv-x="444" 
d="M121 314h219c-12 94 -50 142 -110 142s-97 -48 -109 -142zM397 54c-45 -46 -95 -66 -160 -66c-133 0 -208 93 -208 260c0 179 87 287 205 287c109 0 193 -104 195 -283h-309v-9c0 -119 37 -176 121 -176c32 0 64 14 97 42zM106 618v102h89v-102h-89zM267 618v102h89v-102
h-89z" />
    <glyph glyph-name="egrave" unicode="&#xe8;" horiz-adv-x="444" 
d="M121 314h219c-12 94 -50 142 -110 142s-97 -48 -109 -142zM397 54c-45 -46 -95 -66 -160 -66c-133 0 -208 93 -208 260c0 179 87 287 205 287c109 0 193 -104 195 -283h-309v-9c0 -119 37 -176 121 -176c32 0 64 14 97 42zM301 589h-59l-139 170h98z" />
    <glyph glyph-name="eth" unicode="&#xf0;" horiz-adv-x="486" 
d="M314 475c-15 42 -39 82 -71 119l-136 -50l-18 47l117 43c-22 21 -51 41 -86 60l33 54c47 -24 90 -53 129 -87l118 45l18 -47l-96 -35c85 -92 123 -213 123 -371c0 -171 -76 -265 -202 -265s-202 94 -202 265c0 161 67 256 162 256c35 0 69 -13 104 -40zM243 442
c-70 0 -110 -64 -110 -189s40 -188 110 -188c71 0 110 63 110 188s-39 189 -110 189z" />
    <glyph glyph-name="iacute" unicode="&#xed;" horiz-adv-x="278" 
d="M95 523h88v-523h-88v523zM69 589l100 170h98l-139 -170h-59z" />
    <glyph glyph-name="icircumflex" unicode="&#xee;" horiz-adv-x="278" 
d="M95 523h88v-523h-88v523zM-5 589l96 170h96l96 -170h-60l-84 111l-85 -111h-59z" />
    <glyph glyph-name="idieresis" unicode="&#xef;" horiz-adv-x="278" 
d="M95 523h88v-523h-88v523zM14 618v102h89v-102h-89zM175 618v102h89v-102h-89z" />
    <glyph glyph-name="igrave" unicode="&#xec;" horiz-adv-x="278" 
d="M95 523h88v-523h-88v523zM209 589h-59l-139 170h98z" />
    <glyph glyph-name="logicalnot" unicode="&#xac;" horiz-adv-x="833" 
d="M709 419v-245h-56v188h-529v57h585z" />
    <glyph glyph-name="minus" unicode="&#x2212;" horiz-adv-x="833" 
d="M709 327v-58h-585v58h585z" />
    <glyph glyph-name="mu" unicode="&#xb5;" horiz-adv-x="551" 
d="M177 522l-62 -291c-5 -22 -7 -44 -7 -67c0 -70 38 -111 106 -111c82 0 135 66 164 200l59 269h76l-79 -368c-7 -31 -11 -53 -11 -66c0 -21 12 -32 35 -32c2 0 8 0 17 1l-13 -61c-17 -4 -33 -5 -45 -5c-46 0 -67 22 -71 72c-26 -45 -78 -72 -141 -72c-56 0 -99 22 -128 67
l-55 -266h-76l154 730h77z" />
    <glyph glyph-name="multiply" unicode="&#xd7;" horiz-adv-x="833" 
d="M419 338l232 233l40 -40l-232 -233l232 -232l-40 -40l-232 232l-233 -232l-39 40l232 232l-232 233l39 40z" />
    <glyph glyph-name="ntilde" unicode="&#xf1;" 
d="M71 0v502l88 33v-109h9c62 73 117 109 164 109c59 0 102 -50 102 -135v-400h-88v376c0 61 -14 89 -50 89c-13 0 -26 -4 -41 -13c-16 -10 -31 -23 -46 -39c-32 -34 -50 -53 -50 -62v-351h-88zM393 725c-13 -67 -47 -102 -96 -102c-10 0 -21 2 -32 5l-47 13
c-10 3 -18 4 -24 4c-20 0 -35 -11 -44 -33h-43c12 65 46 100 94 100c10 0 20 -2 29 -5l48 -13c11 -3 19 -5 26 -5c22 0 37 12 46 36h43z" />
    <glyph glyph-name="oacute" unicode="&#xf3;" horiz-adv-x="486" 
d="M243 456c-69 0 -109 -65 -109 -194s40 -195 109 -195s108 66 108 195s-39 194 -108 194zM44 262c0 177 76 273 199 273c124 0 198 -96 198 -273s-74 -274 -198 -274s-199 98 -199 274zM173 589l100 170h98l-139 -170h-59z" />
    <glyph glyph-name="ocircumflex" unicode="&#xf4;" horiz-adv-x="486" 
d="M243 456c-69 0 -109 -65 -109 -194s40 -195 109 -195s108 66 108 195s-39 194 -108 194zM44 262c0 177 76 273 199 273c124 0 198 -96 198 -273s-74 -274 -198 -274s-199 98 -199 274zM99 589l96 170h96l96 -170h-60l-84 111l-85 -111h-59z" />
    <glyph glyph-name="odieresis" unicode="&#xf6;" horiz-adv-x="486" 
d="M243 456c-69 0 -109 -65 -109 -194s40 -195 109 -195s108 66 108 195s-39 194 -108 194zM44 262c0 177 76 273 199 273c124 0 198 -96 198 -273s-74 -274 -198 -274s-199 98 -199 274zM118 618v102h89v-102h-89zM279 618v102h89v-102h-89z" />
    <glyph glyph-name="ograve" unicode="&#xf2;" horiz-adv-x="486" 
d="M243 456c-69 0 -109 -65 -109 -194s40 -195 109 -195s108 66 108 195s-39 194 -108 194zM44 262c0 177 76 273 199 273c124 0 198 -96 198 -273s-74 -274 -198 -274s-199 98 -199 274zM313 589h-59l-139 170h98z" />
    <glyph glyph-name="onehalf" unicode="&#xbd;" horiz-adv-x="867" 
d="M64 322v49h97v312h-107v48h169v-360h95v-49h-254zM620 750h63l-436 -769h-64zM548 0v7c0 65 28 106 81 152c27 24 69 48 108 84c24 21 36 45 36 66c0 37 -30 62 -76 62c-50 0 -79 -20 -101 -68l-51 29c38 61 81 88 147 88c86 0 143 -46 143 -114c0 -29 -12 -58 -35 -84
c-23 -27 -58 -47 -95 -73c-49 -35 -83 -59 -87 -100h223v-49h-293z" />
    <glyph glyph-name="onequarter" unicode="&#xbc;" horiz-adv-x="867" 
d="M64 322v49h97v312h-107v48h169v-360h95v-49h-254zM620 750h63l-436 -769h-64zM734 0v112h-192v64l155 233h94v-248h55v-49h-55v-112h-57zM591 161h143v220z" />
    <glyph glyph-name="onesuperior" unicode="&#xb9;" horiz-adv-x="367" 
d="M67 293v53h102v333h-112v53h177v-386h99v-53h-266z" />
    <glyph glyph-name="otilde" unicode="&#xf5;" horiz-adv-x="486" 
d="M243 456c-69 0 -109 -65 -109 -194s40 -195 109 -195s108 66 108 195s-39 194 -108 194zM44 262c0 177 76 273 199 273c124 0 198 -96 198 -273s-74 -274 -198 -274s-199 98 -199 274zM386 725c-13 -67 -47 -102 -96 -102c-10 0 -21 2 -32 5l-47 13c-10 3 -18 4 -24 4
c-20 0 -35 -11 -44 -33h-43c12 65 46 100 94 100c10 0 20 -2 29 -5l48 -13c11 -3 19 -5 26 -5c22 0 37 12 46 36h43z" />
    <glyph glyph-name="plusminus" unicode="&#xb1;" horiz-adv-x="833" 
d="M446 576v-168h263v-57h-263v-168h-58v168h-264v57h264v168h58zM709 77v-57h-585v57h585z" />
    <glyph glyph-name="registered" unicode="&#xae;" horiz-adv-x="833" 
d="M416 713c98 0 187 -37 256 -106c67 -67 103 -157 103 -253c0 -98 -36 -186 -104 -252c-71 -69 -161 -107 -255 -107c-95 0 -184 38 -253 107c-68 68 -105 157 -105 252s38 186 108 256c66 67 153 103 250 103zM733 352c0 86 -32 166 -91 225c-61 61 -139 93 -226 93
c-85 0 -162 -31 -220 -90c-62 -62 -95 -142 -95 -226c0 -83 33 -161 93 -222s139 -93 221 -93c85 0 164 32 226 93c59 58 92 135 92 220zM426 565c114 0 171 -36 171 -113c0 -57 -36 -99 -96 -109l92 -188h-77l-86 178h-87v-178h-69v410h152zM413 520h-70v-142h72
c76 0 111 17 111 69c0 53 -36 73 -113 73z" />
    <glyph glyph-name="scaron" unicode="&#x161;" horiz-adv-x="389" 
d="M18 61l48 58c44 -42 83 -63 123 -63c56 0 91 31 91 77c0 47 -24 64 -72 88l-69 34c-62 30 -93 75 -93 134c0 85 63 146 162 146c47 0 90 -15 133 -43l-26 -69c-36 29 -71 42 -112 42c-54 0 -85 -24 -85 -61c0 -31 19 -51 59 -70l59 -29c85 -41 121 -81 121 -160
c0 -88 -70 -157 -167 -157c-55 0 -113 25 -172 73zM51 759h59l85 -111l84 111h60l-96 -170h-96z" />
    <glyph glyph-name="thorn" unicode="&#xfe;" 
d="M61 718l89 32v-318h9c49 69 91 103 144 103c97 0 167 -99 167 -273s-70 -274 -167 -274c-54 0 -96 35 -144 105h-9v-267h-89v892zM278 461c-70 0 -128 -75 -128 -199s60 -200 128 -200s101 67 101 200s-34 199 -101 199z" />
    <glyph glyph-name="threequarters" unicode="&#xbe;" horiz-adv-x="868" 
d="M3 346h63c56 1 102 16 141 47c25 20 39 46 39 68c0 34 -29 60 -70 60c-15 0 -31 -2 -47 -7l-31 -9l-17 38l41 17c66 27 100 57 100 90c0 26 -25 46 -62 46s-73 -19 -113 -57l-36 39c49 44 97 65 157 65c71 0 117 -37 117 -86c0 -38 -29 -70 -85 -99
c72 -10 107 -44 107 -102c0 -43 -24 -81 -72 -113c-38 -25 -100 -45 -158 -46h-73zM620 750h63l-436 -769h-64zM734 0v112h-192v64l155 233h94v-248h55v-49h-55v-112h-57zM591 161h143v220z" />
    <glyph glyph-name="threesuperior" unicode="&#xb3;" horiz-adv-x="367" 
d="M3 318l66 1c58 0 107 17 147 50c27 22 41 49 41 73c0 36 -29 64 -72 64c-16 0 -33 -2 -50 -7l-32 -10l-18 41l42 18c70 29 105 61 105 96c0 29 -26 49 -64 49c-39 0 -77 -20 -119 -60l-37 42c51 46 101 69 164 69c75 0 122 -39 122 -92c0 -40 -29 -75 -88 -106
c74 -11 111 -48 111 -110c0 -45 -25 -87 -75 -121c-39 -27 -104 -48 -165 -48l-76 -1z" />
    <glyph glyph-name="trademark" unicode="&#x2122;" horiz-adv-x="833" 
d="M339 711v-33h-84v-228h-46v228h-85v33h215zM463 711l78 -198l73 198h64v-261h-40v224l-84 -224h-26l-88 224v-224h-40v261h63z" />
    <glyph glyph-name="twosuperior" unicode="&#xb2;" horiz-adv-x="367" 
d="M32 293v7c0 70 29 114 85 163c29 26 72 51 114 90c24 23 37 49 37 71c0 39 -32 66 -79 66c-52 0 -83 -21 -106 -72l-53 30c39 66 84 95 153 95c91 0 150 -50 150 -122c0 -32 -12 -63 -36 -90c-25 -29 -61 -51 -100 -78c-52 -38 -87 -63 -91 -107h234v-53h-308z" />
    <glyph glyph-name="uacute" unicode="&#xfa;" 
d="M435 523v-502l-88 -33v109h-8c-62 -73 -117 -109 -164 -109c-59 0 -102 50 -102 135v400h88v-376c0 -61 13 -89 49 -89c13 0 26 4 41 13c16 10 32 23 47 39c32 34 49 53 49 62v351h88zM180 589l100 170h98l-139 -170h-59z" />
    <glyph glyph-name="ucircumflex" unicode="&#xfb;" 
d="M435 523v-502l-88 -33v109h-8c-62 -73 -117 -109 -164 -109c-59 0 -102 50 -102 135v400h88v-376c0 -61 13 -89 49 -89c13 0 26 4 41 13c16 10 32 23 47 39c32 34 49 53 49 62v351h88zM106 589l96 170h96l96 -170h-60l-84 111l-85 -111h-59z" />
    <glyph glyph-name="udieresis" unicode="&#xfc;" 
d="M435 523v-502l-88 -33v109h-8c-62 -73 -117 -109 -164 -109c-59 0 -102 50 -102 135v400h88v-376c0 -61 13 -89 49 -89c13 0 26 4 41 13c16 10 32 23 47 39c32 34 49 53 49 62v351h88zM125 618v102h89v-102h-89zM286 618v102h89v-102h-89z" />
    <glyph glyph-name="ugrave" unicode="&#xf9;" 
d="M435 523v-502l-88 -33v109h-8c-62 -73 -117 -109 -164 -109c-59 0 -102 50 -102 135v400h88v-376c0 -61 13 -89 49 -89c13 0 26 4 41 13c16 10 32 23 47 39c32 34 49 53 49 62v351h88zM320 589h-59l-139 170h98z" />
    <glyph glyph-name="yacute" unicode="&#xfd;" horiz-adv-x="444" 
d="M28 -154v92h21c13 -22 30 -33 47 -33c40 0 62 42 97 129l-162 489h89l107 -357h10l114 357h90l-161 -488c-46 -140 -99 -208 -175 -208c-23 0 -49 6 -77 19zM152 589l100 170h98l-139 -170h-59z" />
    <glyph glyph-name="ydieresis" unicode="&#xff;" horiz-adv-x="444" 
d="M28 -154v92h21c13 -22 30 -33 47 -33c40 0 62 42 97 129l-162 489h89l107 -357h10l114 357h90l-161 -488c-46 -140 -99 -208 -175 -208c-23 0 -49 6 -77 19zM97 618v102h89v-102h-89zM258 618v102h89v-102h-89z" />
    <glyph glyph-name="zcaron" unicode="&#x17e;" horiz-adv-x="444" 
d="M399 0h-348v74l245 370h-234v79h335v-74l-242 -370h244v-79zM78 759h59l85 -111l84 111h60l-96 -170h-96z" />
    </font>
</defs>
</svg>
