<?xml version="1.0" standalone="no"?>
<!DOCTYPE svg PUBLIC "-//W3C//DTD SVG 1.1//EN" "http://www.w3.org/Graphics/SVG/1.1/DTD/svg11.dtd" >
<svg>
<metadata>
Created by FontForge 20120731 at Fri Aug  2 20:26:29 2019
 By www
Copyright (c) 1992 Adobe Systems Incorporated.  All Rights Reserved.
</metadata>
<defs>
<font id="BellGothic-Light" horiz-adv-x="500" >
  <font-face 
    font-family="Bell Gothic"
    font-weight="300"
    font-stretch="normal"
    units-per-em="1000"
    panose-1="0 0 0 0 0 0 0 0 0 0"
    ascent="800"
    descent="-200"
    x-height="479"
    cap-height="664"
    bbox="-166 -250 996 864"
    underline-thickness="50"
    underline-position="-75"
    stemh="58"
    stemv="65"
    unicode-range="U+0020-FB02"
  />
<missing-glyph horiz-adv-x="275" 
 />
    <glyph glyph-name=".notdef" horiz-adv-x="275" 
 />
    <glyph glyph-name="space" unicode=" " horiz-adv-x="275" 
 />
    <glyph glyph-name="exclam" unicode="!" horiz-adv-x="389" 
d="M231 682l-12 -449h-48l-16 449h76zM136 54c0 33 28 60 59 60c30 0 59 -26 59 -60c0 -31 -24 -59 -60 -59c-40 0 -58 33 -58 59z" />
    <glyph glyph-name="quotedbl" unicode="&#x22;" horiz-adv-x="333" 
d="M70 430v271h66v-271h-66zM198 430v271h66v-271h-66z" />
    <glyph glyph-name="numbersign" unicode="#" horiz-adv-x="600" 
d="M516 274l2 -54h-106l-30 -220h-62l31 220h-130l-30 -220h-62l31 220h-104l-2 54h114l21 152h-105l-2 54h114l31 220h61l-31 -220h130l31 220h61l-31 -220h96l2 -54h-105l-21 -152h96zM380 426h-130l-21 -152h130z" />
    <glyph glyph-name="dollar" unicode="$" horiz-adv-x="556" 
d="M244 618v88h52v-88c64 -8 112 -23 160 -66l-34 -51c-38 31 -76 57 -126 64v-209c85 -35 177 -66 177 -175c0 -111 -74 -161 -177 -174v-133h-52v131c-81 6 -123 28 -185 78l34 54c41 -47 91 -67 151 -76v242c-82 33 -170 68 -170 173c0 96 85 142 170 142zM244 375v192
c-83 -3 -107 -52 -107 -88c0 -37 17 -61 49 -79c9 -5 48 -22 58 -25zM296 287v-224c63 5 115 36 115 106c0 76 -65 101 -115 118z" />
    <glyph glyph-name="percent" unicode="%" horiz-adv-x="1000" 
d="M105 468c0 87 73 157 160 157c82 0 155 -68 155 -157c0 -88 -69 -159 -155 -159c-84 0 -160 65 -160 159zM265 561c-49 0 -96 -37 -96 -94c0 -53 42 -94 95 -94c55 0 92 45 92 94c0 59 -48 94 -91 94zM580 168c0 88 73 157 160 157c81 0 155 -68 155 -157
c0 -88 -70 -159 -155 -159s-160 65 -160 159zM740 262c-51 0 -97 -38 -97 -95c0 -54 44 -94 95 -94c55 0 93 45 93 95c0 59 -51 94 -91 94zM675 644h51l-401 -650h-51z" />
    <glyph glyph-name="ampersand" unicode="&#x26;" horiz-adv-x="722" 
d="M575 340l60 -27c-18 -57 -53 -129 -118 -202c26 -31 57 -68 110 -68c27 0 38 7 51 15v-69c-15 -5 -31 -11 -55 -11c-76 0 -121 49 -152 82c-76 -75 -166 -83 -191 -83c-151 0 -212 114 -212 201c0 123 107 182 163 213c-31 50 -56 93 -56 154c0 71 61 133 138 133
c111 0 141 -84 141 -132c0 -96 -97 -152 -138 -174c57 -91 91 -132 159 -217c31 40 71 95 100 185zM279 40c76 0 129 44 150 69c-75 83 -124 160 -169 231c-64 -39 -122 -75 -122 -163c0 -24 13 -137 141 -137zM286 420c38 21 104 58 104 129c0 62 -50 78 -77 78
c-61 0 -76 -52 -76 -82c0 -51 39 -110 49 -125z" />
    <glyph glyph-name="quoteright" unicode="&#x2019;" horiz-adv-x="278" 
d="M63 383l115 295h66l-119 -295h-62z" />
    <glyph glyph-name="parenleft" unicode="(" horiz-adv-x="389" 
d="M231 683h71c-91 -99 -145 -230 -145 -347c0 -162 62 -248 144 -354h-67c-92 111 -137 208 -137 353c0 178 89 292 134 348z" />
    <glyph glyph-name="parenright" unicode=")" horiz-adv-x="389" 
d="M87 683h71c45 -56 134 -170 134 -348c0 -145 -45 -242 -137 -353h-67c82 106 144 192 144 354c0 117 -54 248 -145 347z" />
    <glyph glyph-name="asterisk" unicode="*" horiz-adv-x="556" 
d="M95 525l20 64l145 -65l-18 157h64l-15 -157l146 71l22 -64l-161 -33l116 -117l-53 -42l-85 140l-72 -139l-55 41l106 116z" />
    <glyph glyph-name="plus" unicode="+" horiz-adv-x="600" 
d="M267 286v220h66v-220h219v-66h-219v-220h-66v220h-219v66h219z" />
    <glyph glyph-name="comma" unicode="," horiz-adv-x="278" 
d="M130 111h63l-115 -295h-64z" />
    <glyph glyph-name="hyphen" unicode="-" horiz-adv-x="333" 
d="M39 230v55h256v-55h-256z" />
    <glyph glyph-name="period" unicode="." horiz-adv-x="278" 
d="M137 -7c-33 0 -61 25 -61 59c0 33 28 60 60 60c34 0 61 -29 61 -60c0 -34 -28 -59 -60 -59z" />
    <glyph glyph-name="slash" unicode="/" horiz-adv-x="278" 
d="M46 -24h-68l252 702h70z" />
    <glyph glyph-name="zero" unicode="0" horiz-adv-x="556" 
d="M485 310c0 -128 -32 -328 -200 -328c-169 0 -213 179 -213 318c0 236 94 330 211 330c94 0 202 -80 202 -320zM139 313c0 -123 29 -276 140 -276c124 0 138 183 138 271c0 93 -16 265 -143 265c-120 0 -135 -177 -135 -260z" />
    <glyph glyph-name="one" unicode="1" horiz-adv-x="556" 
d="M90 613h232v-557h132v-56h-341v56h137v500h-160v57z" />
    <glyph glyph-name="two" unicode="2" horiz-adv-x="556" 
d="M118 454l-51 34c17 36 65 138 196 138s191 -86 191 -173c0 -104 -89 -167 -165 -223c-53 -39 -140 -98 -150 -170h322v-60h-392c15 155 87 199 205 294c79 66 109 100 109 154c0 63 -38 119 -121 119c-102 0 -134 -86 -144 -113z" />
    <glyph glyph-name="three" unicode="3" horiz-adv-x="556" 
d="M56 -22v52c71 1 164 2 250 49c47 26 99 71 99 133c0 69 -47 99 -112 99c-36 0 -63 -9 -92 -19l-18 48c65 30 187 65 187 158c0 41 -32 71 -87 71c-67 0 -116 -36 -165 -78l-30 46c60 52 124 89 193 89c120 0 158 -72 158 -130c0 -87 -87 -115 -113 -138v-2
c0 -2 4 -4 16 -4c81 0 134 -56 134 -136c0 -114 -107 -176 -134 -189c-93 -47 -215 -48 -286 -49z" />
    <glyph glyph-name="four" unicode="4" horiz-adv-x="556" 
d="M343 241v320c0 7 -3 10 -6 10c-5 0 -9 -5 -11 -7l-214 -305c-2 -4 -3 -6 -3 -9c0 -6 1 -9 9 -9h225zM412 241h81v-60h-81v-181h-68v181h-295v86l250 358h113v-384z" />
    <glyph glyph-name="five" unicode="5" horiz-adv-x="556" 
d="M118 613h317v-55h-264l-16 -177c29 13 65 29 120 29c96 0 202 -59 202 -194c0 -158 -125 -236 -271 -236c-59 0 -127 18 -153 32l11 60c60 -22 95 -36 159 -36c139 0 187 104 187 175c0 103 -84 137 -143 137c-84 0 -115 -49 -127 -49h-57z" />
    <glyph glyph-name="six" unicode="6" horiz-adv-x="556" 
d="M231 627h91c-40 -41 -131 -145 -172 -233c-20 -43 -28 -85 -28 -87c0 -4 1 -6 3 -6c5 0 9 0 14 5c49 49 84 73 154 73c117 0 198 -90 198 -199c0 -129 -96 -204 -218 -204c-144 0 -218 124 -218 254c0 155 85 280 176 397zM424 178c0 79 -65 143 -144 143
c-80 0 -143 -65 -143 -143c0 -80 63 -144 143 -144c79 0 144 64 144 144z" />
    <glyph glyph-name="seven" unicode="7" horiz-adv-x="556" 
d="M53 613h419v-38c-84 -149 -176 -335 -242 -575h-84c37 151 168 410 245 551h-338v62z" />
    <glyph glyph-name="eight" unicode="8" horiz-adv-x="556" 
d="M488 161c0 -134 -112 -183 -232 -183c-130 0 -203 85 -203 183c0 105 63 132 97 151c13 7 31 11 31 17s-31 11 -53 25c-25 16 -57 48 -57 107c0 109 87 163 198 163c97 0 201 -42 201 -155c0 -55 -28 -93 -60 -111c-26 -15 -50 -24 -50 -28s1 -5 18 -11
c71 -29 110 -78 110 -158zM271 299c-46 0 -147 -19 -147 -133c0 -77 53 -134 143 -134c105 0 153 64 153 135c0 104 -102 132 -149 132zM405 468c0 54 -42 100 -142 100c-65 0 -126 -33 -126 -105c0 -68 60 -109 123 -109c81 0 145 30 145 114z" />
    <glyph glyph-name="nine" unicode="9" horiz-adv-x="556" 
d="M311 -21h-90c41 41 100 102 152 195c12 21 48 97 48 121c0 3 -2 8 -8 8c-4 0 -6 -1 -17 -14c-41 -48 -81 -63 -141 -63c-108 0 -203 75 -203 189c0 128 85 213 213 213c139 0 222 -110 222 -244c0 -158 -76 -286 -176 -405zM119 427c0 -81 64 -143 144 -143
c78 0 143 63 143 143c0 79 -65 144 -143 144c-80 0 -144 -64 -144 -144z" />
    <glyph glyph-name="colon" unicode=":" horiz-adv-x="333" 
d="M169 368c-39 0 -62 30 -62 60c0 36 31 60 61 60c31 0 59 -26 59 -60s-27 -60 -58 -60zM169 -8c-39 0 -62 30 -62 60c0 36 31 60 61 60c31 0 59 -26 59 -60s-27 -60 -58 -60z" />
    <glyph glyph-name="semicolon" unicode=";" horiz-adv-x="333" 
d="M139 113h65l-118 -295h-62zM106 432c0 35 31 60 61 60c32 0 62 -27 62 -61c0 -26 -21 -59 -61 -59c-39 0 -62 29 -62 60z" />
    <glyph glyph-name="less" unicode="&#x3c;" horiz-adv-x="600" 
d="M554 60v-68l-508 230v62l508 230v-68l-425 -193z" />
    <glyph glyph-name="equal" unicode="=" horiz-adv-x="600" 
d="M552 386v-66h-504v66h504zM552 186v-66h-504v66h504z" />
    <glyph glyph-name="greater" unicode="&#x3e;" horiz-adv-x="600" 
d="M46 60l425 193l-425 193v68l508 -230v-62l-508 -230v68z" />
    <glyph glyph-name="question" unicode="?" 
d="M258 231h-57v43c0 63 30 99 61 131l32 33c29 30 47 58 47 99c0 45 -26 90 -102 90c-26 0 -83 -1 -122 -90l-64 24c16 35 70 123 195 123c108 0 161 -75 161 -149c0 -69 -44 -112 -83 -150c-54 -52 -69 -68 -68 -154zM167 50c0 32 25 59 60 59c32 0 60 -27 60 -59
c0 -34 -28 -58 -60 -58c-35 0 -60 25 -60 58z" />
    <glyph glyph-name="at" unicode="@" horiz-adv-x="800" 
d="M663 159l36 -34c-56 -78 -160 -137 -280 -137c-206 0 -366 161 -366 365c0 200 166 359 362 359c180 0 332 -125 332 -283c0 -164 -132 -276 -228 -276c-34 0 -62 22 -64 64l-2 -2c-28 -30 -72 -62 -124 -62c-78 0 -132 68 -132 142c0 124 88 264 226 264
c44 0 84 -24 108 -78l20 56h60l-74 -252c-12 -36 -16 -76 12 -76c72 0 138 114 138 198c0 156 -126 252 -272 252c-172 0 -300 -142 -300 -312c0 -172 136 -306 306 -306c92 0 186 46 242 118zM423 499c-92 0 -156 -120 -156 -188c0 -58 36 -96 82 -96c86 0 152 120 152 190
c0 48 -38 94 -78 94z" />
    <glyph glyph-name="A" unicode="A" horiz-adv-x="667" 
d="M196 218h276l-132 360c-1 2 -2 3 -5 3s-4 -3 -5 -5zM116 0h-74l258 674h70l256 -674h-75l-60 162h-315z" />
    <glyph glyph-name="B" unicode="B" horiz-adv-x="667" 
d="M204 609v-222c113 -1 169 -2 212 11c37 10 83 42 83 102c0 51 -36 87 -75 100c-20 7 -52 9 -71 9h-149zM134 0v664h222c67 0 124 -10 163 -47c46 -43 46 -100 46 -109c0 -112 -97 -139 -117 -142c-2 -1 -2 -2 -2 -4c0 -5 8 -6 11 -6c66 -7 134 -68 134 -162
c0 -55 -21 -109 -64 -147c-53 -47 -123 -47 -182 -47h-211zM204 60h148c54 0 171 0 171 131c0 23 0 77 -58 112c-35 21 -77 28 -118 28h-143v-271z" />
    <glyph glyph-name="C" unicode="C" horiz-adv-x="611" 
d="M523 493l-60 -20c-8 85 -53 150 -139 150c-165 0 -177 -241 -177 -299c0 -52 0 -292 173 -292c104 0 140 89 151 162l60 -18c-7 -58 -48 -200 -209 -200c-32 0 -117 0 -181 91c-41 59 -61 139 -61 232c0 72 5 177 53 262c66 117 166 117 200 117c105 0 178 -75 190 -185z
" />
    <glyph glyph-name="D" unicode="D" horiz-adv-x="667" 
d="M132 0v664h172c92 0 179 -12 245 -117c43 -70 49 -147 49 -220c0 -93 -27 -180 -83 -246c-65 -75 -148 -81 -231 -81h-152zM201 606v-546h94c88 0 150 15 196 97c34 60 40 151 40 175c0 107 -25 195 -97 242c-49 32 -76 32 -233 32z" />
    <glyph glyph-name="E" unicode="E" horiz-adv-x="667" 
d="M144 0v664h419v-58h-350v-226h301v-61h-301v-259h361v-60h-430z" />
    <glyph glyph-name="F" unicode="F" horiz-adv-x="611" 
d="M123 0v664h416v-58h-347v-240h292v-58h-292v-308h-69z" />
    <glyph glyph-name="G" unicode="G" horiz-adv-x="667" 
d="M529 517l-60 -23c-17 50 -42 128 -143 128c-157 0 -177 -201 -177 -315c0 -75 24 -275 179 -275c62 0 96 28 110 42c51 52 54 130 55 176h-178v58h236v-326h-21l-39 77c-22 -26 -72 -83 -159 -83c-118 0 -173 58 -204 117c-44 82 -48 189 -48 220c0 145 37 241 88 295
c65 70 133 70 164 70c8 0 66 -3 109 -33c56 -39 78 -99 88 -128z" />
    <glyph glyph-name="H" unicode="H" horiz-adv-x="722" 
d="M146 0v664h70v-287h291v287h70v-664h-70v319h-291v-319h-70z" />
    <glyph glyph-name="I" unicode="I" horiz-adv-x="389" 
d="M86 0v39h73v586h-73v39h216v-39h-73v-586h73v-39h-216z" />
    <glyph glyph-name="J" unicode="J" 
d="M16 148l75 35c-1 -13 -2 -25 -2 -38c0 -17 0 -112 104 -112c118 0 118 106 118 159v472h69v-482c0 -85 -19 -183 -146 -204c-16 -3 -27 -3 -42 -3c-51 0 -96 8 -135 53c-40 45 -41 100 -41 120z" />
    <glyph glyph-name="K" unicode="K" horiz-adv-x="667" 
d="M531 664h84l-301 -301l324 -363h-92l-319 360zM127 0v664h67v-664h-67z" />
    <glyph glyph-name="L" unicode="L" horiz-adv-x="611" 
d="M206 664v-604h340v-60h-409v664h69z" />
    <glyph glyph-name="M" unicode="M" horiz-adv-x="889" 
d="M135 0v664h139l117 -409c11 -39 19 -86 34 -140c2 -6 7 -22 15 -22c20 0 27 53 32 73c13 51 14 57 25 94l117 404h141v-664h-67v618c0 9 -5 15 -13 15c-10 0 -12 -6 -17 -20c-3 -7 -12 -42 -16 -54l-160 -559h-81l-141 506c-5 18 -25 98 -30 114c-3 7 -5 14 -14 14
c-11 0 -14 -6 -14 -16v-618h-67z" />
    <glyph glyph-name="N" unicode="N" horiz-adv-x="722" 
d="M140 664h118l174 -421c16 -39 38 -104 54 -143c7 -17 13 -39 23 -39c3 0 8 5 8 15v588h66v-664h-121l-184 451c-21 52 -23 57 -42 107c-11 29 -14 45 -22 45c-5 0 -8 -5 -8 -9v-594h-66v664z" />
    <glyph glyph-name="O" unicode="O" horiz-adv-x="611" 
d="M470 326c0 97 -15 296 -164 296c-92 0 -127 -83 -136 -105c-29 -71 -29 -163 -29 -198c0 -50 3 -136 35 -200c32 -62 79 -87 127 -87c61 0 106 35 132 91c35 73 35 148 35 203zM540 326c0 -102 -17 -170 -42 -225c-45 -101 -126 -125 -187 -125c-28 0 -102 0 -165 71
s-75 184 -75 260c0 75 2 165 42 251c22 46 77 120 188 120c75 0 135 -27 178 -90c42 -62 61 -164 61 -262z" />
    <glyph glyph-name="P" unicode="P" horiz-adv-x="667" 
d="M336 609h-118v-273h116c125 0 178 34 178 130c0 116 -75 143 -176 143zM148 0v664h193c78 0 134 -11 174 -44c43 -35 66 -87 66 -149c0 -76 -37 -126 -61 -148c-49 -45 -111 -45 -166 -45h-136v-278h-70z" />
    <glyph glyph-name="Q" unicode="Q" horiz-adv-x="611" 
d="M560 -45v-72c-9 -1 -22 -2 -37 -2c-59 0 -81 27 -108 66l-30 43c-13 -5 -26 -8 -38 -11c-13 -2 -25 -3 -36 -3c-28 0 -102 0 -165 71s-75 184 -75 260c0 75 2 165 42 251c22 46 77 120 188 120c75 0 135 -27 178 -90c42 -62 61 -164 61 -262c0 -102 -17 -170 -42 -225
c-16 -37 -38 -63 -62 -82l12 -18c20 -28 46 -51 79 -51c11 0 22 2 33 5zM314 190l85 -119c15 14 27 32 36 52c35 73 35 148 35 203c0 97 -15 296 -164 296c-92 0 -127 -83 -136 -105c-29 -71 -29 -163 -29 -198c0 -50 2 -136 34 -200c32 -62 80 -87 128 -87c17 0 33 3 47 8
l-81 117z" />
    <glyph glyph-name="R" unicode="R" horiz-adv-x="667" 
d="M144 0v664h217c108 0 143 -30 166 -51c19 -18 49 -53 49 -130c0 -80 -38 -179 -181 -184l209 -299h-84l-192 294h-115v-294h-69zM213 354h112c67 0 179 0 179 126c0 118 -87 124 -149 124h-142v-250z" />
    <glyph glyph-name="S" unicode="S" horiz-adv-x="611" 
d="M494 541l-62 -31c-13 36 -40 112 -143 112c-28 0 -121 -11 -121 -114c0 -72 69 -102 102 -116c26 -11 70 -27 96 -38c97 -41 149 -82 149 -192c0 -60 -31 -117 -69 -145c-55 -41 -122 -41 -149 -41c-109 0 -174 70 -213 155l60 29c22 -66 66 -97 80 -105
c37 -21 73 -22 96 -22c48 0 129 26 129 126c0 49 -23 90 -71 113l-33 16c-41 21 -85 36 -127 55c-29 14 -68 32 -95 85c-13 27 -18 59 -18 79c0 98 63 171 191 171c84 0 145 -32 198 -137z" />
    <glyph glyph-name="T" unicode="T" horiz-adv-x="611" 
d="M58 664h496v-58h-213v-606h-71v606h-212v58z" />
    <glyph glyph-name="U" unicode="U" horiz-adv-x="722" 
d="M142 664h70v-475c0 -137 109 -155 140 -155c100 0 161 62 161 165v465h67v-466c0 -145 -86 -222 -227 -222c-134 0 -211 92 -211 220v468z" />
    <glyph glyph-name="V" unicode="V" horiz-adv-x="667" 
d="M367 0h-68l-234 664h70l191 -555c1 -1 2 -6 4 -6h7c3 0 4 4 5 6l191 555h71z" />
    <glyph glyph-name="W" unicode="W" horiz-adv-x="944" 
d="M694 215l121 449h72l-192 -664h-71l-124 465c-12 45 -16 80 -26 95h-7c-10 -11 -13 -49 -26 -99l-118 -461h-71l-195 664h69l128 -458c6 -22 24 -104 30 -104h6c7 0 18 68 29 111l116 451h71l122 -456c6 -21 16 -93 27 -106h6c8 0 25 83 33 113z" />
    <glyph glyph-name="X" unicode="X" horiz-adv-x="667" 
d="M371 346l237 -346h-81l-152 221c-14 20 -15 22 -26 44c-3 6 -6 16 -10 20c-5 5 -12 5 -18 -1c-3 -3 -5 -10 -7 -14c-5 -11 -11 -19 -36 -56l-145 -214h-74l234 341l-219 323h80l130 -192c15 -24 41 -65 42 -69c2 -4 3 -7 9 -7c4 0 8 6 14 17c24 42 27 46 51 82l114 169
h75z" />
    <glyph glyph-name="Y" unicode="Y" horiz-adv-x="667" 
d="M371 254v-254h-70v254l-244 410h77l176 -305c11 -19 15 -36 27 -36c10 0 22 34 44 72l153 269h77z" />
    <glyph glyph-name="Z" unicode="Z" horiz-adv-x="611" 
d="M81 606v58h440v-47l-296 -463c-7 -10 -59 -79 -59 -86c0 -9 14 -9 16 -9h348v-59h-456v47l303 475c8 13 56 75 56 80c0 4 -2 4 -5 4h-347z" />
    <glyph glyph-name="bracketleft" unicode="[" horiz-adv-x="389" 
d="M123 644v-607c71 -1 142 1 213 5v-37c-91 0 -182 -5 -273 -5v681c91 0 182 -7 273 -5v-35c-71 0 -142 3 -213 3z" />
    <glyph glyph-name="backslash" unicode="\" horiz-adv-x="278" 
d="M300 -24h-68l-254 702h70z" />
    <glyph glyph-name="bracketright" unicode="]" horiz-adv-x="389" 
d="M266 37v607c-71 0 -142 -3 -213 -3v35c91 -2 182 5 273 5v-681c-91 0 -182 5 -273 5v37c71 -4 142 -6 213 -5z" />
    <glyph glyph-name="asciicircum" unicode="^" horiz-adv-x="600" 
d="M267 700h64l228 -454h-72l-188 380l-186 -380h-72z" />
    <glyph glyph-name="underscore" unicode="_" 
d="M500 -125h-500v50h500v-50z" />
    <glyph glyph-name="quoteleft" unicode="&#x2018;" horiz-adv-x="278" 
d="M100 678l115 -295h-62l-119 295h66z" />
    <glyph glyph-name="a" unicode="a" 
d="M352 296v59c0 31 0 81 -92 81c-54 0 -96 -22 -144 -52l-28 63c79 38 117 47 175 47c22 0 73 -2 109 -29c47 -35 47 -77 47 -103v-265c0 -27 10 -38 16 -43c9 -7 12 -7 40 -7v-55c-37 0 -58 0 -76 11c-27 16 -39 55 -39 72c0 7 0 8 -1 11c-1 0 -2 1 -3 1s-2 0 -3 -1
c-49 -55 -94 -93 -171 -93c-58 0 -84 19 -103 39c-29 31 -35 72 -35 88c0 92 71 133 104 147c67 29 132 29 204 29zM350 137v118c-52 0 -104 -1 -152 -21c-49 -20 -86 -56 -86 -109c0 -22 11 -79 85 -79c61 0 133 68 153 91z" />
    <glyph glyph-name="b" unicode="b" 
d="M69 672l66 36v-304c0 -4 3 -9 7 -9c6 0 7 4 10 9c20 36 49 87 125 87c51 0 172 -29 172 -244c0 -35 -4 -118 -40 -178c-43 -73 -105 -75 -134 -75c-61 0 -95 39 -114 66c-3 5 -16 29 -20 29c-3 0 -8 0 -8 -10v-90l-64 36v647zM266 49c89 0 117 104 117 191
c0 35 0 195 -115 195c-73 0 -134 -79 -134 -198c0 -91 47 -188 132 -188z" />
    <glyph glyph-name="c" unicode="c" horiz-adv-x="444" 
d="M388 398l-56 -31c-8 17 -33 71 -98 71c-104 0 -125 -119 -125 -204c0 -29 1 -83 29 -128c31 -50 78 -58 97 -58c68 0 88 50 98 75l69 -30c-32 -73 -97 -101 -173 -101c-89 0 -188 67 -188 257c0 139 78 245 193 245c82 0 116 -27 154 -96z" />
    <glyph glyph-name="d" unicode="d" 
d="M429 712v-687l-64 -36v90c0 6 -4 14 -8 10c-16 -16 -44 -95 -135 -95c-127 0 -174 130 -174 239c0 111 33 258 173 258c88 0 124 -83 129 -94c1 -2 4 -2 6 -2c1 0 7 0 7 9v271zM227 49c103 0 137 108 137 195c0 113 -60 191 -133 191c-102 0 -117 -131 -117 -186
c0 -137 52 -200 113 -200z" />
    <glyph glyph-name="e" unicode="e" horiz-adv-x="444" 
d="M102 296h224c0 18 1 61 -20 96c-20 33 -56 46 -86 46c-57 0 -109 -39 -118 -142zM394 248h-294c0 -87 19 -198 128 -198c45 0 78 19 106 53l46 -36c-43 -53 -87 -73 -154 -73c-127 0 -193 120 -193 235c0 58 6 123 43 182c39 61 93 82 147 82c148 0 166 -129 171 -245z
" />
    <glyph glyph-name="f" unicode="f" horiz-adv-x="333" 
d="M318 689v-62c-17 10 -41 18 -61 18c-61 0 -71 -50 -71 -100v-87h116v-51h-114v-407h-66v407h-98v51h98v89c0 36 0 95 51 132c25 18 49 22 73 22c32 0 41 -3 72 -12z" />
    <glyph glyph-name="g" unicode="g" 
d="M364 399v82h59v-402c0 -113 -17 -227 -202 -227c-52 0 -87 8 -112 19v66h37c23 -20 42 -34 92 -34c90 0 118 59 118 132v82c0 2 -1 8 -5 8c-1 0 -2 0 -3 -1c-18 -54 -77 -81 -130 -81c-111 0 -168 120 -168 217c0 161 83 228 169 228s123 -63 133 -89c2 -5 3 -6 8 -7
c2 2 4 3 4 7zM235 98c75 0 125 77 125 166c0 103 -53 172 -126 172c-84 0 -118 -92 -118 -154c0 -41 0 -184 119 -184z" />
    <glyph glyph-name="h" unicode="h" 
d="M135 0h-66v671l68 34v-321c0 -4 0 -6 3 -8h4c37 50 85 109 154 109c100 0 126 -60 126 -151v-334h-66v321c0 52 -3 112 -70 112c-25 0 -52 -10 -83 -37c-20 -17 -70 -72 -70 -81v-315z" />
    <glyph glyph-name="i" unicode="i" horiz-adv-x="278" 
d="M109 479h62v-479h-62v479zM95 574v100h88v-100h-88z" />
    <glyph glyph-name="j" unicode="j" horiz-adv-x="278" 
d="M12 -138v68c20 -13 39 -24 64 -24c41 0 41 42 41 73v500h64v-514c0 -73 -34 -114 -110 -114c-24 0 -37 2 -59 11zM104 574v100h88v-100h-88z" />
    <glyph glyph-name="k" unicode="k" 
d="M88 0v669l65 37v-706h-65zM170 236v14l207 229h78l-214 -231l221 -248h-86z" />
    <glyph glyph-name="l" unicode="l" horiz-adv-x="278" 
d="M108 0v669l62 32v-701h-62z" />
    <glyph glyph-name="m" unicode="m" horiz-adv-x="778" 
d="M76 0v454l61 34v-104c0 -6 1 -11 7 -11c35 31 62 112 158 112c104 0 104 -74 118 -111c2 -4 5 -2 6 -1c23 23 54 113 165 113c90 0 112 -59 112 -139v-347h-63v339c0 45 -7 95 -67 95c-71 0 -152 -106 -152 -117v-317h-63v332c0 48 -6 101 -66 101
c-59 0 -96 -47 -153 -119v-314h-63z" />
    <glyph glyph-name="n" unicode="n" 
d="M74 0v456l63 34v-108c0 -6 5 -10 8 -7c18 14 63 111 166 111c94 0 115 -67 115 -147v-339h-65v341c0 44 0 93 -63 93c-43 0 -73 -21 -101 -47s-47 -54 -58 -78v-309h-65z" />
    <glyph glyph-name="o" unicode="o" 
d="M378 231c0 83 -22 203 -128 203c-110 0 -127 -126 -127 -209c0 -80 38 -176 132 -176c97 0 123 102 123 182zM444 236c0 -138 -47 -245 -198 -245c-139 0 -189 129 -189 251c0 118 54 250 192 250c144 0 195 -131 195 -256z" />
    <glyph glyph-name="p" unicode="p" 
d="M134 230c0 -76 48 -179 136 -179c91 0 113 112 113 180c0 81 -13 203 -119 203c-61 0 -130 -57 -130 -204zM69 456l65 37v-97c0 -3 1 -5 3 -5h2c15 14 46 100 142 100c75 0 167 -64 167 -248c0 -150 -63 -248 -170 -248c-86 0 -127 83 -132 95c0 1 -2 3 -4 3
c-4 0 -5 -4 -5 -7v-259h-68v629z" />
    <glyph glyph-name="q" unicode="q" 
d="M362 493l65 -37v-629h-67v259l-2 5c-1 3 -6 3 -8 -1c-22 -52 -74 -95 -132 -95c-124 0 -170 130 -170 242c0 105 36 254 167 254c74 0 104 -44 141 -100h2c3 0 4 2 4 5v97zM362 246c0 116 -60 188 -129 188c-98 0 -121 -107 -121 -193c0 -73 19 -190 114 -190
c70 0 136 76 136 195z" />
    <glyph glyph-name="r" unicode="r" horiz-adv-x="389" 
d="M84 0v454l65 34v-175c0 -5 2 -6 3 -6c24 0 62 131 201 180v-112c-97 0 -148 -48 -202 -124v-251h-67z" />
    <glyph glyph-name="s" unicode="s" horiz-adv-x="389" 
d="M37 45l26 57c36 -32 79 -57 129 -57c66 0 102 35 102 81c0 33 -22 59 -52 72c-12 5 -110 44 -131 54c-16 7 -68 33 -68 106c0 85 63 135 146 135c53 0 93 -15 140 -37l-21 -59c-36 27 -78 43 -124 43c-40 0 -80 -24 -80 -68c0 -48 28 -60 117 -95
c76 -30 130 -53 130 -143c0 -96 -73 -140 -161 -140c-62 0 -103 15 -153 51z" />
    <glyph glyph-name="t" unicode="t" horiz-adv-x="333" 
d="M12 407v51h88v121l66 81v-202h106v-51h-106v-287c0 -34 0 -74 45 -74c31 0 74 20 98 37v-62c-29 -18 -77 -32 -111 -32c-73 0 -98 53 -98 119v299h-88z" />
    <glyph glyph-name="u" unicode="u" 
d="M76 142v337h66v-332c0 -47 1 -103 73 -103c65 0 146 106 146 119v316h64v-456l-61 -32v107c0 2 0 6 -4 6c-2 0 -6 -2 -10 -7c-38 -59 -81 -104 -155 -104c-95 0 -119 66 -119 149z" />
    <glyph glyph-name="v" unicode="v" horiz-adv-x="444" 
d="M28 479h71l104 -339c2 -6 15 -58 19 -62h5c8 8 17 50 21 64l103 337h63l-152 -479h-80z" />
    <glyph glyph-name="w" unicode="w" horiz-adv-x="667" 
d="M231 0h-70l-148 479h67l89 -301c9 -30 10 -33 14 -50c3 -14 7 -30 10 -37c2 -1 3 -2 5 -2s4 1 6 2c5 14 17 77 20 90l77 298h68l79 -296c6 -21 12 -52 18 -78c4 -16 8 -18 13 -18s8 4 13 28c3 20 10 46 15 64l89 300h59l-146 -479h-69l-86 319c-2 8 -10 46 -13 65
c-2 13 -2 14 -5 18h-5c-5 -4 -5 -6 -8 -21l-12 -63z" />
    <glyph glyph-name="x" unicode="x" 
d="M288 244l164 -244h-78l-104 161c-9 13 -18 32 -22 32c-5 0 -18 -26 -25 -37l-100 -156h-72l161 241l-163 238h79l111 -172c5 -8 10 -15 13 -15c4 0 14 21 20 30l101 157h74z" />
    <glyph glyph-name="y" unicode="y" horiz-adv-x="444" 
d="M30 -145v77h21c8 -14 16 -28 48 -28c65 0 78 83 95 128l-169 447h71l96 -264c4 -12 12 -34 20 -56c6 -18 10 -36 16 -36c7 0 10 28 32 92l89 264h63l-171 -494c-25 -72 -60 -145 -147 -145c-26 0 -41 5 -64 15z" />
    <glyph glyph-name="z" unicode="z" horiz-adv-x="444" 
d="M60 421v58h331v-57l-208 -292c-23 -32 -32 -44 -43 -57c-10 -11 -11 -14 -11 -16c0 -3 5 -4 10 -4h252v-53h-338v52l192 274c21 31 44 60 69 88v7h-254z" />
    <glyph glyph-name="braceleft" unicode="{" horiz-adv-x="333" 
d="M301 683v-51h-39c-42 0 -54 -47 -54 -95v-59c0 -102 -61 -142 -79 -148v-2c18 -6 79 -43 79 -149v-51c0 -48 12 -95 54 -95h39v-51h-51c-63 0 -108 47 -108 128v53c0 77 -27 140 -77 140v53c50 0 77 63 77 138v61c0 81 45 128 108 128h51z" />
    <glyph glyph-name="bar" unicode="|" horiz-adv-x="222" 
d="M78 -250v1000h66v-1000h-66z" />
    <glyph glyph-name="braceright" unicode="}" horiz-adv-x="333" 
d="M32 632v51h51c63 0 108 -47 108 -128v-61c0 -75 27 -138 77 -138v-53c-50 0 -77 -63 -77 -140v-53c0 -81 -45 -128 -108 -128h-51v51h39c42 0 54 47 54 95v51c0 106 61 143 79 149v2c-18 6 -79 46 -79 148v59c0 48 -12 95 -54 95h-39z" />
    <glyph glyph-name="asciitilde" unicode="~" horiz-adv-x="600" 
d="M105 185l-40 40c30 50 66 90 126 90c48 0 84 -18 118 -34c34 -18 66 -34 100 -34c38 0 66 34 86 66l40 -42c-30 -50 -66 -90 -126 -88c-44 0 -80 18 -114 34c-34 18 -66 34 -104 34s-66 -34 -86 -66z" />
    <glyph glyph-name="exclamdown" unicode="&#xa1;" horiz-adv-x="389" 
d="M219 296l12 -449h-76l16 449h48zM136 473c0 33 28 60 59 60c30 0 59 -26 59 -60c0 -31 -24 -59 -60 -59c-40 0 -58 33 -58 59z" />
    <glyph glyph-name="cent" unicode="&#xa2;" horiz-adv-x="556" 
d="M207 90l131 336c-14 10 -32 12 -49 12c-104 0 -126 -130 -126 -210c0 -46 14 -102 44 -138zM456 616l-60 -154c25 -21 38 -45 47 -64l-55 -31c-5 9 -10 19 -18 29l-129 -334c15 -9 32 -14 52 -14c49 0 77 33 96 75l68 -30c-32 -74 -96 -101 -161 -101c-19 0 -47 1 -77 14
l-56 -144h-45l64 164c-63 42 -85 148 -85 217c0 150 81 251 193 251c29 0 52 -4 70 -12l52 134h44z" />
    <glyph glyph-name="sterling" unicode="&#xa3;" horiz-adv-x="556" 
d="M183 287h-116v42h108c-7 23 -21 72 -21 126c0 86 56 178 178 178c81 0 123 -47 148 -74l-31 -51c-25 33 -52 70 -117 70c-87 0 -111 -69 -111 -118c0 -38 14 -94 22 -131h155v-42h-148c3 -23 6 -46 6 -69c0 -49 -8 -74 -23 -120c48 -28 100 -56 148 -56c69 0 86 63 91 99
h40c-3 -48 -5 -87 -40 -122c-27 -27 -68 -38 -106 -38c-51 0 -119 46 -154 77c-39 -51 -51 -60 -115 -78v78c82 17 94 74 94 147c0 35 -1 47 -8 82z" />
    <glyph glyph-name="fraction" unicode="&#x2044;" horiz-adv-x="167" 
d="M-112 -15h-54l447 643h52z" />
    <glyph glyph-name="yen" unicode="&#xa5;" horiz-adv-x="556" 
d="M398 664h75l-139 -278h139v-36h-156l-2 -6v-150h158v-36h-158v-158h-70v158h-161v36h161v150l-3 6h-158v36h139l-139 278h74l101 -215c4 -8 8 -16 11 -24c1 -3 5 -12 9 -12c6 0 8 4 12 16c5 12 15 36 24 56z" />
    <glyph glyph-name="florin" unicode="&#x192;" horiz-adv-x="556" 
d="M102 347v58h143c26 162 60 278 169 278c14 0 56 -4 89 -27l-23 -56c-11 8 -35 27 -64 27c-59 0 -72 -66 -87 -136c-3 -13 -11 -74 -13 -86h142v-58h-148l-23 -166c-3 -20 -21 -145 -36 -201c-10 -36 -40 -147 -147 -147c-12 0 -50 2 -85 27l23 60c23 -21 45 -27 63 -27
c70 0 85 102 94 171l39 283h-136z" />
    <glyph glyph-name="section" unicode="&#xa7;" horiz-adv-x="556" 
d="M95 86l59 29c42 -87 110 -87 137 -87c78 0 91 47 91 70c0 45 -38 61 -65 72l-83 34c-44 18 -160 66 -160 151c0 44 25 101 102 110c-51 34 -61 65 -61 101c0 62 52 117 153 117c68 0 146 -40 181 -99l-53 -26c-35 43 -77 75 -136 75c-16 0 -82 -4 -82 -59
c0 -41 36 -61 69 -75c34 -15 89 -37 122 -53c105 -50 110 -102 110 -135c0 -18 0 -67 -57 -92c-12 -6 -33 -10 -38 -12v-2c8 -4 25 -17 34 -27c25 -28 26 -56 26 -70c0 -99 -82 -128 -167 -128c-72 0 -149 41 -182 106zM189 439c-52 0 -64 -44 -64 -64
c0 -49 70 -85 144 -115c57 -23 68 -28 102 -28c49 0 61 40 61 61c0 22 -10 43 -49 68c-18 12 -142 78 -194 78z" />
    <glyph glyph-name="currency" unicode="&#xa4;" horiz-adv-x="600" 
d="M301 462c-84 0 -148 -70 -148 -150c0 -82 64 -152 148 -152s146 70 146 152c0 80 -62 150 -146 150zM28 89l98 96c-25 33 -41 77 -41 127s18 96 41 125l-98 98l50 48l96 -96c33 23 77 39 127 39s96 -16 125 -39l98 96l48 -48l-96 -98c23 -31 39 -75 39 -125
s-16 -94 -39 -127l96 -96l-48 -50l-98 98c-29 -23 -75 -41 -125 -41s-96 18 -127 41l-96 -98z" />
    <glyph glyph-name="quotesingle" unicode="'" horiz-adv-x="222" 
d="M78 430v271h66v-271h-66z" />
    <glyph glyph-name="quotedblleft" unicode="&#x201c;" horiz-adv-x="556" 
d="M182 382l-117 296h66l113 -296h-62zM303 678h66l112 -296h-62z" />
    <glyph glyph-name="guillemotleft" unicode="&#xab;" 
d="M363 391h70l-136 -155l130 -157h-66l-130 157zM71 236l129 155h71l-132 -155l128 -157h-66z" />
    <glyph glyph-name="guilsinglleft" unicode="&#x2039;" horiz-adv-x="333" 
d="M257 76h-66l-135 157l124 158h66l-126 -157z" />
    <glyph glyph-name="guilsinglright" unicode="&#x203a;" horiz-adv-x="333" 
d="M142 76h-66l137 158l-126 157h66l124 -158z" />
    <glyph glyph-name="fi" unicode="&#xfb01;" horiz-adv-x="556" 
d="M117 407h-94v51h94v72c0 117 61 170 178 170c54 0 100 -11 149 -33v-67c-48 26 -100 45 -155 45c-99 0 -106 -66 -106 -120v-67h289v-458h-65v407h-224v-407h-66v407z" />
    <glyph glyph-name="fl" unicode="&#xfb02;" horiz-adv-x="556" 
d="M182 407v-407h-65v407h-94v51h94v72c0 115 61 170 176 170c42 0 83 -6 122 -21l55 20v-699h-65v407h-223zM182 458h223v161c-31 14 -68 26 -114 26c-90 0 -109 -52 -109 -108v-79z" />
    <glyph glyph-name="endash" unicode="&#x2013;" 
d="M-1 282h501v-48h-501v48z" />
    <glyph glyph-name="dagger" unicode="&#x2020;" horiz-adv-x="556" 
d="M108 449v74l157 -23l-24 183h74l-22 -183l155 24v-75l-155 24c1 -38 2 -42 9 -76c2 -11 15 -64 15 -66c0 -8 -4 -20 -5 -28c-7 -50 -16 -233 -16 -321h-31l-6 146c-2 33 -11 150 -13 168c-2 14 -6 25 -6 34c0 2 11 48 13 57c9 45 10 50 12 87z" />
    <glyph glyph-name="daggerdbl" unicode="&#x2021;" horiz-adv-x="556" 
d="M108 143v75l157 -27c-7 69 -8 77 -12 96c0 2 -10 43 -10 49c0 7 12 59 14 69c6 29 6 43 8 68l-157 -22v74l157 -25l-23 183h74l-23 -183l156 24v-74l-156 22l4 -35c2 -13 9 -55 12 -70c3 -13 7 -25 7 -33s-6 -26 -9 -40c-4 -18 -6 -27 -12 -101l154 23v-74l-152 23
l19 -180h-74l23 182z" />
    <glyph glyph-name="periodcentered" unicode="&#xb7;" horiz-adv-x="278" 
d="M200 304c0 -31 -26 -60 -62 -60c-33 0 -60 26 -60 60s27 61 60 61c36 0 62 -30 62 -61z" />
    <glyph glyph-name="paragraph" unicode="&#xb6;" horiz-adv-x="600" 
d="M276 700h238v-890h-66v832h-124v-832h-66v496c-124 0 -210 88 -210 196c0 128 88 198 228 198z" />
    <glyph glyph-name="bullet" unicode="&#x2022;" 
d="M385 350c0 -75 -59 -135 -135 -135c-75 0 -135 60 -135 135c-2 75 60 135 135 135c76 0 135 -60 135 -135z" />
    <glyph glyph-name="quotesinglbase" unicode="&#x201a;" horiz-adv-x="278" 
d="M63 -180l115 295h66l-119 -295h-62z" />
    <glyph glyph-name="quotedblbase" unicode="&#x201e;" horiz-adv-x="556" 
d="M443 116l-117 -296h-62l113 296h66zM139 116h66l-116 -296h-62z" />
    <glyph glyph-name="quotedblright" unicode="&#x201d;" horiz-adv-x="556" 
d="M491 678l-117 -296h-62l113 296h66zM188 678h65l-115 -296h-63z" />
    <glyph glyph-name="guillemotright" unicode="&#xbb;" 
d="M233 391h67l129 -157l-129 -155h-68l131 155zM134 79h-67l134 158l-129 154h65l128 -155z" />
    <glyph glyph-name="ellipsis" unicode="&#x2026;" horiz-adv-x="1000" 
d="M250 -7c-33 0 -61 25 -61 59c0 33 28 60 60 60c34 0 61 -29 61 -60c0 -34 -28 -59 -60 -59zM500 -7c-33 0 -61 25 -61 59c0 33 28 60 60 60c34 0 61 -29 61 -60c0 -34 -28 -59 -60 -59zM750 -7c-33 0 -61 25 -61 59c0 33 28 60 60 60c34 0 61 -29 61 -60
c0 -34 -28 -59 -60 -59z" />
    <glyph glyph-name="perthousand" unicode="&#x2030;" horiz-adv-x="1000" 
d="M155 466c49 0 91 41 91 94c0 52 -43 94 -92 94s-91 -40 -91 -94c0 -49 35 -94 92 -94zM5 560c0 83 67 149 150 149s149 -67 149 -149c0 -84 -66 -151 -149 -151c-84 0 -150 66 -150 151zM478 50c49 0 91 40 91 94c0 51 -43 93 -92 93c-48 0 -91 -39 -91 -93
c0 -50 35 -94 92 -94zM328 144c0 83 67 149 150 149s148 -67 148 -149c0 -85 -65 -151 -148 -151c-84 0 -150 65 -150 151zM848 50c48 0 90 40 90 94c0 50 -42 93 -92 93c-47 0 -91 -38 -91 -93c0 -50 35 -94 93 -94zM697 144c0 83 68 149 151 149c82 0 148 -67 148 -149
c0 -85 -66 -151 -148 -151c-84 0 -151 65 -151 151zM76 -22l417 747h54l-415 -747h-56z" />
    <glyph glyph-name="questiondown" unicode="&#xbf;" 
d="M333 480c0 -31 -26 -59 -61 -59c-32 0 -60 25 -60 59s28 59 60 59c35 0 61 -28 61 -59zM242 300h57v-43c0 -63 -30 -99 -61 -131l-32 -33c-29 -30 -47 -58 -47 -99c0 -45 26 -90 102 -90c26 0 83 1 122 90l64 -24c-16 -35 -70 -123 -195 -123c-108 0 -161 75 -161 149
c0 69 44 112 83 150c54 52 69 68 68 154z" />
    <glyph glyph-name="grave" unicode="`" horiz-adv-x="278" 
d="M7 679h77l112 -138h-51z" />
    <glyph glyph-name="acute" unicode="&#xb4;" horiz-adv-x="278" 
d="M71 541l111 138h77l-137 -138h-51z" />
    <glyph glyph-name="circumflex" unicode="&#x2c6;" horiz-adv-x="278" 
d="M106 679h67l113 -138h-65l-82 101l-82 -101h-65z" />
    <glyph glyph-name="tilde" unicode="&#x2dc;" horiz-adv-x="278" 
d="M252 654h39c-13 -76 -46 -97 -83 -97c-22 0 -30 2 -89 27c-38 16 -43 18 -56 18c-35 0 -45 -35 -49 -50h-36c5 44 32 97 88 97c22 0 28 -3 83 -26c38 -16 46 -19 58 -19c38 0 43 37 45 50z" />
    <glyph glyph-name="macron" unicode="&#xaf;" horiz-adv-x="278" 
d="M-9 624h296v-45h-296v45z" />
    <glyph glyph-name="breve" unicode="&#x2d8;" horiz-adv-x="278" 
d="M-5 672h39c15 -72 75 -81 104 -81c86 0 102 60 108 81h37c-5 -28 -11 -71 -53 -99c-20 -14 -50 -28 -94 -28c-28 0 -76 8 -109 45c-25 28 -29 57 -32 82z" />
    <glyph glyph-name="dotaccent" unicode="&#x2d9;" horiz-adv-x="278" 
d="M101 663h75v-112h-75v112z" />
    <glyph glyph-name="dieresis" unicode="&#xa8;" horiz-adv-x="278" 
d="M28 653h65v-102h-65v102zM187 653h64v-102h-64v102z" />
    <glyph glyph-name="ring" unicode="&#x2da;" horiz-adv-x="278" 
d="M140 679c40 0 73 -33 73 -73c0 -41 -33 -74 -73 -74c-41 0 -74 33 -74 74c0 40 33 73 74 73zM140 647c-22 0 -40 -19 -40 -41s18 -41 40 -41s39 19 39 41s-17 41 -39 41z" />
    <glyph glyph-name="cedilla" unicode="&#xb8;" horiz-adv-x="278" 
d="M23 -188l15 30c29 -10 42 -15 64 -15c41 0 67 21 67 46c0 20 -19 40 -51 40c-15 0 -30 -4 -44 -8c-4 4 -11 9 -15 13l60 82h38l-46 -59c20 4 28 6 37 6c31 0 78 -20 78 -73c0 -46 -42 -82 -105 -82c-48 0 -68 8 -98 20z" />
    <glyph glyph-name="hungarumlaut" unicode="&#x2dd;" horiz-adv-x="278" 
d="M71 541l111 131h77l-137 -131h-51zM221 541l111 131h77l-137 -131h-51z" />
    <glyph glyph-name="ogonek" unicode="&#x2db;" horiz-adv-x="278" 
d="M192 0h60c-37 -57 -60 -72 -91 -84c-30 -11 -41 -36 -34 -55c8 -23 40 -34 78 -20c21 7 32 17 56 36v-40c-10 -12 -63 -43 -107 -43c-24 0 -65 5 -81 49c-18 49 19 84 48 95c9 3 54 34 71 62z" />
    <glyph glyph-name="caron" unicode="&#x2c7;" horiz-adv-x="278" 
d="M221 679h65l-113 -138h-67l-114 138h65l82 -101z" />
    <glyph glyph-name="emdash" unicode="&#x2014;" horiz-adv-x="1000" 
d="M875 282v-48h-750v48h750z" />
    <glyph glyph-name="AE" unicode="&#xc6;" horiz-adv-x="944" 
d="M449 245v365c0 13 -12 17 -23 17c-15 0 -22 -8 -28 -21l-182 -361h233zM358 664h505v-58h-342v-226h292v-61h-292v-259h352v-60h-422v190h-262l-95 -190h-77z" />
    <glyph glyph-name="ordfeminine" unicode="&#xaa;" horiz-adv-x="400" 
d="M229 508v35c0 19 0 49 -60 49c-35 0 -62 -14 -94 -32l-18 38c52 23 76 28 114 28c14 0 47 -1 71 -17c30 -21 30 -46 30 -62v-159c0 -16 7 -23 11 -26c6 -4 8 -4 26 -4v-33c-24 0 -38 0 -50 7c-17 9 -25 33 -25 43c0 4 0 5 -1 7h-4c-31 -33 -61 -56 -111 -56
c-37 0 -54 11 -67 23c-18 19 -22 43 -22 53c0 55 46 80 67 88c44 18 86 18 133 18zM228 412v71c-34 0 -68 -1 -99 -13c-32 -12 -56 -33 -56 -65c0 -13 7 -47 55 -47c40 0 87 40 100 54z" />
    <glyph glyph-name="Lslash" unicode="&#x141;" horiz-adv-x="611" 
d="M354 438v-40l-148 -80v-258h340v-60h-409v286l-109 -62v40l109 62v338h69v-306z" />
    <glyph glyph-name="Oslash" unicode="&#xd8;" horiz-adv-x="611" 
d="M521 775l-66 -158c8 -8 16 -18 24 -29c42 -62 61 -164 61 -262c0 -102 -17 -170 -42 -225c-45 -101 -126 -125 -187 -125c-20 0 -65 0 -112 28l-68 -163h-40l77 185c-7 6 -15 13 -22 21c-63 71 -75 184 -75 260c0 75 2 165 42 251c22 46 77 120 188 120
c48 0 91 -11 125 -36l56 133h39zM426 547l-203 -486c23 -20 52 -29 80 -29c61 0 106 35 132 91c35 73 35 148 35 203c0 59 -6 155 -44 221zM195 89l206 493c-22 24 -53 40 -95 40c-92 0 -127 -83 -136 -105c-29 -71 -29 -163 -29 -198c0 -50 3 -136 35 -200
c6 -11 12 -21 19 -30z" />
    <glyph glyph-name="OE" unicode="&#x152;" horiz-adv-x="944" 
d="M813 380v-61h-288v-259h348v-60h-505c-56 0 -174 0 -247 94c-64 82 -64 192 -64 238c0 194 83 332 290 332h516v-55h-338v-229h288zM454 149v378c0 36 -1 84 -110 84c-177 0 -218 -136 -218 -291c0 -147 52 -263 213 -263c113 0 115 55 115 92z" />
    <glyph glyph-name="ordmasculine" unicode="&#xba;" horiz-adv-x="400" 
d="M283 469c0 50 -15 122 -83 122c-72 0 -83 -75 -83 -125c0 -48 25 -106 86 -106c63 0 80 61 80 109zM326 472c0 -82 -31 -147 -129 -147c-90 0 -123 78 -123 151c0 71 35 150 125 150c93 0 127 -79 127 -154z" />
    <glyph glyph-name="ae" unicode="&#xe6;" horiz-adv-x="778" 
d="M720 238h-294c0 -86 16 -195 124 -195c49 0 77 16 111 51l45 -36c-22 -26 -63 -73 -158 -73c-66 0 -118 28 -144 71c-12 21 -15 25 -20 25c-4 0 -23 -19 -41 -33c-28 -22 -78 -61 -145 -61c-78 0 -143 44 -143 128c0 160 193 174 310 174v57c0 63 -52 83 -106 83
c-50 0 -90 -16 -132 -40l-25 53c55 26 93 45 155 45c88 0 123 -36 137 -51c9 -12 13 -20 17 -20s5 1 9 9c10 19 34 38 63 50c18 7 37 9 56 9c149 0 181 -119 181 -246zM363 120v128c-57 0 -238 0 -238 -129c0 -70 54 -78 86 -78c64 0 137 65 152 79zM428 287h225
c0 34 0 140 -109 140c-96 0 -109 -88 -116 -140z" />
    <glyph glyph-name="dotlessi" unicode="&#x131;" horiz-adv-x="278" 
d="M108 479h62v-479h-62v479z" />
    <glyph glyph-name="lslash" unicode="&#x142;" horiz-adv-x="278" 
d="M170 701v-332l88 49v-30l-88 -49v-339h-62v315l-88 -49v30l88 49v324z" />
    <glyph glyph-name="oslash" unicode="&#xf8;" 
d="M445 606l-74 -159c52 -48 73 -131 73 -211c0 -138 -47 -245 -198 -245c-31 0 -57 6 -80 18l-69 -149h-35l77 166c-59 47 -82 133 -82 216c0 118 54 250 192 250c38 0 69 -9 95 -25l65 139h36zM342 384l-149 -318c17 -10 38 -17 62 -17c97 0 123 102 123 182
c0 49 -8 110 -36 153zM168 88l150 323c-17 14 -39 23 -68 23c-110 0 -127 -126 -127 -209c0 -48 14 -102 45 -137z" />
    <glyph glyph-name="oe" unicode="&#x153;" horiz-adv-x="778" 
d="M729 241h-293c-2 -90 19 -199 129 -199c55 0 86 34 105 54l45 -36c-35 -47 -87 -73 -146 -73c-94 0 -132 46 -159 80c-3 3 -5 6 -7 6c-1 0 -36 -42 -57 -56c-34 -23 -67 -26 -107 -26c-114 0 -188 95 -188 251c0 120 55 250 192 250c110 0 156 -80 160 -87
c1 -1 2 -1 4 -1c1 0 2 0 3 1c24 39 68 81 149 81c145 0 168 -128 170 -245zM438 289h224c-2 70 -23 142 -108 142c-63 0 -108 -47 -116 -142zM372 228c0 85 -20 205 -129 205c-110 0 -126 -126 -126 -210c0 -67 29 -174 129 -174c103 0 126 92 126 179z" />
    <glyph glyph-name="germandbls" unicode="&#xdf;" horiz-adv-x="556" 
d="M250 3v60c22 -12 38 -15 62 -15c79 0 106 61 106 130c0 107 -54 162 -156 167v58c76 -2 121 49 121 126c0 75 -42 119 -116 119c-90 0 -110 -91 -110 -164v-484h-66v479c0 116 46 225 177 225c106 0 176 -65 176 -172c0 -102 -64 -132 -98 -147c-5 -2 -8 -4 -8 -8
c0 -5 5 -7 12 -8c90 -13 134 -109 134 -190c0 -105 -61 -190 -170 -190c-24 0 -41 6 -64 14z" />
    <glyph glyph-name="divide" unicode="&#xf7;" horiz-adv-x="600" 
d="M552 286v-66h-504v66h504zM364 468c0 -32 -30 -64 -63 -64c-35 0 -65 30 -65 64c0 35 30 64 64 64s64 -30 64 -64zM364 38c0 -32 -30 -64 -63 -64c-35 0 -65 30 -65 64c0 35 30 64 64 64s64 -30 64 -64z" />
    <glyph glyph-name="threequarters" unicode="&#xbe;" horiz-adv-x="800" 
d="M681 145v192c0 4 -2 6 -4 6c-3 0 -6 -3 -7 -5l-139 -183c-1 -2 -2 -3 -2 -5c0 -4 1 -5 6 -5h146zM733 145h53v-40h-53v-105h-52v105h-215v55l178 215h89v-230zM16 237v31c47 1 107 1 163 29c30 16 64 43 64 80c0 42 -30 60 -73 60c-23 0 -40 -6 -59 -12l-12 29
c42 18 122 39 122 95c0 24 -21 42 -57 42c-34 0 -65 -21 -97 -46l-30 27c39 31 81 54 126 54c88 0 112 -44 112 -78c0 -53 -56 -69 -83 -83v-1c0 -2 3 -3 10 -3c63 0 97 -33 97 -81c0 -69 -69 -106 -87 -114c-60 -28 -139 -29 -196 -29zM226 -15h-54l447 643h52z" />
    <glyph glyph-name="onequarter" unicode="&#xbc;" horiz-adv-x="800" 
d="M681 145v192c0 4 -2 6 -4 6c-3 0 -6 -3 -7 -5l-139 -183c-1 -2 -2 -3 -2 -5c0 -4 1 -5 6 -5h146zM733 145h53v-40h-53v-105h-52v105h-215v55l178 215h89v-230zM226 -15h-54l447 643h52zM15 626h162v-328h98v-39h-244v39h94v290h-110v38z" />
    <glyph glyph-name="onesuperior" unicode="&#xb9;" horiz-adv-x="400" 
d="M57 616h162v-328h98v-39h-244v39h94v290h-110v38z" />
    <glyph glyph-name="multiply" unicode="&#xd7;" horiz-adv-x="600" 
d="M254 253l-187 187l46 46l186 -188l188 188l46 -46l-188 -187l188 -187l-46 -46l-188 188l-186 -188l-46 46z" />
    <glyph glyph-name="registered" unicode="&#xae;" horiz-adv-x="800" 
d="M415 514h-98v-132h98c58 0 78 32 78 66s-16 66 -78 66zM257 562h156c72 0 142 -20 142 -104c0 -50 -32 -90 -80 -100v-4c54 -8 58 -38 66 -88c6 -38 10 -84 24 -120h-64c-6 24 -12 50 -14 74c-4 34 -4 64 -20 84c-14 20 -38 28 -62 28h-88v-186h-60v416zM765 351
c0 -206 -166 -363 -364 -363s-366 157 -366 363s168 361 366 361s364 -155 364 -361zM93 351c0 -174 136 -312 308 -312s306 138 306 312c0 172 -134 310 -306 310s-308 -138 -308 -310z" />
    <glyph glyph-name="Thorn" unicode="&#xde;" horiz-adv-x="667" 
d="M336 484h-118v-273c43 -2 172 1 186 3c85 10 108 73 108 127c0 116 -75 143 -176 143zM218 664v-122h123c78 0 134 -14 174 -47c43 -35 66 -87 66 -149c0 -76 -37 -126 -61 -148c-49 -45 -111 -45 -166 -45h-136v-153h-70v664h70z" />
    <glyph glyph-name="brokenbar" unicode="&#xa6;" horiz-adv-x="222" 
d="M78 -175v350h66v-350h-66zM78 325v350h66v-350h-66z" />
    <glyph glyph-name="Eth" unicode="&#xd0;" horiz-adv-x="667" 
d="M41 377h91v287h172c92 0 179 -12 245 -117c43 -70 49 -168 49 -220c0 -77 -27 -180 -83 -246c-65 -75 -148 -81 -231 -81h-152v319h-91v58zM351 319h-150v-259h94c88 0 150 15 196 97c34 60 40 151 40 175c0 107 -25 195 -97 242c-49 32 -76 32 -233 32v-229h150v-58z
" />
    <glyph glyph-name="onehalf" unicode="&#xbd;" horiz-adv-x="800" 
d="M566 268l-37 25c11 21 42 83 127 83c89 0 128 -52 128 -104c0 -67 -58 -104 -107 -138c-31 -23 -87 -59 -94 -94h202v-40h-259c10 93 56 119 133 176c51 40 71 60 71 93c0 34 -25 67 -75 67c-62 0 -83 -51 -89 -68zM226 -15h-54l447 643h52zM15 626h162v-328h98v-39h-244
v39h94v290h-110v38z" />
    <glyph glyph-name="minus" unicode="&#x2212;" horiz-adv-x="600" 
d="M552 220h-504v66h504v-66z" />
    <glyph glyph-name="ccedilla" unicode="&#xe7;" horiz-adv-x="444" 
d="M388 398l-56 -31c-8 17 -33 71 -98 71c-104 0 -125 -119 -125 -204c0 -29 1 -83 29 -128c31 -50 78 -58 97 -58c68 0 88 50 98 75l69 -30c-27 -62 -78 -91 -139 -99l-42 -53c20 4 28 6 37 6c31 0 78 -20 78 -73c0 -46 -42 -82 -105 -82c-48 0 -68 8 -98 20l15 30
c29 -10 42 -15 64 -15c41 0 67 21 67 46c0 20 -19 40 -51 40c-15 0 -30 -4 -44 -8c-4 4 -11 9 -15 13l55 75c-87 1 -183 69 -183 256c0 139 78 245 193 245c82 0 116 -27 154 -96z" />
    <glyph glyph-name="eth" unicode="&#xf0;" 
d="M378 231c0 83 -22 203 -128 203c-110 0 -127 -126 -127 -209c0 -80 38 -176 132 -176c97 0 123 102 123 182zM447 649l-108 -44c71 -108 105 -231 105 -369s-47 -245 -198 -245c-139 0 -189 129 -189 251c0 118 54 250 192 250c41 0 78 -21 102 -53h7
c-18 59 -36 106 -62 149l-121 -49l-10 23l118 48c-19 31 -43 61 -72 92l39 18c28 -30 53 -60 75 -93l112 46z" />
    <glyph glyph-name="plusminus" unicode="&#xb1;" horiz-adv-x="600" 
d="M267 339v179h66v-179h219v-66h-219v-179h-66v179h-219v66h219zM48 -24v66h504v-66h-504z" />
    <glyph glyph-name="Ccedilla" unicode="&#xc7;" horiz-adv-x="611" 
d="M523 493l-60 -20c-8 85 -53 150 -139 150c-165 0 -177 -241 -177 -299c0 -52 0 -292 173 -292c104 0 140 89 151 162l60 -18c-7 -56 -45 -190 -192 -199l-28 -36c20 4 28 6 37 6c31 0 78 -20 78 -73c0 -46 -42 -82 -105 -82c-48 0 -68 8 -98 20l15 30
c29 -10 42 -15 64 -15c41 0 67 21 67 46c0 20 -19 40 -51 40c-15 0 -30 -4 -44 -8c-4 4 -11 9 -15 13l43 59c-38 1 -107 13 -161 90c-41 59 -61 139 -61 232c0 72 5 177 53 262c66 117 166 117 200 117c105 0 178 -75 190 -185z" />
    <glyph glyph-name="thorn" unicode="&#xfe;" 
d="M134 230c0 -23 10 -82 33 -117c22 -33 62 -62 103 -62c91 0 113 112 113 180c0 48 0 203 -119 203c-61 0 -130 -57 -130 -204zM69 669l65 32v-305c0 -2 1 -3 1 -5h5c5 5 5 5 12 18c4 8 44 82 129 82c75 0 167 -64 167 -248c0 -150 -63 -248 -170 -248
c-86 0 -127 83 -132 95c-2 0 -4 1 -6 1c-1 -1 -3 -3 -3 -5v-259h-68v842z" />
    <glyph glyph-name="copyright" unicode="&#xa9;" horiz-adv-x="800" 
d="M765 351c0 -206 -166 -363 -364 -363s-366 157 -366 363s168 361 366 361s364 -155 364 -361zM93 351c0 -174 136 -312 308 -312s306 138 306 312c0 172 -134 310 -306 310s-308 -138 -308 -310zM531 281h62c-20 -94 -91 -155 -180 -155c-131 0 -216 98 -216 225
c0 129 80 224 213 224c92 0 168 -53 182 -150h-61c-11 53 -56 92 -120 92c-96 0 -148 -72 -148 -164c0 -90 57 -169 150 -169c64 0 109 41 118 97z" />
    <glyph glyph-name="logicalnot" unicode="&#xac;" horiz-adv-x="600" 
d="M486 108v212h-438v66h504v-278h-66z" />
    <glyph glyph-name="twosuperior" unicode="&#xb2;" horiz-adv-x="400" 
d="M85 517l-37 25c11 21 42 83 127 83c89 0 128 -52 128 -104c0 -67 -58 -104 -107 -138c-31 -23 -87 -59 -94 -94h202v-40h-259c10 93 56 119 133 176c51 40 71 60 71 93c0 34 -25 67 -75 67c-62 0 -83 -51 -89 -68z" />
    <glyph glyph-name="threesuperior" unicode="&#xb3;" horiz-adv-x="400" 
d="M36 237v31c47 1 107 1 163 29c30 16 64 43 64 80c0 42 -30 60 -73 60c-23 0 -40 -6 -59 -12l-12 29c42 18 122 39 122 95c0 24 -21 42 -57 42c-34 0 -65 -21 -97 -46l-30 27c39 31 81 54 126 54c88 0 112 -44 112 -78c0 -53 -56 -69 -83 -83v-1c0 -2 3 -3 10 -3
c63 0 97 -33 97 -81c0 -69 -69 -106 -87 -114c-60 -28 -139 -29 -196 -29z" />
    <glyph glyph-name="trademark" unicode="&#x2122;" horiz-adv-x="990" 
d="M390 700v-54h-130v-358h-66v358h-130v54h326zM541 634v-346h-66v412h104l123 -313l121 313h103v-412h-66v346h-2l-136 -346h-43l-136 346h-2z" />
    <glyph glyph-name="degree" unicode="&#xb0;" horiz-adv-x="400" 
d="M201 712c80 0 146 -66 146 -146c0 -82 -66 -148 -146 -148c-82 0 -148 66 -148 148c0 80 66 146 148 146zM201 674c-60 0 -106 -50 -106 -108c0 -60 46 -110 106 -110c58 0 104 50 104 110c0 58 -46 108 -104 108z" />
    <glyph glyph-name="mu" unicode="&#xb5;" horiz-adv-x="576" 
d="M85 479h68v-295c0 -84 48 -138 130 -138c88 0 142 84 142 168v265h66v-479h-66v80h-4c-36 -64 -86 -92 -150 -92c-46 0 -88 16 -116 56h-2v-236h-68v671z" />
    <glyph glyph-name="Aacute" unicode="&#xc1;" horiz-adv-x="667" 
d="M196 218h276l-132 360c-1 2 -2 3 -5 3s-4 -3 -5 -5zM116 0h-74l258 674h70l256 -674h-75l-60 162h-315zM266 726l111 138h77l-137 -138h-51z" />
    <glyph glyph-name="Acircumflex" unicode="&#xc2;" horiz-adv-x="667" 
d="M196 218h276l-132 360c-1 2 -2 3 -5 3s-4 -3 -5 -5zM116 0h-74l258 674h70l256 -674h-75l-60 162h-315zM301 864h67l113 -138h-65l-82 101l-82 -101h-65z" />
    <glyph glyph-name="Adieresis" unicode="&#xc4;" horiz-adv-x="667" 
d="M196 218h276l-132 360c-1 2 -2 3 -5 3s-4 -3 -5 -5zM116 0h-74l258 674h70l256 -674h-75l-60 162h-315zM223 838h65v-102h-65v102zM382 838h64v-102h-64v102z" />
    <glyph glyph-name="Agrave" unicode="&#xc0;" horiz-adv-x="667" 
d="M196 218h276l-132 360c-1 2 -2 3 -5 3s-4 -3 -5 -5zM116 0h-74l258 674h70l256 -674h-75l-60 162h-315zM202 864h77l112 -138h-51z" />
    <glyph glyph-name="Aring" unicode="&#xc5;" horiz-adv-x="667" 
d="M196 218h276l-132 360c-1 2 -2 3 -5 3s-4 -3 -5 -5zM116 0h-74l258 674h70l256 -674h-75l-60 162h-315zM335 864c40 0 73 -33 73 -73c0 -41 -33 -74 -73 -74c-41 0 -74 33 -74 74c0 40 33 73 74 73zM335 832c-22 0 -40 -19 -40 -41s18 -41 40 -41s39 19 39 41
s-17 41 -39 41z" />
    <glyph glyph-name="Atilde" unicode="&#xc3;" horiz-adv-x="667" 
d="M196 218h276l-132 360c-1 2 -2 3 -5 3s-4 -3 -5 -5zM116 0h-74l258 674h70l256 -674h-75l-60 162h-315zM447 839h39c-13 -76 -46 -97 -83 -97c-22 0 -30 2 -89 27c-38 16 -43 18 -56 18c-35 0 -45 -35 -49 -50h-36c5 44 32 97 88 97c22 0 28 -3 83 -26
c38 -16 46 -19 58 -19c38 0 43 37 45 50z" />
    <glyph glyph-name="Eacute" unicode="&#xc9;" horiz-adv-x="667" 
d="M144 0v664h419v-58h-350v-226h301v-61h-301v-259h361v-60h-430zM266 726l111 138h77l-137 -138h-51z" />
    <glyph glyph-name="Ecircumflex" unicode="&#xca;" horiz-adv-x="667" 
d="M144 0v664h419v-58h-350v-226h301v-61h-301v-259h361v-60h-430zM301 864h67l113 -138h-65l-82 101l-82 -101h-65z" />
    <glyph glyph-name="Edieresis" unicode="&#xcb;" horiz-adv-x="667" 
d="M144 0v664h419v-58h-350v-226h301v-61h-301v-259h361v-60h-430zM223 838h65v-102h-65v102zM382 838h64v-102h-64v102z" />
    <glyph glyph-name="Egrave" unicode="&#xc8;" horiz-adv-x="667" 
d="M144 0v664h419v-58h-350v-226h301v-61h-301v-259h361v-60h-430zM202 864h77l112 -138h-51z" />
    <glyph glyph-name="Iacute" unicode="&#xcd;" horiz-adv-x="389" 
d="M86 0v39h73v586h-73v39h216v-39h-73v-586h73v-39h-216zM127 726l111 138h77l-137 -138h-51z" />
    <glyph glyph-name="Icircumflex" unicode="&#xce;" horiz-adv-x="389" 
d="M86 0v39h73v586h-73v39h216v-39h-73v-586h73v-39h-216zM162 864h67l113 -138h-65l-82 101l-82 -101h-65z" />
    <glyph glyph-name="Idieresis" unicode="&#xcf;" horiz-adv-x="389" 
d="M86 0v39h73v586h-73v39h216v-39h-73v-586h73v-39h-216zM84 838h65v-102h-65v102zM243 838h64v-102h-64v102z" />
    <glyph glyph-name="Igrave" unicode="&#xcc;" horiz-adv-x="389" 
d="M86 0v39h73v586h-73v39h216v-39h-73v-586h73v-39h-216zM63 864h77l112 -138h-51z" />
    <glyph glyph-name="Ntilde" unicode="&#xd1;" horiz-adv-x="722" 
d="M140 664h118l174 -421c16 -39 38 -104 54 -143c7 -17 13 -39 23 -39c3 0 8 5 8 15v588h66v-664h-121l-184 451c-21 52 -23 57 -42 107c-11 29 -14 45 -22 45c-5 0 -8 -5 -8 -9v-594h-66v664zM474 839h39c-13 -76 -46 -97 -83 -97c-22 0 -30 2 -89 27
c-38 16 -43 18 -56 18c-35 0 -45 -35 -49 -50h-36c5 44 32 97 88 97c22 0 28 -3 83 -26c38 -16 46 -19 58 -19c38 0 43 37 45 50z" />
    <glyph glyph-name="Oacute" unicode="&#xd3;" horiz-adv-x="611" 
d="M470 326c0 97 -15 296 -164 296c-92 0 -127 -83 -136 -105c-29 -71 -29 -163 -29 -198c0 -50 3 -136 35 -200c32 -62 79 -87 127 -87c61 0 106 35 132 91c35 73 35 148 35 203zM540 326c0 -102 -17 -170 -42 -225c-45 -101 -126 -125 -187 -125c-28 0 -102 0 -165 71
s-75 184 -75 260c0 75 2 165 42 251c22 46 77 120 188 120c75 0 135 -27 178 -90c42 -62 61 -164 61 -262zM238 726l111 138h77l-137 -138h-51z" />
    <glyph glyph-name="Ocircumflex" unicode="&#xd4;" horiz-adv-x="611" 
d="M470 326c0 97 -15 296 -164 296c-92 0 -127 -83 -136 -105c-29 -71 -29 -163 -29 -198c0 -50 3 -136 35 -200c32 -62 79 -87 127 -87c61 0 106 35 132 91c35 73 35 148 35 203zM540 326c0 -102 -17 -170 -42 -225c-45 -101 -126 -125 -187 -125c-28 0 -102 0 -165 71
s-75 184 -75 260c0 75 2 165 42 251c22 46 77 120 188 120c75 0 135 -27 178 -90c42 -62 61 -164 61 -262zM273 864h67l113 -138h-65l-82 101l-82 -101h-65z" />
    <glyph glyph-name="Odieresis" unicode="&#xd6;" horiz-adv-x="611" 
d="M470 326c0 97 -15 296 -164 296c-92 0 -127 -83 -136 -105c-29 -71 -29 -163 -29 -198c0 -50 3 -136 35 -200c32 -62 79 -87 127 -87c61 0 106 35 132 91c35 73 35 148 35 203zM540 326c0 -102 -17 -170 -42 -225c-45 -101 -126 -125 -187 -125c-28 0 -102 0 -165 71
s-75 184 -75 260c0 75 2 165 42 251c22 46 77 120 188 120c75 0 135 -27 178 -90c42 -62 61 -164 61 -262zM195 838h65v-102h-65v102zM354 838h64v-102h-64v102z" />
    <glyph glyph-name="Ograve" unicode="&#xd2;" horiz-adv-x="611" 
d="M470 326c0 97 -15 296 -164 296c-92 0 -127 -83 -136 -105c-29 -71 -29 -163 -29 -198c0 -50 3 -136 35 -200c32 -62 79 -87 127 -87c61 0 106 35 132 91c35 73 35 148 35 203zM540 326c0 -102 -17 -170 -42 -225c-45 -101 -126 -125 -187 -125c-28 0 -102 0 -165 71
s-75 184 -75 260c0 75 2 165 42 251c22 46 77 120 188 120c75 0 135 -27 178 -90c42 -62 61 -164 61 -262zM174 864h77l112 -138h-51z" />
    <glyph glyph-name="Otilde" unicode="&#xd5;" horiz-adv-x="611" 
d="M470 326c0 97 -15 296 -164 296c-92 0 -127 -83 -136 -105c-29 -71 -29 -163 -29 -198c0 -50 3 -136 35 -200c32 -62 79 -87 127 -87c61 0 106 35 132 91c35 73 35 148 35 203zM540 326c0 -102 -17 -170 -42 -225c-45 -101 -126 -125 -187 -125c-28 0 -102 0 -165 71
s-75 184 -75 260c0 75 2 165 42 251c22 46 77 120 188 120c75 0 135 -27 178 -90c42 -62 61 -164 61 -262zM419 839h39c-13 -76 -46 -97 -83 -97c-22 0 -30 2 -89 27c-38 16 -43 18 -56 18c-35 0 -45 -35 -49 -50h-36c5 44 32 97 88 97c22 0 28 -3 83 -26
c38 -16 46 -19 58 -19c38 0 43 37 45 50z" />
    <glyph glyph-name="Scaron" unicode="&#x160;" horiz-adv-x="611" 
d="M494 541l-62 -31c-13 36 -40 112 -143 112c-28 0 -121 -11 -121 -114c0 -72 69 -102 102 -116c26 -11 70 -27 96 -38c97 -41 149 -82 149 -192c0 -60 -31 -117 -69 -145c-55 -41 -122 -41 -149 -41c-109 0 -174 70 -213 155l60 29c22 -66 66 -97 80 -105
c37 -21 73 -22 96 -22c48 0 129 26 129 126c0 49 -23 90 -71 113l-33 16c-41 21 -85 36 -127 55c-29 14 -68 32 -95 85c-13 27 -18 59 -18 79c0 98 63 171 191 171c84 0 145 -32 198 -137zM388 864h65l-113 -138h-67l-114 138h65l82 -101z" />
    <glyph glyph-name="Uacute" unicode="&#xda;" horiz-adv-x="722" 
d="M142 664h70v-475c0 -137 109 -155 140 -155c100 0 161 62 161 165v465h67v-466c0 -145 -86 -222 -227 -222c-134 0 -211 92 -211 220v468zM293 726l111 138h77l-137 -138h-51z" />
    <glyph glyph-name="Ucircumflex" unicode="&#xdb;" horiz-adv-x="722" 
d="M142 664h70v-475c0 -137 109 -155 140 -155c100 0 161 62 161 165v465h67v-466c0 -145 -86 -222 -227 -222c-134 0 -211 92 -211 220v468zM328 864h67l113 -138h-65l-82 101l-82 -101h-65z" />
    <glyph glyph-name="Udieresis" unicode="&#xdc;" horiz-adv-x="722" 
d="M142 664h70v-475c0 -137 109 -155 140 -155c100 0 161 62 161 165v465h67v-466c0 -145 -86 -222 -227 -222c-134 0 -211 92 -211 220v468zM250 838h65v-102h-65v102zM409 838h64v-102h-64v102z" />
    <glyph glyph-name="Ugrave" unicode="&#xd9;" horiz-adv-x="722" 
d="M142 664h70v-475c0 -137 109 -155 140 -155c100 0 161 62 161 165v465h67v-466c0 -145 -86 -222 -227 -222c-134 0 -211 92 -211 220v468zM229 864h77l112 -138h-51z" />
    <glyph glyph-name="Yacute" unicode="&#xdd;" horiz-adv-x="667" 
d="M371 254v-254h-70v254l-244 410h77l176 -305c11 -19 15 -36 27 -36c10 0 22 34 44 72l153 269h77zM266 726l111 138h77l-137 -138h-51z" />
    <glyph glyph-name="Ydieresis" unicode="&#x178;" horiz-adv-x="667" 
d="M371 254v-254h-70v254l-244 410h77l176 -305c11 -19 15 -36 27 -36c10 0 22 34 44 72l153 269h77zM223 838h65v-102h-65v102zM382 838h64v-102h-64v102z" />
    <glyph glyph-name="Zcaron" unicode="&#x17d;" horiz-adv-x="611" 
d="M81 606v58h440v-47l-296 -463c-7 -10 -59 -79 -59 -86c0 -9 14 -9 16 -9h348v-59h-456v47l303 475c8 13 56 75 56 80c0 4 -2 4 -5 4h-347zM388 864h65l-113 -138h-67l-114 138h65l82 -101z" />
    <glyph glyph-name="aacute" unicode="&#xe1;" 
d="M352 296v59c0 31 0 81 -92 81c-54 0 -96 -22 -144 -52l-28 63c79 38 117 47 175 47c22 0 73 -2 109 -29c47 -35 47 -77 47 -103v-265c0 -27 10 -38 16 -43c9 -7 12 -7 40 -7v-55c-37 0 -58 0 -76 11c-27 16 -39 55 -39 72c0 7 0 8 -1 11c-1 0 -2 1 -3 1s-2 0 -3 -1
c-49 -55 -94 -93 -171 -93c-58 0 -84 19 -103 39c-29 31 -35 72 -35 88c0 92 71 133 104 147c67 29 132 29 204 29zM350 137v118c-52 0 -104 -1 -152 -21c-49 -20 -86 -56 -86 -109c0 -22 11 -79 85 -79c61 0 133 68 153 91zM182 541l111 138h77l-137 -138h-51z" />
    <glyph glyph-name="acircumflex" unicode="&#xe2;" 
d="M352 296v59c0 31 0 81 -92 81c-54 0 -96 -22 -144 -52l-28 63c79 38 117 47 175 47c22 0 73 -2 109 -29c47 -35 47 -77 47 -103v-265c0 -27 10 -38 16 -43c9 -7 12 -7 40 -7v-55c-37 0 -58 0 -76 11c-27 16 -39 55 -39 72c0 7 0 8 -1 11c-1 0 -2 1 -3 1s-2 0 -3 -1
c-49 -55 -94 -93 -171 -93c-58 0 -84 19 -103 39c-29 31 -35 72 -35 88c0 92 71 133 104 147c67 29 132 29 204 29zM350 137v118c-52 0 -104 -1 -152 -21c-49 -20 -86 -56 -86 -109c0 -22 11 -79 85 -79c61 0 133 68 153 91zM217 679h67l113 -138h-65l-82 101l-82 -101h-65z
" />
    <glyph glyph-name="adieresis" unicode="&#xe4;" 
d="M352 296v59c0 31 0 81 -92 81c-54 0 -96 -22 -144 -52l-28 63c79 38 117 47 175 47c22 0 73 -2 109 -29c47 -35 47 -77 47 -103v-265c0 -27 10 -38 16 -43c9 -7 12 -7 40 -7v-55c-37 0 -58 0 -76 11c-27 16 -39 55 -39 72c0 7 0 8 -1 11c-1 0 -2 1 -3 1s-2 0 -3 -1
c-49 -55 -94 -93 -171 -93c-58 0 -84 19 -103 39c-29 31 -35 72 -35 88c0 92 71 133 104 147c67 29 132 29 204 29zM350 137v118c-52 0 -104 -1 -152 -21c-49 -20 -86 -56 -86 -109c0 -22 11 -79 85 -79c61 0 133 68 153 91zM139 653h65v-102h-65v102zM298 653h64v-102h-64
v102z" />
    <glyph glyph-name="agrave" unicode="&#xe0;" 
d="M352 296v59c0 31 0 81 -92 81c-54 0 -96 -22 -144 -52l-28 63c79 38 117 47 175 47c22 0 73 -2 109 -29c47 -35 47 -77 47 -103v-265c0 -27 10 -38 16 -43c9 -7 12 -7 40 -7v-55c-37 0 -58 0 -76 11c-27 16 -39 55 -39 72c0 7 0 8 -1 11c-1 0 -2 1 -3 1s-2 0 -3 -1
c-49 -55 -94 -93 -171 -93c-58 0 -84 19 -103 39c-29 31 -35 72 -35 88c0 92 71 133 104 147c67 29 132 29 204 29zM350 137v118c-52 0 -104 -1 -152 -21c-49 -20 -86 -56 -86 -109c0 -22 11 -79 85 -79c61 0 133 68 153 91zM118 679h77l112 -138h-51z" />
    <glyph glyph-name="aring" unicode="&#xe5;" 
d="M352 296v59c0 31 0 81 -92 81c-54 0 -96 -22 -144 -52l-28 63c79 38 117 47 175 47c22 0 73 -2 109 -29c47 -35 47 -77 47 -103v-265c0 -27 10 -38 16 -43c9 -7 12 -7 40 -7v-55c-37 0 -58 0 -76 11c-27 16 -39 55 -39 72c0 7 0 8 -1 11c-1 0 -2 1 -3 1s-2 0 -3 -1
c-49 -55 -94 -93 -171 -93c-58 0 -84 19 -103 39c-29 31 -35 72 -35 88c0 92 71 133 104 147c67 29 132 29 204 29zM350 137v118c-52 0 -104 -1 -152 -21c-49 -20 -86 -56 -86 -109c0 -22 11 -79 85 -79c61 0 133 68 153 91zM251 679c40 0 73 -33 73 -73
c0 -41 -33 -74 -73 -74c-41 0 -74 33 -74 74c0 40 33 73 74 73zM251 647c-22 0 -40 -19 -40 -41s18 -41 40 -41s39 19 39 41s-17 41 -39 41z" />
    <glyph glyph-name="atilde" unicode="&#xe3;" 
d="M352 296v59c0 31 0 81 -92 81c-54 0 -96 -22 -144 -52l-28 63c79 38 117 47 175 47c22 0 73 -2 109 -29c47 -35 47 -77 47 -103v-265c0 -27 10 -38 16 -43c9 -7 12 -7 40 -7v-55c-37 0 -58 0 -76 11c-27 16 -39 55 -39 72c0 7 0 8 -1 11c-1 0 -2 1 -3 1s-2 0 -3 -1
c-49 -55 -94 -93 -171 -93c-58 0 -84 19 -103 39c-29 31 -35 72 -35 88c0 92 71 133 104 147c67 29 132 29 204 29zM350 137v118c-52 0 -104 -1 -152 -21c-49 -20 -86 -56 -86 -109c0 -22 11 -79 85 -79c61 0 133 68 153 91zM363 654h39c-13 -76 -46 -97 -83 -97
c-22 0 -30 2 -89 27c-38 16 -43 18 -56 18c-35 0 -45 -35 -49 -50h-36c5 44 32 97 88 97c22 0 28 -3 83 -26c38 -16 46 -19 58 -19c38 0 43 37 45 50z" />
    <glyph glyph-name="eacute" unicode="&#xe9;" horiz-adv-x="444" 
d="M102 296h224c0 18 1 61 -20 96c-20 33 -56 46 -86 46c-57 0 -109 -39 -118 -142zM394 248h-294c0 -87 19 -198 128 -198c45 0 78 19 106 53l46 -36c-43 -53 -87 -73 -154 -73c-127 0 -193 120 -193 235c0 58 6 123 43 182c39 61 93 82 147 82c148 0 166 -129 171 -245z
M154 541l111 138h77l-137 -138h-51z" />
    <glyph glyph-name="ecircumflex" unicode="&#xea;" horiz-adv-x="444" 
d="M102 296h224c0 18 1 61 -20 96c-20 33 -56 46 -86 46c-57 0 -109 -39 -118 -142zM394 248h-294c0 -87 19 -198 128 -198c45 0 78 19 106 53l46 -36c-43 -53 -87 -73 -154 -73c-127 0 -193 120 -193 235c0 58 6 123 43 182c39 61 93 82 147 82c148 0 166 -129 171 -245z
M189 679h67l113 -138h-65l-82 101l-82 -101h-65z" />
    <glyph glyph-name="edieresis" unicode="&#xeb;" horiz-adv-x="444" 
d="M102 296h224c0 18 1 61 -20 96c-20 33 -56 46 -86 46c-57 0 -109 -39 -118 -142zM394 248h-294c0 -87 19 -198 128 -198c45 0 78 19 106 53l46 -36c-43 -53 -87 -73 -154 -73c-127 0 -193 120 -193 235c0 58 6 123 43 182c39 61 93 82 147 82c148 0 166 -129 171 -245z
M111 653h65v-102h-65v102zM270 653h64v-102h-64v102z" />
    <glyph glyph-name="egrave" unicode="&#xe8;" horiz-adv-x="444" 
d="M102 296h224c0 18 1 61 -20 96c-20 33 -56 46 -86 46c-57 0 -109 -39 -118 -142zM394 248h-294c0 -87 19 -198 128 -198c45 0 78 19 106 53l46 -36c-43 -53 -87 -73 -154 -73c-127 0 -193 120 -193 235c0 58 6 123 43 182c39 61 93 82 147 82c148 0 166 -129 171 -245z
M90 679h77l112 -138h-51z" />
    <glyph glyph-name="iacute" unicode="&#xed;" horiz-adv-x="278" 
d="M108 479h62v-479h-62v479zM71 541l111 138h77l-137 -138h-51z" />
    <glyph glyph-name="icircumflex" unicode="&#xee;" horiz-adv-x="278" 
d="M108 479h62v-479h-62v479zM106 679h67l113 -138h-65l-82 101l-82 -101h-65z" />
    <glyph glyph-name="idieresis" unicode="&#xef;" horiz-adv-x="278" 
d="M108 479h62v-479h-62v479zM28 653h65v-102h-65v102zM187 653h64v-102h-64v102z" />
    <glyph glyph-name="igrave" unicode="&#xec;" horiz-adv-x="278" 
d="M108 479h62v-479h-62v479zM7 679h77l112 -138h-51z" />
    <glyph glyph-name="ntilde" unicode="&#xf1;" 
d="M74 0v456l63 34v-108c0 -6 5 -10 8 -7c18 14 63 111 166 111c94 0 115 -67 115 -147v-339h-65v341c0 44 0 93 -63 93c-43 0 -73 -21 -101 -47s-47 -54 -58 -78v-309h-65zM363 654h39c-13 -76 -46 -97 -83 -97c-22 0 -30 2 -89 27c-38 16 -43 18 -56 18
c-35 0 -45 -35 -49 -50h-36c5 44 32 97 88 97c22 0 28 -3 83 -26c38 -16 46 -19 58 -19c38 0 43 37 45 50z" />
    <glyph glyph-name="oacute" unicode="&#xf3;" 
d="M378 231c0 83 -22 203 -128 203c-110 0 -127 -126 -127 -209c0 -80 38 -176 132 -176c97 0 123 102 123 182zM444 236c0 -138 -47 -245 -198 -245c-139 0 -189 129 -189 251c0 118 54 250 192 250c144 0 195 -131 195 -256zM182 541l111 138h77l-137 -138h-51z" />
    <glyph glyph-name="ocircumflex" unicode="&#xf4;" 
d="M378 231c0 83 -22 203 -128 203c-110 0 -127 -126 -127 -209c0 -80 38 -176 132 -176c97 0 123 102 123 182zM444 236c0 -138 -47 -245 -198 -245c-139 0 -189 129 -189 251c0 118 54 250 192 250c144 0 195 -131 195 -256zM217 679h67l113 -138h-65l-82 101l-82 -101
h-65z" />
    <glyph glyph-name="odieresis" unicode="&#xf6;" 
d="M378 231c0 83 -22 203 -128 203c-110 0 -127 -126 -127 -209c0 -80 38 -176 132 -176c97 0 123 102 123 182zM444 236c0 -138 -47 -245 -198 -245c-139 0 -189 129 -189 251c0 118 54 250 192 250c144 0 195 -131 195 -256zM139 653h65v-102h-65v102zM298 653h64v-102
h-64v102z" />
    <glyph glyph-name="ograve" unicode="&#xf2;" 
d="M378 231c0 83 -22 203 -128 203c-110 0 -127 -126 -127 -209c0 -80 38 -176 132 -176c97 0 123 102 123 182zM444 236c0 -138 -47 -245 -198 -245c-139 0 -189 129 -189 251c0 118 54 250 192 250c144 0 195 -131 195 -256zM118 679h77l112 -138h-51z" />
    <glyph glyph-name="otilde" unicode="&#xf5;" 
d="M378 231c0 83 -22 203 -128 203c-110 0 -127 -126 -127 -209c0 -80 38 -176 132 -176c97 0 123 102 123 182zM444 236c0 -138 -47 -245 -198 -245c-139 0 -189 129 -189 251c0 118 54 250 192 250c144 0 195 -131 195 -256zM363 654h39c-13 -76 -46 -97 -83 -97
c-22 0 -30 2 -89 27c-38 16 -43 18 -56 18c-35 0 -45 -35 -49 -50h-36c5 44 32 97 88 97c22 0 28 -3 83 -26c38 -16 46 -19 58 -19c38 0 43 37 45 50z" />
    <glyph glyph-name="scaron" unicode="&#x161;" horiz-adv-x="389" 
d="M37 45l26 57c36 -32 79 -57 129 -57c66 0 102 35 102 81c0 33 -22 59 -52 72c-12 5 -110 44 -131 54c-16 7 -68 33 -68 106c0 85 63 135 146 135c53 0 93 -15 140 -37l-21 -59c-36 27 -78 43 -124 43c-40 0 -80 -24 -80 -68c0 -48 28 -60 117 -95
c76 -30 130 -53 130 -143c0 -96 -73 -140 -161 -140c-62 0 -103 15 -153 51zM277 679h65l-113 -138h-67l-114 138h65l82 -101z" />
    <glyph glyph-name="uacute" unicode="&#xfa;" 
d="M76 142v337h66v-332c0 -47 1 -103 73 -103c65 0 146 106 146 119v316h64v-456l-61 -32v107c0 2 0 6 -4 6c-2 0 -6 -2 -10 -7c-38 -59 -81 -104 -155 -104c-95 0 -119 66 -119 149zM182 541l111 138h77l-137 -138h-51z" />
    <glyph glyph-name="ucircumflex" unicode="&#xfb;" 
d="M76 142v337h66v-332c0 -47 1 -103 73 -103c65 0 146 106 146 119v316h64v-456l-61 -32v107c0 2 0 6 -4 6c-2 0 -6 -2 -10 -7c-38 -59 -81 -104 -155 -104c-95 0 -119 66 -119 149zM217 679h67l113 -138h-65l-82 101l-82 -101h-65z" />
    <glyph glyph-name="udieresis" unicode="&#xfc;" 
d="M76 142v337h66v-332c0 -47 1 -103 73 -103c65 0 146 106 146 119v316h64v-456l-61 -32v107c0 2 0 6 -4 6c-2 0 -6 -2 -10 -7c-38 -59 -81 -104 -155 -104c-95 0 -119 66 -119 149zM139 653h65v-102h-65v102zM298 653h64v-102h-64v102z" />
    <glyph glyph-name="ugrave" unicode="&#xf9;" 
d="M76 142v337h66v-332c0 -47 1 -103 73 -103c65 0 146 106 146 119v316h64v-456l-61 -32v107c0 2 0 6 -4 6c-2 0 -6 -2 -10 -7c-38 -59 -81 -104 -155 -104c-95 0 -119 66 -119 149zM118 679h77l112 -138h-51z" />
    <glyph glyph-name="yacute" unicode="&#xfd;" horiz-adv-x="444" 
d="M30 -145v77h21c8 -14 16 -28 48 -28c65 0 78 83 95 128l-169 447h71l96 -264c4 -12 12 -34 20 -56c6 -18 10 -36 16 -36c7 0 10 28 32 92l89 264h63l-171 -494c-25 -72 -60 -145 -147 -145c-26 0 -41 5 -64 15zM154 541l111 138h77l-137 -138h-51z" />
    <glyph glyph-name="ydieresis" unicode="&#xff;" horiz-adv-x="444" 
d="M30 -145v77h21c8 -14 16 -28 48 -28c65 0 78 83 95 128l-169 447h71l96 -264c4 -12 12 -34 20 -56c6 -18 10 -36 16 -36c7 0 10 28 32 92l89 264h63l-171 -494c-25 -72 -60 -145 -147 -145c-26 0 -41 5 -64 15zM111 653h65v-102h-65v102zM270 653h64v-102h-64v102z" />
    <glyph glyph-name="zcaron" unicode="&#x17e;" horiz-adv-x="444" 
d="M60 421v58h331v-57l-208 -292c-23 -32 -32 -44 -43 -57c-10 -11 -11 -14 -11 -16c0 -3 5 -4 10 -4h252v-53h-338v52l192 274c21 31 44 60 69 88v7h-254zM304 679h65l-113 -138h-67l-114 138h65l82 -101z" />
    </font>
</defs>
</svg>
