<?xml version="1.0" standalone="no"?>
<!DOCTYPE svg PUBLIC "-//W3C//DTD SVG 1.1//EN" "http://www.w3.org/Graphics/SVG/1.1/DTD/svg11.dtd" >
<svg>
<metadata>
Created by FontForge 20120731 at Sat Jun 29 14:40:56 2019
 By www
Copyright 1990-1999 as an unpublished work by Bitstream Inc.  All rights reserved.  Confidential.
</metadata>
<defs>
<font id="BellGothicBT-Roman" horiz-adv-x="500" >
  <font-face 
    font-family="Bell Gothic"
    font-weight="500"
    font-stretch="normal"
    units-per-em="1000"
    panose-1="0 0 0 0 0 0 0 0 0 0"
    ascent="800"
    descent="-200"
    x-height="475"
    cap-height="664"
    bbox="-167 -236 1154 953"
    underline-thickness="44"
    underline-position="-65"
    stemh="57"
    stemv="64"
    unicode-range="U+0020-FB02"
  />
<missing-glyph horiz-adv-x="278" 
 />
    <glyph glyph-name=".notdef" horiz-adv-x="278" 
 />
    <glyph glyph-name="space" unicode=" " horiz-adv-x="278" 
 />
    <glyph glyph-name="exclam" unicode="!" horiz-adv-x="389" 
d="M171 217l-13 447h71l-13 -447h-45zM134 55c0 32 28 59 60 59c33 0 59 -26 59 -59c0 -32 -27 -59 -59 -59s-60 27 -60 59z" />
    <glyph glyph-name="quotedbl" unicode="&#x22;" horiz-adv-x="269" 
d="M91 700v-270h-42v270h42zM220 700v-270h-42v270h42z" />
    <glyph glyph-name="numbersign" unicode="#" horiz-adv-x="769" 
d="M447 710l-85 -243h132l86 243h54l-85 -243h157l-15 -44h-158l-49 -138h170l-15 -44h-171l-85 -241h-55l86 241h-132l-87 -241h-54l85 241h-163l15 44h164l49 138h-176l14 44h178l86 243h54zM478 423h-132l-48 -138h131z" />
    <glyph glyph-name="dollar" unicode="$" horiz-adv-x="556" 
d="M252 -130v130c-74 7 -135 33 -186 82l34 54c48 -47 97 -72 152 -76v243c-114 42 -168 94 -168 169c0 77 62 136 168 144v83h54v-83c60 -6 110 -28 154 -67l-32 -46c-38 35 -77 54 -122 59v-210c114 -28 176 -96 176 -179c0 -84 -62 -149 -176 -173v-130h-54zM252 370v192
c-69 -5 -106 -37 -106 -85c0 -46 35 -80 106 -107zM306 60c72 15 109 53 109 110c0 51 -39 96 -109 116v-226z" />
    <glyph glyph-name="percent" unicode="%" horiz-adv-x="840" 
d="M69 475c0 78 63 141 141 141c79 0 141 -63 141 -141s-61 -141 -141 -141c-78 0 -141 63 -141 141zM122 475c0 -48 39 -89 88 -89s88 40 88 89s-39 88 -88 88s-88 -39 -88 -88zM192 -16l402 648h54l-402 -648h-54zM542 141c0 -48 39 -88 88 -88s89 39 89 88s-40 89 -89 89
s-88 -40 -88 -89zM489 142c0 78 63 141 141 141c79 0 142 -63 142 -141s-62 -142 -142 -142c-78 0 -141 64 -141 142z" />
    <glyph glyph-name="ampersand" unicode="&#x26;" horiz-adv-x="722" 
d="M300 425c67 35 101 77 101 127c0 48 -31 80 -73 80c-45 0 -77 -34 -77 -89c0 -31 17 -70 49 -118zM686 -3c-18 -9 -35 -14 -54 -14c-54 0 -100 29 -149 88c-61 -60 -130 -90 -199 -90c-114 0 -198 84 -198 198c0 92 50 158 155 213c-35 59 -54 108 -54 150
c0 86 58 141 139 141c82 0 137 -51 137 -130c0 -67 -46 -130 -137 -179c50 -77 104 -148 162 -214c46 57 78 117 94 184l56 -22c-26 -84 -64 -151 -115 -203c38 -47 69 -72 109 -72c14 0 32 4 54 12v-62zM442 113c-65 75 -120 152 -171 228c-78 -42 -115 -91 -115 -156
c0 -82 64 -143 135 -143c45 0 101 23 151 71z" />
    <glyph glyph-name="quoteright" unicode="&#x2019;" horiz-adv-x="278" 
d="M113 371h-64l113 293h65z" />
    <glyph glyph-name="parenleft" unicode="(" horiz-adv-x="333" 
d="M221 -37c-91 113 -136 226 -136 351s45 237 136 350h67c-94 -125 -142 -238 -142 -350s48 -226 142 -351h-67z" />
    <glyph glyph-name="parenright" unicode=")" horiz-adv-x="333" 
d="M107 -37h-67c94 125 142 239 142 351s-48 225 -142 350h67c91 -113 135 -225 135 -350s-44 -238 -135 -351z" />
    <glyph glyph-name="asterisk" unicode="*" horiz-adv-x="556" 
d="M278 462l-83 -139l-53 43l115 114l-161 31l23 69l146 -70l-22 154h73l-22 -154l145 70l23 -69l-161 -31l116 -114l-53 -43z" />
    <glyph glyph-name="plus" unicode="+" horiz-adv-x="833" 
d="M436 595v-278h273v-39h-273v-278h-39v278h-273v39h273v278h39z" />
    <glyph glyph-name="comma" unicode="," horiz-adv-x="278" 
d="M87 -188h-65l114 294h64z" />
    <glyph glyph-name="hyphen" unicode="-" horiz-adv-x="333" 
d="M53 209v58h220v-58h-220z" />
    <glyph glyph-name="period" unicode="." horiz-adv-x="278" 
d="M75 55c0 32 27 59 59 59c33 0 59 -26 59 -59c0 -32 -27 -59 -59 -59s-59 27 -59 59z" />
    <glyph glyph-name="slash" unicode="/" horiz-adv-x="278" 
d="M-20 -93l263 757h55l-263 -757h-55z" />
    <glyph glyph-name="zero" unicode="0" horiz-adv-x="556" 
d="M77 308c0 211 80 324 201 324c122 0 200 -113 200 -324s-78 -324 -200 -324s-201 113 -201 324zM278 572c-83 0 -131 -89 -131 -265s48 -264 131 -264s131 89 131 264s-48 265 -131 265z" />
    <glyph glyph-name="one" unicode="1" horiz-adv-x="556" 
d="M123 0v60h138v496h-159v60h229v-556h132v-60h-340z" />
    <glyph glyph-name="two" unicode="2" horiz-adv-x="556" 
d="M84 0c11 91 42 161 97 214c43 42 96 79 149 124c45 38 69 85 69 125c0 62 -49 109 -115 109c-68 0 -118 -38 -145 -111l-54 35c42 91 107 136 197 136c113 0 187 -72 187 -169c0 -47 -17 -91 -49 -129c-37 -45 -81 -75 -120 -107c-60 -48 -110 -89 -127 -167h303v-60
h-392z" />
    <glyph glyph-name="three" unicode="3" horiz-adv-x="556" 
d="M49 -16v60c223 5 350 90 350 185c0 54 -41 93 -105 93c-24 0 -57 -6 -99 -20l-17 51c123 47 185 94 185 153c0 44 -28 71 -76 71c-57 0 -113 -26 -169 -76l-37 43c72 58 136 88 203 88c90 0 148 -54 148 -124c0 -51 -38 -96 -115 -141c101 -11 151 -56 151 -136
c0 -137 -149 -241 -419 -247z" />
    <glyph glyph-name="four" unicode="4" horiz-adv-x="556" 
d="M354 0v178h-295v90l249 348h111v-378h78v-60h-78v-178h-65zM354 238v338l-235 -323v-15h235z" />
    <glyph glyph-name="five" unicode="5" horiz-adv-x="556" 
d="M61 18l16 61c56 -23 105 -35 149 -35c124 0 195 69 195 175c0 83 -50 130 -141 130c-45 0 -90 -16 -135 -49h-50l36 316h318v-60h-263l-22 -177c42 22 82 33 123 33c121 0 203 -77 203 -191c0 -143 -96 -237 -264 -237c-61 0 -114 10 -165 34z" />
    <glyph glyph-name="six" unicode="6" horiz-adv-x="556" 
d="M143 283c42 67 98 100 167 100c118 0 201 -81 201 -198s-89 -201 -210 -201c-132 0 -223 97 -223 253c0 126 61 255 180 395h87c-128 -143 -197 -257 -202 -349zM159 184c0 -86 56 -141 140 -141c85 0 143 58 143 141c0 84 -56 139 -139 139s-144 -60 -144 -139z" />
    <glyph glyph-name="seven" unicode="7" horiz-adv-x="556" 
d="M165 0c57 182 136 368 242 556h-331v60h408v-23c-110 -198 -189 -394 -237 -593h-82z" />
    <glyph glyph-name="eight" unicode="8" horiz-adv-x="556" 
d="M147 467c0 -59 51 -104 131 -104c81 0 131 44 131 104s-50 105 -131 105c-80 0 -131 -46 -131 -105zM196 333c-77 27 -116 73 -116 140c0 85 80 159 198 159s198 -74 198 -159c0 -67 -40 -113 -117 -140c87 -29 132 -85 132 -165c0 -113 -78 -184 -213 -184
s-213 71 -213 184c0 80 44 136 131 165zM134 173c0 -75 58 -129 144 -129c87 0 144 53 144 129c0 77 -56 130 -144 130c-87 0 -144 -54 -144 -130z" />
    <glyph glyph-name="nine" unicode="9" horiz-adv-x="556" 
d="M408 432c0 86 -56 141 -140 141c-85 0 -143 -58 -143 -141c0 -84 56 -140 139 -140s144 61 144 140zM424 333c-42 -67 -98 -101 -167 -101c-118 0 -201 82 -201 199s89 201 210 201c132 0 223 -97 223 -253c0 -126 -61 -255 -180 -395h-87c128 143 197 257 202 349z" />
    <glyph glyph-name="colon" unicode=":" horiz-adv-x="278" 
d="M76 429c0 32 27 59 59 59c33 0 59 -26 59 -59c0 -32 -27 -59 -59 -59s-59 27 -59 59zM80 55c0 32 27 59 59 59c33 0 59 -26 59 -59c0 -32 -27 -59 -59 -59s-59 27 -59 59z" />
    <glyph glyph-name="semicolon" unicode=";" horiz-adv-x="278" 
d="M77 429c0 32 27 59 59 59c33 0 59 -26 59 -59c0 -32 -27 -59 -59 -59s-59 27 -59 59zM54 -188h-65l114 294h65z" />
    <glyph glyph-name="less" unicode="&#x3c;" horiz-adv-x="833" 
d="M704 505l-510 -207l510 -207v-43l-575 235v30l575 236v-44z" />
    <glyph glyph-name="equal" unicode="=" horiz-adv-x="833" 
d="M709 406v-39h-585v39h585zM709 229v-39h-585v39h585z" />
    <glyph glyph-name="greater" unicode="&#x3e;" horiz-adv-x="833" 
d="M704 313v-30l-575 -235v43l510 207l-510 207v44z" />
    <glyph glyph-name="question" unicode="?" 
d="M182 232v48c0 34 20 70 58 111c50 55 90 91 90 146c0 56 -39 88 -102 88c-54 0 -92 -28 -118 -86l-61 27c43 78 104 117 183 117c98 0 168 -61 168 -146c0 -61 -31 -96 -71 -139c-45 -49 -82 -83 -84 -131v-35h-63zM158 55c0 32 27 59 59 59c33 0 59 -26 59 -59
c0 -32 -27 -59 -59 -59s-59 27 -59 59z" />
    <glyph glyph-name="at" unicode="@" horiz-adv-x="1000" 
d="M595 228l31 124c-14 64 -53 99 -114 99c-99 0 -175 -102 -175 -233c0 -76 40 -120 106 -120c72 0 132 51 152 130zM636 404l30 63h39l-67 -270c-7 -26 -10 -44 -10 -53c0 -28 20 -45 57 -45c31 0 66 13 99 37c64 47 109 139 109 239c0 176 -140 296 -354 296
c-110 0 -203 -32 -278 -94c-100 -83 -151 -194 -151 -328c0 -211 154 -350 397 -350c103 0 214 33 304 94l14 -22c-95 -71 -201 -107 -316 -107c-124 0 -225 31 -303 90c-99 75 -147 173 -147 301c0 106 34 202 97 279c93 114 226 174 388 174c108 0 205 -32 270 -82
c83 -64 127 -149 127 -246c0 -111 -43 -204 -119 -264c-44 -35 -97 -54 -149 -54c-62 0 -94 24 -94 71c0 6 1 12 2 19c-32 -58 -84 -90 -142 -90c-100 0 -153 55 -153 159c0 151 102 266 225 266c62 0 105 -28 125 -83z" />
    <glyph glyph-name="A" unicode="A" horiz-adv-x="667" 
d="M27 0l266 664h79l265 -664h-70l-63 159h-343l-63 -159h-71zM185 219h295l-141 357h-13z" />
    <glyph glyph-name="B" unicode="B" horiz-adv-x="667" 
d="M117 0v664h205c147 0 222 -57 222 -164c0 -63 -37 -103 -118 -135v-9c96 -23 144 -77 144 -163c0 -118 -82 -193 -220 -193h-233zM184 604v-216h129c110 0 163 28 163 107c0 82 -52 109 -163 109h-129zM184 60h149c111 0 168 47 168 134c0 90 -60 134 -181 134h-136v-268
z" />
    <glyph glyph-name="C" unicode="C" horiz-adv-x="611" 
d="M538 181c-8 -122 -93 -200 -210 -200c-152 0 -235 120 -235 351c0 230 85 351 230 351c113 0 193 -68 204 -182l-58 -29c-14 103 -59 152 -141 152c-112 0 -167 -97 -167 -292c0 -194 56 -292 165 -292c88 0 147 57 155 157z" />
    <glyph glyph-name="D" unicode="D" horiz-adv-x="646" 
d="M165 60h98c155 0 225 87 225 272s-70 272 -225 272h-98v-544zM98 0v664h170c190 0 290 -113 290 -332s-100 -332 -290 -332h-170z" />
    <glyph glyph-name="E" unicode="E" horiz-adv-x="667" 
d="M153 0v664h414v-60h-347v-226h299v-60h-299v-258h358v-60h-425z" />
    <glyph glyph-name="F" unicode="F" horiz-adv-x="579" 
d="M121 0v664h415v-60h-348v-212h293v-60h-293v-332h-67z" />
    <glyph glyph-name="G" unicode="G" horiz-adv-x="667" 
d="M524 -19l-15 100h-9c-41 -69 -93 -100 -167 -100c-161 0 -243 117 -243 351c0 232 83 351 237 351c105 0 178 -60 198 -166l-58 -25c-18 89 -63 132 -139 132c-115 0 -169 -96 -169 -292c0 -201 54 -292 179 -292c97 0 149 69 157 207h-173v60h228v-326h-26z" />
    <glyph glyph-name="H" unicode="H" horiz-adv-x="722" 
d="M147 0v664h67v-287h292v287h67v-664h-67v317h-292v-317h-67z" />
    <glyph glyph-name="I" unicode="I" horiz-adv-x="389" 
d="M92 0v39h70v586h-70v39h209v-39h-70v-586h70v-39h-209z" />
    <glyph glyph-name="J" unicode="J" 
d="M12 160l58 28c1 -93 44 -146 111 -146c74 0 120 53 120 146v476h67v-488c0 -121 -74 -195 -188 -195c-102 0 -166 67 -168 179z" />
    <glyph glyph-name="K" unicode="K" horiz-adv-x="667" 
d="M228 358l309 306h82l-305 -303l326 -361h-92zM130 0v664h67v-664h-67z" />
    <glyph glyph-name="L" unicode="L" horiz-adv-x="590" 
d="M142 0v664h67v-604h342v-60h-409z" />
    <glyph glyph-name="M" unicode="M" horiz-adv-x="889" 
d="M135 0v664h136l162 -604h21l162 604h135v-664h-67v624h-21l-164 -624h-111l-165 624h-20v-624h-68z" />
    <glyph glyph-name="N" unicode="N" horiz-adv-x="722" 
d="M131 0v664h125l248 -597h18v597h67v-664h-124l-249 597h-18v-597h-67z" />
    <glyph glyph-name="O" unicode="O" horiz-adv-x="611" 
d="M61 342c0 221 88 341 230 341c145 0 230 -121 230 -351s-85 -351 -230 -351c-148 0 -230 123 -230 361zM130 332c0 -194 54 -291 161 -291s162 97 162 291s-55 292 -162 292s-161 -98 -161 -292z" />
    <glyph glyph-name="P" unicode="P" horiz-adv-x="623" 
d="M196 604v-272h99c128 0 189 41 189 136s-61 136 -189 136h-99zM129 0v664h189c150 0 235 -74 235 -197s-85 -197 -235 -197h-122v-270h-67z" />
    <glyph glyph-name="Q" unicode="Q" horiz-adv-x="611" 
d="M341 52c-22 39 -48 74 -77 106l42 32c31 -37 58 -73 82 -109c50 51 65 123 65 228c0 211 -48 315 -162 315c-107 0 -161 -98 -161 -292s54 -291 161 -291c18 0 35 3 50 11zM371 0c-23 -13 -49 -19 -80 -19c-145 0 -230 121 -230 351s85 351 230 351s230 -121 230 -351
c0 -152 -33 -253 -101 -305l23 -38c15 -24 39 -38 71 -38c10 0 21 1 32 4v-61c-13 -3 -26 -5 -38 -5c-45 0 -82 23 -111 69z" />
    <glyph glyph-name="R" unicode="R" horiz-adv-x="667" 
d="M135 0v664h188c148 0 236 -75 236 -186c0 -97 -66 -167 -180 -184l200 -294h-77l-196 289h-104v-289h-67zM202 604v-253h98c126 0 189 43 189 127s-63 126 -189 126h-98z" />
    <glyph glyph-name="S" unicode="S" horiz-adv-x="611" 
d="M75 137l63 28c28 -83 85 -124 167 -124c80 0 130 51 130 129c0 56 -29 94 -91 120l-110 46c-91 38 -134 92 -134 177c0 102 68 169 185 169c90 0 153 -43 200 -135l-59 -29c-31 71 -83 108 -151 108s-113 -47 -113 -110c0 -47 30 -87 82 -110l113 -50
c99 -43 144 -89 144 -183c0 -116 -78 -190 -202 -190c-110 0 -187 52 -224 154z" />
    <glyph glyph-name="T" unicode="T" horiz-adv-x="544" 
d="M238 0v604h-213v60h494v-60h-213v-604h-68z" />
    <glyph glyph-name="U" unicode="U" horiz-adv-x="722" 
d="M147 664h68v-464c0 -112 40 -158 147 -158c69 0 110 21 135 74c16 33 18 74 18 122v426h58v-428c0 -171 -69 -255 -211 -255c-144 0 -215 71 -215 212v471z" />
    <glyph glyph-name="V" unicode="V" horiz-adv-x="667" 
d="M294 0l-240 664h71l202 -581h11l201 581h72l-241 -664h-76z" />
    <glyph glyph-name="W" unicode="W" horiz-adv-x="944" 
d="M235 0l-179 664h68l100 -365c20 -72 36 -150 51 -234h15l138 599h88l137 -599h15c15 84 32 162 52 234l99 365h69l-180 -664h-95l-134 571h-15l-133 -571h-96z" />
    <glyph glyph-name="X" unicode="X" horiz-adv-x="667" 
d="M331 288l-200 -288h-75l240 339l-221 325h78l183 -272l180 272h72l-218 -319l241 -345h-80z" />
    <glyph glyph-name="Y" unicode="Y" horiz-adv-x="667" 
d="M299 0v238l-245 426h73l199 -345h12l199 345h74l-245 -426v-238h-67z" />
    <glyph glyph-name="Z" unicode="Z" horiz-adv-x="611" 
d="M75 0v46l369 558h-353v60h440v-46l-368 -558h371v-60h-459z" />
    <glyph glyph-name="bracketleft" unicode="[" horiz-adv-x="389" 
d="M87 -37v701h277v-39h-214v-623h214v-39h-277z" />
    <glyph glyph-name="backslash" unicode="\" horiz-adv-x="278" 
d="M-20 664h54l263 -757h-55z" />
    <glyph glyph-name="bracketright" unicode="]" horiz-adv-x="389" 
d="M299 -37h-277v39h215v623h-215v39h277v-701z" />
    <glyph glyph-name="asciicircum" unicode="^" horiz-adv-x="1000" 
d="M528 712l264 -272h-61l-231 229l-232 -229h-61l263 272h58z" />
    <glyph glyph-name="underscore" unicode="_" 
d="M500 -197v-39h-500v39h500z" />
    <glyph glyph-name="quoteleft" unicode="&#x2018;" horiz-adv-x="278" 
d="M162 371l-113 293h64l114 -293h-65z" />
    <glyph glyph-name="a" unicode="a" 
d="M335 85c-54 -64 -110 -97 -165 -97c-75 0 -129 55 -129 139c0 103 98 167 281 167h21v63c0 54 -27 75 -92 75c-48 0 -95 -16 -142 -48l-30 60c63 30 122 44 179 44c64 0 112 -21 134 -54c12 -17 15 -47 15 -91v-236c0 -40 16 -57 56 -59v-59c-72 3 -113 38 -117 96h-11z
M343 135v116h-13c-145 0 -222 -47 -222 -124c0 -48 29 -79 74 -79c40 0 99 28 161 87z" />
    <glyph glyph-name="b" unicode="b" 
d="M72 23v650l65 28v-315h8c43 68 93 103 146 103c101 0 160 -88 160 -251c0 -161 -60 -248 -160 -248c-53 0 -103 35 -146 103h-8v-105zM384 238c0 125 -43 191 -114 191c-29 0 -62 -19 -86 -51c-30 -41 -47 -91 -47 -140s17 -99 47 -140c24 -32 57 -50 86 -50
c71 0 114 65 114 190z" />
    <glyph glyph-name="c" unicode="c" horiz-adv-x="444" 
d="M413 87c-36 -68 -88 -99 -165 -99c-115 0 -184 91 -184 250c0 158 76 251 181 251c67 0 116 -29 162 -92l-63 -31c-25 43 -59 65 -99 65c-68 0 -114 -69 -114 -193c0 -127 45 -192 126 -192c41 0 70 22 96 69z" />
    <glyph glyph-name="d" unicode="d" 
d="M433 23l-64 -23v93h-9c-43 -68 -93 -103 -146 -103c-100 0 -160 87 -160 248c0 163 59 251 160 251c53 0 103 -34 146 -103h9v287l64 28v-678zM122 238c0 -125 43 -190 114 -190c29 0 62 18 86 50c30 41 47 91 47 140s-17 99 -47 140c-24 32 -57 51 -86 51
c-71 0 -114 -66 -114 -191z" />
    <glyph glyph-name="e" unicode="e" horiz-adv-x="444" 
d="M112 297h221c-3 88 -41 134 -109 134c-67 0 -105 -45 -112 -134zM385 63c-41 -49 -97 -75 -161 -75c-114 0 -179 89 -179 253c0 158 73 247 179 247c107 0 176 -84 176 -234v-10h-288v-23c0 -118 38 -175 121 -175c34 0 70 18 105 55z" />
    <glyph glyph-name="f" unicode="f" horiz-adv-x="319" 
d="M122 0v409h-92v52h92v77c0 105 48 162 131 162c19 0 41 -3 65 -10v-66c-21 11 -41 16 -59 16c-62 0 -72 -38 -72 -119v-60h115v-52h-115v-409h-65z" />
    <glyph glyph-name="g" unicode="g" 
d="M119 -123v61h24c17 -21 47 -32 92 -32c84 0 130 45 130 125v105h-8c-33 -60 -83 -92 -134 -92c-95 0 -167 85 -167 222s72 222 167 222c51 0 101 -32 134 -92h8v82h65v-436c0 -120 -75 -194 -190 -194c-42 0 -81 9 -121 29zM123 266c0 -107 42 -166 106 -166
c74 0 136 67 136 166s-62 167 -136 167c-64 0 -106 -60 -106 -167z" />
    <glyph glyph-name="h" unicode="h" 
d="M78 0v673l64 28v-319h9c55 71 109 107 165 107c76 0 116 -52 116 -153v-336h-65v325c0 76 -17 108 -69 108c-48 0 -102 -38 -156 -114v-319h-64z" />
    <glyph glyph-name="i" unicode="i" horiz-adv-x="278" 
d="M95 574v99h88v-99h-88zM108 0v478h62v-478h-62z" />
    <glyph glyph-name="j" unicode="j" horiz-adv-x="278" 
d="M100 574v99h88v-99h-88zM0 -138l3 66c25 -14 44 -21 59 -21c39 0 50 26 50 80v491h63v-509c0 -78 -40 -120 -111 -120c-19 0 -40 4 -64 13z" />
    <glyph glyph-name="k" unicode="k" 
d="M100 0v673l65 28v-701h-65zM398 0l-213 244l217 234h74l-213 -234l212 -244h-77z" />
    <glyph glyph-name="l" unicode="l" horiz-adv-x="278" 
d="M106 0v673l65 28v-701h-65z" />
    <glyph glyph-name="m" unicode="m" horiz-adv-x="778" 
d="M67 0v460l64 29v-107h9c55 71 108 107 163 107c67 0 111 -39 117 -107h10c55 71 108 107 164 107c76 0 117 -52 117 -153v-336h-65v325c0 76 -17 108 -69 108c-48 0 -102 -38 -156 -114v-319h-65v325c0 76 -17 108 -69 108c-48 0 -102 -38 -156 -114v-319h-64z" />
    <glyph glyph-name="n" unicode="n" 
d="M73 0v460l65 29v-107h8c55 71 109 107 165 107c76 0 117 -52 117 -153v-336h-65v325c0 76 -17 108 -69 108c-48 0 -102 -38 -156 -114v-319h-65z" />
    <glyph glyph-name="o" unicode="o" horiz-adv-x="486" 
d="M59 238c0 158 75 250 184 250s184 -92 184 -250s-75 -250 -184 -250s-184 92 -184 250zM126 238c0 -124 45 -192 117 -192s117 68 117 192s-45 193 -117 193s-117 -69 -117 -193z" />
    <glyph glyph-name="p" unicode="p" 
d="M65 -174v634l65 29v-103h8c43 68 93 103 146 103c101 0 160 -88 160 -251c0 -161 -60 -248 -160 -248c-53 0 -103 35 -146 103h-8v-267h-65zM376 238c0 125 -43 191 -114 191c-29 0 -62 -19 -86 -51c-30 -41 -46 -91 -46 -140s16 -99 46 -140c24 -32 57 -50 86 -50
c71 0 114 65 114 190z" />
    <glyph glyph-name="q" unicode="q" 
d="M431 -174h-64v267h-9c-43 -68 -93 -103 -146 -103c-100 0 -159 87 -159 248c0 163 58 251 159 251c53 0 103 -35 146 -103h9v103l64 -29v-634zM120 238c0 -125 43 -190 114 -190c29 0 62 18 86 50c30 41 47 91 47 140s-17 99 -47 140c-24 32 -57 51 -86 51
c-71 0 -114 -66 -114 -191z" />
    <glyph glyph-name="r" unicode="r" horiz-adv-x="389" 
d="M104 0v460l65 28v-181h9c74 110 138 171 193 181v-118h-6c-77 0 -139 -39 -196 -122v-248h-65z" />
    <glyph glyph-name="s" unicode="s" horiz-adv-x="389" 
d="M42 45l27 55c47 -36 88 -55 127 -55c59 0 100 38 100 86c0 35 -19 54 -60 71l-92 38c-60 25 -91 68 -91 124c0 71 62 125 155 125c43 0 84 -13 129 -38l-24 -56c-42 25 -79 39 -113 39c-54 0 -87 -28 -87 -65c0 -34 21 -57 63 -74l71 -28c74 -29 110 -67 110 -132
c0 -84 -64 -147 -158 -147c-60 0 -113 20 -157 57z" />
    <glyph glyph-name="t" unicode="t" horiz-adv-x="333" 
d="M328 20c-42 -21 -78 -32 -107 -32c-30 0 -58 12 -79 33c-25 24 -26 55 -26 101v286h-87v52h87v114l64 78v-192h110v-52h-110v-308c0 -35 18 -52 54 -52c23 0 54 13 94 35v-63z" />
    <glyph glyph-name="u" unicode="u" 
d="M428 478v-450l-65 -28v106h-9c-55 -71 -108 -107 -164 -107c-76 0 -117 52 -117 153v326h65v-315c0 -76 17 -108 69 -108c48 0 102 39 156 115v308h65z" />
    <glyph glyph-name="v" unicode="v" horiz-adv-x="444" 
d="M179 0l-153 478h65l126 -409h10l126 409h66l-153 -478h-87z" />
    <glyph glyph-name="w" unicode="w" horiz-adv-x="667" 
d="M328 400l-97 -400h-86l-145 478h66l120 -409h10l100 409h74l101 -409h10l120 409h65l-144 -478h-86l-98 400h-10z" />
    <glyph glyph-name="x" unicode="x" 
d="M42 0l172 243l-165 235h76l125 -192l125 192h76l-165 -235l172 -243h-80l-128 197l-128 -197h-80z" />
    <glyph glyph-name="y" unicode="y" horiz-adv-x="444" 
d="M19 -149v79h24c17 -20 36 -30 57 -30c38 0 57 26 78 84l16 47l-167 447h67l127 -353h8l129 353h68l-196 -530c-28 -73 -68 -106 -138 -106c-21 0 -46 3 -73 9z" />
    <glyph glyph-name="z" unicode="z" horiz-adv-x="444" 
d="M55 3v61l262 353h-253v58h329v-61l-263 -353h263v-58h-338z" />
    <glyph glyph-name="braceleft" unicode="{" 
d="M414 678h-18c-95 0 -112 -32 -112 -129v-118c0 -99 -15 -149 -95 -172c81 -24 95 -73 95 -172v-118c0 -97 17 -128 111 -128h19v-43h-21c-133 0 -159 47 -159 183v117c0 101 -32 140 -126 140c-7 0 -14 -1 -22 -1v44c9 -1 17 -1 24 -1c92 0 124 39 124 140v117
c0 136 26 184 159 184h21v-43z" />
    <glyph glyph-name="bar" unicode="|" 
d="M272 764v-1000h-44v1000h44z" />
    <glyph glyph-name="braceright" unicode="}" 
d="M266 537v-117c0 -101 32 -140 126 -140c7 0 14 1 22 1v-44c-8 0 -15 1 -22 1c-94 0 -126 -39 -126 -140v-117c0 -136 -26 -183 -159 -183h-21v43h19c94 0 111 31 111 128v118c0 99 15 148 96 172c-81 23 -96 73 -96 172v118c0 97 -17 129 -112 129h-18v43h21
c133 0 159 -48 159 -184z" />
    <glyph glyph-name="asciitilde" unicode="~" horiz-adv-x="833" 
d="M747 316c-67 -47 -129 -72 -189 -72c-53 0 -97 18 -141 34c-48 17 -92 35 -141 35c-59 0 -118 -28 -189 -78v45c67 47 129 72 189 72c52 0 96 -18 141 -34c47 -17 91 -35 141 -35c59 0 118 28 189 78v-45z" />
    <glyph glyph-name="exclamdown" unicode="&#xa1;" horiz-adv-x="389" 
d="M171 448h45l13 -448h-71zM134 609c0 32 28 59 60 59s59 -27 59 -59c0 -33 -26 -59 -59 -59c-32 0 -60 27 -60 59z" />
    <glyph glyph-name="cent" unicode="&#xa2;" horiz-adv-x="556" 
d="M107 -139l71 173c-48 54 -66 118 -66 204c0 158 78 251 179 251c21 0 43 -4 65 -12l56 139h42l-62 -154c13 -9 35 -30 63 -65l-63 -31c-9 15 -17 27 -25 36l-135 -334c19 -15 39 -22 64 -22c49 0 76 17 105 69l60 -28c-36 -67 -88 -99 -161 -99c-33 0 -62 8 -90 25
l-61 -152h-42zM202 97l132 326c-15 6 -28 8 -40 8c-72 0 -115 -72 -115 -214c0 -45 6 -84 23 -120z" />
    <glyph glyph-name="sterling" unicode="&#xa3;" horiz-adv-x="556" 
d="M90 -16v78c72 17 98 64 98 155c0 22 -3 46 -8 73h-120v44h110c-14 42 -20 80 -20 115c0 113 68 183 175 183c59 0 110 -23 162 -70l-34 -50c-41 44 -76 65 -119 65c-74 0 -118 -46 -118 -128c0 -33 7 -72 22 -115h159v-44h-150c4 -28 6 -53 6 -72c0 -37 -7 -75 -23 -114
c59 -36 107 -55 146 -55c59 0 94 33 100 95h45c-9 -100 -68 -159 -143 -159c-46 0 -103 26 -171 76c-29 -40 -67 -65 -117 -77z" />
    <glyph glyph-name="fraction" unicode="&#x2044;" horiz-adv-x="167" 
d="M-167 -16l447 648h53l-446 -648h-54z" />
    <glyph glyph-name="yen" unicode="&#xa5;" horiz-adv-x="667" 
d="M292 0v219h-189v44h165l-206 355h71l185 -321h11l185 321h71l-206 -355h165v-44h-189v-219h-63z" />
    <glyph glyph-name="florin" unicode="&#x192;" horiz-adv-x="556" 
d="M17 -144l26 60c21 -20 39 -30 57 -30c65 0 88 107 121 320l24 155h-140v55h148c29 195 67 286 172 286c27 0 55 -10 86 -28l-28 -61c-20 19 -40 28 -62 28c-67 0 -77 -69 -102 -225h137v-55h-144l-26 -168c-23 -152 -46 -244 -63 -276c-31 -60 -74 -91 -120 -91
c-28 0 -55 10 -86 30z" />
    <glyph glyph-name="section" unicode="&#xa7;" horiz-adv-x="556" 
d="M126 -54l50 36c30 -43 66 -65 97 -65c41 0 70 28 70 62c0 43 -35 79 -86 133c-94 98 -161 157 -161 229c0 68 41 107 112 107c-39 43 -59 81 -59 120c0 66 51 115 126 115c55 0 108 -30 139 -84l-49 -35c-27 42 -60 63 -87 63c-38 0 -65 -25 -65 -58
c0 -34 35 -70 93 -128c93 -92 153 -150 153 -229c0 -57 -42 -98 -112 -100c40 -45 59 -88 59 -131c0 -75 -56 -123 -128 -123c-60 0 -117 32 -152 88zM159 350c0 -29 22 -59 59 -102c52 -59 91 -90 121 -90c31 0 55 23 55 54c0 32 -25 66 -69 114c-47 52 -80 79 -109 79
s-57 -25 -57 -55z" />
    <glyph glyph-name="currency" unicode="&#xa4;" horiz-adv-x="556" 
d="M372 231h-186c13 -137 62 -188 132 -188c68 0 102 74 112 122l63 -20c-12 -55 -65 -161 -173 -161c-104 0 -186 71 -203 247h-75l11 42h61c-1 12 -1 23 -1 35c0 13 0 24 1 36h-72l11 42h64c18 174 101 246 198 246c116 0 164 -106 176 -154l-61 -29
c-18 83 -63 123 -112 123c-65 0 -118 -49 -131 -186h229l-11 -42h-221c-1 -12 -1 -23 -1 -36s0 -24 1 -35h199z" />
    <glyph glyph-name="quotesingle" unicode="'" horiz-adv-x="139" 
d="M91 700v-270h-42v270h42z" />
    <glyph glyph-name="quotedblleft" unicode="&#x201c;" horiz-adv-x="556" 
d="M184 371l-114 293h65l114 -293h-65zM419 371l-114 293h65l114 -293h-65z" />
    <glyph glyph-name="guillemotleft" unicode="&#xab;" 
d="M187 78l-128 158l128 158h67l-129 -158l129 -158h-67zM357 78l-129 158l129 158h67l-129 -158l129 -158h-67z" />
    <glyph glyph-name="guilsinglleft" unicode="&#x2039;" horiz-adv-x="333" 
d="M177 78l-128 158l128 158h67l-129 -158l129 -158h-67z" />
    <glyph glyph-name="guilsinglright" unicode="&#x203a;" horiz-adv-x="333" 
d="M156 78h-67l129 158l-129 158h67l129 -158z" />
    <glyph glyph-name="fi" unicode="&#xfb01;" horiz-adv-x="586" 
d="M131 0v409h-92v52h92v75c0 111 57 166 177 166c48 0 95 -12 147 -36v-67c-54 30 -103 45 -151 45c-89 0 -108 -34 -108 -114v-69h293v-461h-65v409h-228v-409h-65z" />
    <glyph glyph-name="fl" unicode="&#xfb02;" horiz-adv-x="586" 
d="M131 0v409h-92v52h92v75c0 111 57 166 177 166c41 0 81 -9 123 -26l58 25v-701h-65v409h-228v-409h-65zM196 461h228v156c-47 18 -87 27 -121 27c-88 0 -107 -34 -107 -114v-69z" />
    <glyph glyph-name="endash" unicode="&#x2013;" 
d="M0 216v44h500v-44h-500z" />
    <glyph glyph-name="dagger" unicode="&#x2020;" horiz-adv-x="556" 
d="M262 -169c-2 208 -12 348 -27 419c9 37 18 96 27 179l-160 -24v77l160 -24l-25 206h80l-25 -206l160 24v-77l-160 24c10 -88 18 -147 28 -179c-19 -87 -27 -227 -28 -419h-30z" />
    <glyph glyph-name="daggerdbl" unicode="&#x2021;" horiz-adv-x="556" 
d="M236 253c14 75 25 133 27 176l-160 -24v77l160 -24l-26 206h81l-26 -206l160 24v-77l-160 24c7 -66 16 -124 27 -176c-13 -72 -23 -130 -26 -175l159 23v-76l-159 24l25 -207h-80l25 207l-160 -24v76l160 -23c-4 51 -13 109 -27 175z" />
    <glyph glyph-name="periodcentered" unicode="&#xb7;" horiz-adv-x="278" 
d="M79 300c0 32 27 59 59 59c33 0 59 -26 59 -59c0 -32 -27 -59 -59 -59s-59 27 -59 59z" />
    <glyph glyph-name="paragraph" unicode="&#xb6;" 
d="M455 691h-63v-691h-34v691h-94v-691h-34v382c-116 5 -186 73 -186 170c0 100 75 170 193 170h218v-31z" />
    <glyph glyph-name="bullet" unicode="&#x2022;" horiz-adv-x="590" 
d="M150 372c0 80 65 144 145 144c79 0 144 -64 144 -144c0 -79 -65 -145 -145 -145s-144 65 -144 145z" />
    <glyph glyph-name="quotesinglbase" unicode="&#x201a;" horiz-adv-x="278" 
d="M87 -188h-65l114 294h64z" />
    <glyph glyph-name="quotedblbase" unicode="&#x201e;" horiz-adv-x="556" 
d="M108 -188h-65l114 294h65zM343 -188h-65l114 294h65z" />
    <glyph glyph-name="quotedblright" unicode="&#x201d;" horiz-adv-x="556" 
d="M135 371h-65l114 293h65zM370 371h-65l114 293h65z" />
    <glyph glyph-name="guillemotright" unicode="&#xbb;" 
d="M302 78h-66l128 158l-128 158h66l129 -158zM133 78h-67l129 158l-129 158h67l129 -158z" />
    <glyph glyph-name="ellipsis" unicode="&#x2026;" horiz-adv-x="1000" 
d="M103 55c0 32 27 59 59 59c33 0 59 -26 59 -59c0 -32 -27 -59 -59 -59s-59 27 -59 59zM436 55c0 32 27 59 59 59c33 0 59 -26 59 -59c0 -32 -27 -59 -59 -59s-59 27 -59 59zM770 55c0 32 27 59 59 59c33 0 59 -26 59 -59c0 -32 -27 -59 -59 -59s-59 27 -59 59z" />
    <glyph glyph-name="perthousand" unicode="&#x2030;" horiz-adv-x="1255" 
d="M100 475c0 78 63 141 141 141c79 0 142 -63 142 -141s-62 -141 -142 -141c-78 0 -141 63 -141 141zM153 475c0 -48 39 -89 88 -89s89 40 89 89s-40 88 -89 88s-88 -39 -88 -88zM224 -16l401 648h54l-401 -648h-54zM521 142c0 78 63 141 141 141c79 0 141 -63 141 -141
s-61 -142 -141 -142c-78 0 -141 64 -141 142zM573 141c0 -48 40 -88 89 -88s88 39 88 88s-39 89 -88 89s-89 -40 -89 -89zM925 141c0 -48 39 -88 88 -88s89 39 89 88s-40 89 -89 89s-88 -40 -88 -89zM872 142c0 78 63 141 141 141c79 0 141 -63 141 -141s-61 -142 -141 -142
c-78 0 -141 64 -141 142z" />
    <glyph glyph-name="questiondown" unicode="&#xbf;" 
d="M297 432v-48c0 -34 -19 -70 -57 -111c-50 -55 -90 -90 -90 -145c0 -56 38 -89 101 -89c54 0 93 28 119 86l61 -26c-43 -78 -104 -118 -183 -118c-98 0 -168 61 -168 146c0 61 31 96 71 139c45 49 82 83 84 131v35h62zM321 609c0 -32 -27 -59 -59 -59c-33 0 -59 26 -59 59
c0 32 27 59 59 59s59 -27 59 -59z" />
    <glyph glyph-name="grave" unicode="`" 
d="M317 543h-52l-137 170h87z" />
    <glyph glyph-name="acute" unicode="&#xb4;" 
d="M183 543l102 170h87l-137 -170h-52z" />
    <glyph glyph-name="circumflex" unicode="&#x2c6;" 
d="M110 543l96 170h87l96 -170h-52l-87 118l-88 -118h-52z" />
    <glyph glyph-name="tilde" unicode="&#x2dc;" 
d="M392 673c-16 -62 -51 -93 -97 -93c-12 0 -22 2 -32 5l-39 13c-9 3 -18 4 -26 4c-22 0 -37 -9 -47 -31h-43c14 60 48 91 97 91c10 0 20 -2 29 -5l38 -13c10 -3 21 -5 30 -5c23 0 39 11 47 34h43z" />
    <glyph glyph-name="macron" unicode="&#xaf;" 
d="M124 589v61h252v-61h-252z" />
    <glyph glyph-name="breve" unicode="&#x2d8;" 
d="M112 694h44c4 -50 33 -71 94 -71s90 21 94 71h44c-7 -91 -49 -133 -138 -133c-88 0 -132 42 -138 133z" />
    <glyph glyph-name="dotaccent" unicode="&#x2d9;" 
d="M209 571v97h82v-97h-82z" />
    <glyph glyph-name="dieresis" unicode="&#xa8;" 
d="M133 574v92h78v-92h-78zM289 574v92h78v-92h-78z" />
    <glyph glyph-name="ring" unicode="&#x2da;" 
d="M129 654c0 68 53 121 121 121s121 -53 121 -121s-53 -121 -121 -121s-121 53 -121 121zM181 654c0 -39 30 -70 69 -70s70 31 70 70s-31 70 -70 70c-40 0 -69 -31 -69 -70z" />
    <glyph glyph-name="cedilla" unicode="&#xb8;" 
d="M146 -206v42c52 -12 92 -17 120 -17c39 0 59 13 59 40c0 34 -21 48 -68 48c-8 0 -16 0 -25 -1v94h36v-52h11c73 0 110 -30 110 -86c0 -58 -41 -89 -121 -89c-32 0 -72 8 -122 21z" />
    <glyph glyph-name="hungarumlaut" unicode="&#x2dd;" 
d="M157 543l72 170h77l-108 -170h-41zM283 543l82 170h76l-117 -170h-41z" />
    <glyph glyph-name="ogonek" unicode="&#x2db;" 
d="M279 0c-44 -40 -67 -75 -67 -109c0 -29 13 -40 47 -40h40v-63h-39c-73 0 -108 25 -108 80c0 48 32 84 92 132h35z" />
    <glyph glyph-name="caron" unicode="&#x2c7;" 
d="M110 713h52l88 -119l87 119h52l-96 -170h-87z" />
    <glyph glyph-name="emdash" unicode="&#x2014;" horiz-adv-x="1000" 
d="M0 260h1000v-44h-1000v44z" />
    <glyph glyph-name="AE" unicode="&#xc6;" horiz-adv-x="965" 
d="M222 246h229v379h-42zM29 0l328 664h509v-60h-347v-226h299v-60h-299v-258h358v-60h-426v186h-259l-92 -186h-71z" />
    <glyph glyph-name="ordfeminine" unicode="&#xaa;" horiz-adv-x="375" 
d="M251 389c-40 -44 -82 -67 -123 -67c-57 0 -97 38 -97 97c0 72 73 117 211 117h15v44c0 38 -20 52 -69 52c-36 0 -71 -11 -106 -33l-23 42c48 21 92 31 135 31c48 0 84 -15 100 -38c9 -12 11 -33 11 -64v-165c0 -28 12 -40 42 -41v-42c-54 2 -84 27 -87 67h-9zM257 424v82
h-9c-109 0 -167 -33 -167 -87c0 -34 22 -55 56 -55c30 0 74 19 120 60z" />
    <glyph glyph-name="Lslash" unicode="&#x141;" horiz-adv-x="590" 
d="M142 0v314l-78 -52l-31 45l109 71v286h67v-242l102 72l30 -45l-132 -89v-300h342v-60h-409z" />
    <glyph glyph-name="Oslash" unicode="&#xd8;" horiz-adv-x="611" 
d="M58 -164l86 201c-61 82 -83 176 -83 295c0 230 85 351 230 351c39 0 75 -11 112 -34l54 128h45l-65 -152c57 -62 84 -159 84 -293c0 -230 -85 -351 -230 -351c-39 0 -75 12 -112 35l-76 -180h-45zM169 101l211 491c-27 21 -57 32 -89 32c-109 0 -161 -102 -161 -308
c0 -89 12 -160 39 -215zM202 72c22 -21 49 -32 84 -32c116 0 167 101 167 311c0 82 -12 149 -43 208z" />
    <glyph glyph-name="OE" unicode="&#x152;" horiz-adv-x="968" 
d="M331 0c-181 0 -271 110 -271 332s90 332 271 332h537v-60h-347v-226h299v-60h-299v-258h358v-60h-548zM454 133v399c0 55 -32 73 -104 73c-160 0 -221 -81 -221 -273s61 -272 221 -272c72 0 104 18 104 73z" />
    <glyph glyph-name="ordmasculine" unicode="&#xba;" horiz-adv-x="365" 
d="M44 497c0 110 57 175 138 175c82 0 138 -65 138 -175c0 -111 -56 -175 -138 -175c-81 0 -138 64 -138 175zM95 497c0 -87 33 -135 87 -135s88 48 88 135c0 86 -34 135 -88 135s-87 -49 -87 -135z" />
    <glyph glyph-name="ae" unicode="&#xe6;" horiz-adv-x="736" 
d="M343 135v116h-13c-145 0 -222 -47 -222 -124c0 -48 29 -79 74 -79c40 0 99 28 161 87zM407 294h220c-3 89 -42 137 -110 137s-107 -48 -110 -137zM358 109c-59 -80 -127 -121 -188 -121c-75 0 -129 55 -129 139c0 103 98 167 281 167h21v63c0 46 -33 75 -92 75
c-48 0 -95 -16 -142 -48l-30 60c65 29 122 45 172 45c71 0 118 -26 139 -75c32 50 74 74 128 74c107 0 176 -84 176 -233v-13h-288v-19c0 -120 37 -177 121 -177c34 0 70 18 105 55l46 -38c-41 -49 -96 -75 -160 -75c-79 0 -132 40 -160 121z" />
    <glyph glyph-name="dotlessi" unicode="&#x131;" horiz-adv-x="278" 
d="M108 0v478h62v-478h-62z" />
    <glyph glyph-name="lslash" unicode="&#x142;" horiz-adv-x="278" 
d="M106 0v327l-53 -38l-26 39l79 56v289l65 28v-272l53 37l27 -39l-80 -56v-371h-65z" />
    <glyph glyph-name="oslash" unicode="&#xf8;" horiz-adv-x="486" 
d="M40 -138l86 175c-42 41 -67 106 -67 201c0 158 77 251 179 251c33 0 64 -9 94 -28l71 148h44l-83 -171c39 -43 63 -108 63 -200c0 -158 -75 -250 -184 -250c-29 0 -56 9 -84 26l-75 -152h-44zM154 97l152 313c-20 14 -40 21 -63 21c-72 0 -117 -69 -117 -193
c0 -56 6 -101 28 -141zM182 66c19 -14 38 -20 61 -20c72 0 117 68 117 192c0 69 -7 115 -30 141z" />
    <glyph glyph-name="oe" unicode="&#x153;" horiz-adv-x="759" 
d="M427 297h221c-4 89 -42 134 -110 134c-67 0 -104 -45 -111 -134zM126 238c0 -124 45 -192 117 -192s117 68 117 192s-45 193 -117 193s-117 -69 -117 -193zM393 85c-33 -65 -83 -97 -150 -97c-109 0 -184 92 -184 250s75 250 184 250c70 0 113 -31 150 -103
c27 67 79 103 146 103c107 0 176 -84 176 -234v-10h-288v-23c0 -118 38 -175 121 -175c35 0 71 19 105 55l47 -38c-41 -49 -97 -75 -161 -75c-73 0 -122 33 -146 97z" />
    <glyph glyph-name="germandbls" unicode="&#xdf;" horiz-adv-x="556" 
d="M91 0v447c0 74 6 127 44 174c33 40 80 62 136 62c100 0 174 -70 174 -167c0 -72 -39 -122 -117 -151c106 -28 156 -92 156 -197c0 -106 -72 -186 -162 -186c-25 0 -49 6 -74 19v56c25 -11 46 -16 63 -16c60 0 104 53 104 140c0 90 -53 141 -154 151v58
c79 12 123 60 123 126c0 64 -46 107 -109 107c-47 0 -83 -21 -103 -61c-14 -28 -14 -71 -14 -131v-431h-67z" />
    <glyph glyph-name="Aacute" unicode="&#xc1;" horiz-adv-x="667" 
d="M27 0l266 664h79l265 -664h-70l-63 159h-343l-63 -159h-71zM185 219h295l-141 357h-13zM267 737l102 170h87l-137 -170h-52z" />
    <glyph glyph-name="Acircumflex" unicode="&#xc2;" horiz-adv-x="667" 
d="M27 0l266 664h79l265 -664h-70l-63 159h-343l-63 -159h-71zM185 219h295l-141 357h-13zM194 737l96 170h87l96 -170h-52l-87 118l-88 -118h-52z" />
    <glyph glyph-name="Adieresis" unicode="&#xc4;" horiz-adv-x="667" 
d="M27 0l266 664h79l265 -664h-70l-63 159h-343l-63 -159h-71zM185 219h295l-141 357h-13zM217 768v92h78v-92h-78zM373 768v92h78v-92h-78z" />
    <glyph glyph-name="Agrave" unicode="&#xc0;" horiz-adv-x="667" 
d="M27 0l266 664h79l265 -664h-70l-63 159h-343l-63 -159h-71zM185 219h295l-141 357h-13zM401 737h-52l-137 170h87z" />
    <glyph glyph-name="Aring" unicode="&#xc5;" horiz-adv-x="667" 
d="M211 832c0 68 53 121 121 121s121 -53 121 -121s-53 -121 -121 -121s-121 53 -121 121zM263 831c0 -39 31 -69 70 -69s69 30 69 69s-30 70 -69 70c-40 0 -70 -31 -70 -70zM27 0l266 664h79l265 -664h-70l-63 159h-343l-63 -159h-71zM185 219h295l-141 357h-13z" />
    <glyph glyph-name="Atilde" unicode="&#xc3;" horiz-adv-x="667" 
d="M27 0l266 664h79l265 -664h-70l-63 159h-343l-63 -159h-71zM185 219h295l-141 357h-13zM476 867c-16 -62 -51 -93 -97 -93c-12 0 -22 2 -32 5l-39 13c-9 3 -18 4 -26 4c-22 0 -37 -9 -47 -31h-43c14 60 48 91 97 91c10 0 20 -2 29 -5l38 -13c10 -3 21 -5 30 -5
c23 0 39 11 47 34h43z" />
    <glyph glyph-name="Ccedilla" unicode="&#xc7;" horiz-adv-x="611" 
d="M538 181c-8 -122 -93 -200 -210 -200c-152 0 -235 120 -235 351c0 230 85 351 230 351c113 0 193 -68 204 -182l-58 -29c-14 103 -59 152 -141 152c-112 0 -167 -97 -167 -292c0 -194 56 -292 165 -292c88 0 147 57 155 157zM225 -206v42c52 -12 92 -17 120 -17
c39 0 59 13 59 40c0 34 -21 48 -68 48c-8 0 -16 0 -25 -1v94h36v-52h11c73 0 110 -30 110 -86c0 -58 -41 -89 -121 -89c-32 0 -72 8 -122 21z" />
    <glyph glyph-name="Eacute" unicode="&#xc9;" horiz-adv-x="667" 
d="M153 0v664h414v-60h-347v-226h299v-60h-299v-258h358v-60h-425zM299 737l102 170h87l-137 -170h-52z" />
    <glyph glyph-name="Ecircumflex" unicode="&#xca;" horiz-adv-x="667" 
d="M153 0v664h414v-60h-347v-226h299v-60h-299v-258h358v-60h-425zM226 737l96 170h87l96 -170h-52l-87 118l-88 -118h-52z" />
    <glyph glyph-name="Edieresis" unicode="&#xcb;" horiz-adv-x="667" 
d="M153 0v664h414v-60h-347v-226h299v-60h-299v-258h358v-60h-425zM249 768v92h78v-92h-78zM405 768v92h78v-92h-78z" />
    <glyph glyph-name="Egrave" unicode="&#xc8;" horiz-adv-x="667" 
d="M153 0v664h414v-60h-347v-226h299v-60h-299v-258h358v-60h-425zM433 737h-52l-137 170h87z" />
    <glyph glyph-name="Eth" unicode="&#xd0;" horiz-adv-x="646" 
d="M165 60h98c148 0 225 92 225 272s-77 272 -225 272h-98v-219h125v-60h-125v-265zM98 0v325h-98v60h98v279h170c189 0 290 -113 290 -332s-101 -332 -290 -332h-170z" />
    <glyph glyph-name="Euro" unicode="&#x20ac;" horiz-adv-x="556" 
d="M372 231h-186c13 -137 62 -188 132 -188c68 0 102 74 112 122l63 -20c-12 -55 -65 -161 -173 -161c-104 0 -186 71 -203 247h-75l11 42h61c-1 12 -1 23 -1 35c0 13 0 24 1 36h-72l11 42h64c18 174 101 246 198 246c116 0 164 -106 176 -154l-61 -29
c-18 83 -63 123 -112 123c-65 0 -118 -49 -131 -186h229l-11 -42h-221c-1 -12 -1 -23 -1 -36s0 -24 1 -35h199z" />
    <glyph glyph-name="Iacute" unicode="&#xcd;" horiz-adv-x="389" 
d="M92 0v39h70v586h-70v39h209v-39h-70v-586h70v-39h-209zM128 737l102 170h87l-137 -170h-52z" />
    <glyph glyph-name="Icircumflex" unicode="&#xce;" horiz-adv-x="389" 
d="M92 0v39h70v586h-70v39h209v-39h-70v-586h70v-39h-209zM55 737l96 170h87l96 -170h-52l-87 118l-88 -118h-52z" />
    <glyph glyph-name="Idieresis" unicode="&#xcf;" horiz-adv-x="389" 
d="M92 0v39h70v586h-70v39h209v-39h-70v-586h70v-39h-209zM78 768v92h78v-92h-78zM234 768v92h78v-92h-78z" />
    <glyph glyph-name="Igrave" unicode="&#xcc;" horiz-adv-x="389" 
d="M92 0v39h70v586h-70v39h209v-39h-70v-586h70v-39h-209zM262 737h-52l-137 170h87z" />
    <glyph glyph-name="Ntilde" unicode="&#xd1;" horiz-adv-x="722" 
d="M131 0v664h125l248 -597h18v597h67v-664h-124l-249 597h-18v-597h-67zM503 867c-16 -62 -51 -93 -97 -93c-12 0 -22 2 -32 5l-39 13c-9 3 -18 4 -26 4c-22 0 -37 -9 -47 -31h-43c14 60 48 91 97 91c10 0 20 -2 29 -5l38 -13c10 -3 21 -5 30 -5c23 0 39 11 47 34h43z" />
    <glyph glyph-name="Oacute" unicode="&#xd3;" horiz-adv-x="611" 
d="M61 342c0 221 88 341 230 341c145 0 230 -121 230 -351s-85 -351 -230 -351c-148 0 -230 123 -230 361zM130 332c0 -194 54 -291 161 -291s162 97 162 291s-55 292 -162 292s-161 -98 -161 -292zM211 737l102 170h87l-137 -170h-52z" />
    <glyph glyph-name="Ocircumflex" unicode="&#xd4;" horiz-adv-x="611" 
d="M61 342c0 221 88 341 230 341c145 0 230 -121 230 -351s-85 -351 -230 -351c-148 0 -230 123 -230 361zM130 332c0 -194 54 -291 161 -291s162 97 162 291s-55 292 -162 292s-161 -98 -161 -292zM138 737l96 170h87l96 -170h-52l-87 118l-88 -118h-52z" />
    <glyph glyph-name="Odieresis" unicode="&#xd6;" horiz-adv-x="611" 
d="M61 342c0 221 88 341 230 341c145 0 230 -121 230 -351s-85 -351 -230 -351c-148 0 -230 123 -230 361zM130 332c0 -194 54 -291 161 -291s162 97 162 291s-55 292 -162 292s-161 -98 -161 -292zM161 768v92h78v-92h-78zM317 768v92h78v-92h-78z" />
    <glyph glyph-name="Ograve" unicode="&#xd2;" horiz-adv-x="611" 
d="M61 342c0 221 88 341 230 341c145 0 230 -121 230 -351s-85 -351 -230 -351c-148 0 -230 123 -230 361zM130 332c0 -194 54 -291 161 -291s162 97 162 291s-55 292 -162 292s-161 -98 -161 -292zM345 737h-52l-137 170h87z" />
    <glyph glyph-name="Otilde" unicode="&#xd5;" horiz-adv-x="611" 
d="M61 342c0 221 88 341 230 341c145 0 230 -121 230 -351s-85 -351 -230 -351c-148 0 -230 123 -230 361zM130 332c0 -194 54 -291 161 -291s162 97 162 291s-55 292 -162 292s-161 -98 -161 -292zM420 867c-16 -62 -51 -93 -97 -93c-12 0 -22 2 -32 5l-39 13
c-9 3 -18 4 -26 4c-22 0 -37 -9 -47 -31h-43c14 60 48 91 97 91c10 0 20 -2 29 -5l38 -13c10 -3 21 -5 30 -5c23 0 39 11 47 34h43z" />
    <glyph glyph-name="Scaron" unicode="&#x160;" horiz-adv-x="611" 
d="M75 137l63 28c28 -83 85 -124 167 -124c80 0 130 51 130 129c0 56 -29 94 -91 120l-110 46c-91 38 -134 92 -134 177c0 102 68 169 185 169c90 0 153 -43 200 -135l-59 -29c-31 71 -83 108 -151 108s-113 -47 -113 -110c0 -47 30 -87 82 -110l113 -50
c99 -43 144 -89 144 -183c0 -116 -78 -190 -202 -190c-110 0 -187 52 -224 154zM166 907h52l88 -119l87 119h52l-96 -170h-87z" />
    <glyph glyph-name="Thorn" unicode="&#xde;" horiz-adv-x="623" 
d="M196 475v-272h99c128 0 189 41 189 136s-61 136 -189 136h-99zM196 535h122c150 0 235 -74 235 -197s-85 -197 -235 -197h-122v-141h-67v664h67v-129z" />
    <glyph glyph-name="Uacute" unicode="&#xda;" horiz-adv-x="722" 
d="M147 664h68v-464c0 -112 40 -158 147 -158c69 0 110 21 135 74c16 33 18 74 18 122v426h58v-428c0 -171 -69 -255 -211 -255c-144 0 -215 71 -215 212v471zM294 737l102 170h87l-137 -170h-52z" />
    <glyph glyph-name="Ucircumflex" unicode="&#xdb;" horiz-adv-x="722" 
d="M147 664h68v-464c0 -112 40 -158 147 -158c69 0 110 21 135 74c16 33 18 74 18 122v426h58v-428c0 -171 -69 -255 -211 -255c-144 0 -215 71 -215 212v471zM221 737l96 170h87l96 -170h-52l-87 118l-88 -118h-52z" />
    <glyph glyph-name="Udieresis" unicode="&#xdc;" horiz-adv-x="722" 
d="M147 664h68v-464c0 -112 40 -158 147 -158c69 0 110 21 135 74c16 33 18 74 18 122v426h58v-428c0 -171 -69 -255 -211 -255c-144 0 -215 71 -215 212v471zM244 768v92h78v-92h-78zM400 768v92h78v-92h-78z" />
    <glyph glyph-name="Ugrave" unicode="&#xd9;" horiz-adv-x="722" 
d="M147 664h68v-464c0 -112 40 -158 147 -158c69 0 110 21 135 74c16 33 18 74 18 122v426h58v-428c0 -171 -69 -255 -211 -255c-144 0 -215 71 -215 212v471zM428 737h-52l-137 170h87z" />
    <glyph glyph-name="Yacute" unicode="&#xdd;" horiz-adv-x="667" 
d="M299 0v238l-245 426h73l199 -345h12l199 345h74l-245 -426v-238h-67zM267 737l102 170h87l-137 -170h-52z" />
    <glyph glyph-name="Ydieresis" unicode="&#x178;" horiz-adv-x="667" 
d="M299 0v238l-245 426h73l199 -345h12l199 345h74l-245 -426v-238h-67zM217 768v92h78v-92h-78zM373 768v92h78v-92h-78z" />
    <glyph glyph-name="Zcaron" unicode="&#x17d;" horiz-adv-x="611" 
d="M75 0v46l369 558h-353v60h440v-46l-368 -558h371v-60h-459zM166 907h52l88 -119l87 119h52l-96 -170h-87z" />
    <glyph glyph-name="aacute" unicode="&#xe1;" 
d="M335 85c-54 -64 -110 -97 -165 -97c-75 0 -129 55 -129 139c0 103 98 167 281 167h21v63c0 54 -27 75 -92 75c-48 0 -95 -16 -142 -48l-30 60c63 30 122 44 179 44c64 0 112 -21 134 -54c12 -17 15 -47 15 -91v-236c0 -40 16 -57 56 -59v-59c-72 3 -113 38 -117 96h-11z
M343 135v116h-13c-145 0 -222 -47 -222 -124c0 -48 29 -79 74 -79c40 0 99 28 161 87zM183 543l102 170h87l-137 -170h-52z" />
    <glyph glyph-name="acircumflex" unicode="&#xe2;" 
d="M335 85c-54 -64 -110 -97 -165 -97c-75 0 -129 55 -129 139c0 103 98 167 281 167h21v63c0 54 -27 75 -92 75c-48 0 -95 -16 -142 -48l-30 60c63 30 122 44 179 44c64 0 112 -21 134 -54c12 -17 15 -47 15 -91v-236c0 -40 16 -57 56 -59v-59c-72 3 -113 38 -117 96h-11z
M343 135v116h-13c-145 0 -222 -47 -222 -124c0 -48 29 -79 74 -79c40 0 99 28 161 87zM110 543l96 170h87l96 -170h-52l-87 118l-88 -118h-52z" />
    <glyph glyph-name="adieresis" unicode="&#xe4;" 
d="M335 85c-54 -64 -110 -97 -165 -97c-75 0 -129 55 -129 139c0 103 98 167 281 167h21v63c0 54 -27 75 -92 75c-48 0 -95 -16 -142 -48l-30 60c63 30 122 44 179 44c64 0 112 -21 134 -54c12 -17 15 -47 15 -91v-236c0 -40 16 -57 56 -59v-59c-72 3 -113 38 -117 96h-11z
M343 135v116h-13c-145 0 -222 -47 -222 -124c0 -48 29 -79 74 -79c40 0 99 28 161 87zM133 574v92h78v-92h-78zM289 574v92h78v-92h-78z" />
    <glyph glyph-name="agrave" unicode="&#xe0;" 
d="M335 85c-54 -64 -110 -97 -165 -97c-75 0 -129 55 -129 139c0 103 98 167 281 167h21v63c0 54 -27 75 -92 75c-48 0 -95 -16 -142 -48l-30 60c63 30 122 44 179 44c64 0 112 -21 134 -54c12 -17 15 -47 15 -91v-236c0 -40 16 -57 56 -59v-59c-72 3 -113 38 -117 96h-11z
M343 135v116h-13c-145 0 -222 -47 -222 -124c0 -48 29 -79 74 -79c40 0 99 28 161 87zM317 543h-52l-137 170h87z" />
    <glyph glyph-name="aring" unicode="&#xe5;" 
d="M124 654c0 68 53 121 121 121s121 -53 121 -121s-53 -121 -121 -121s-121 53 -121 121zM343 135v116h-13c-145 0 -222 -47 -222 -124c0 -48 29 -79 74 -79c40 0 99 28 161 87zM175 654c0 -39 31 -70 70 -70s69 31 69 70s-30 70 -69 70c-40 0 -70 -31 -70 -70zM335 85
c-54 -64 -110 -97 -165 -97c-75 0 -129 55 -129 139c0 103 98 167 281 167h21v63c0 54 -27 75 -92 75c-48 0 -95 -16 -142 -48l-30 60c63 30 122 44 179 44c64 0 112 -21 134 -54c12 -17 15 -47 15 -91v-236c0 -40 16 -57 56 -59v-59c-72 3 -113 38 -117 96h-11z" />
    <glyph glyph-name="atilde" unicode="&#xe3;" 
d="M335 85c-54 -64 -110 -97 -165 -97c-75 0 -129 55 -129 139c0 103 98 167 281 167h21v63c0 54 -27 75 -92 75c-48 0 -95 -16 -142 -48l-30 60c63 30 122 44 179 44c64 0 112 -21 134 -54c12 -17 15 -47 15 -91v-236c0 -40 16 -57 56 -59v-59c-72 3 -113 38 -117 96h-11z
M343 135v116h-13c-145 0 -222 -47 -222 -124c0 -48 29 -79 74 -79c40 0 99 28 161 87zM392 673c-16 -62 -51 -93 -97 -93c-12 0 -22 2 -32 5l-39 13c-9 3 -18 4 -26 4c-22 0 -37 -9 -47 -31h-43c14 60 48 91 97 91c10 0 20 -2 29 -5l38 -13c10 -3 21 -5 30 -5
c23 0 39 11 47 34h43z" />
    <glyph glyph-name="brokenbar" unicode="&#xa6;" 
d="M272 699v-370h-44v370h44zM272 199v-370h-44v370h44z" />
    <glyph glyph-name="ccedilla" unicode="&#xe7;" horiz-adv-x="444" 
d="M413 87c-36 -68 -88 -99 -165 -99c-115 0 -184 91 -184 250c0 158 76 251 181 251c67 0 116 -29 162 -92l-63 -31c-25 43 -59 65 -99 65c-68 0 -114 -69 -114 -193c0 -127 45 -192 126 -192c41 0 70 22 96 69zM120 -206v42c52 -12 92 -17 120 -17c39 0 59 13 59 40
c0 34 -21 48 -68 48c-8 0 -16 0 -25 -1v94h36v-52h11c73 0 110 -30 110 -86c0 -58 -41 -89 -121 -89c-32 0 -72 8 -122 21z" />
    <glyph glyph-name="copyright" unicode="&#xa9;" horiz-adv-x="833" 
d="M416 709c97 0 186 -37 254 -105c67 -67 103 -156 103 -252c0 -98 -36 -184 -103 -250c-70 -69 -160 -107 -254 -107c-95 0 -183 38 -251 106s-105 156 -105 251c0 94 37 184 106 254c66 67 153 103 250 103zM738 352c0 87 -33 167 -93 227c-62 62 -142 95 -229 95
s-166 -33 -225 -93c-62 -63 -96 -144 -96 -229s34 -165 95 -226s141 -95 226 -95c84 0 166 34 229 96c60 59 93 137 93 225zM528 448c-13 53 -54 84 -111 84c-81 0 -130 -65 -130 -181c0 -112 51 -178 130 -178c59 0 105 36 117 94h50c-7 -80 -77 -136 -170 -136
c-110 0 -184 83 -184 223c0 136 78 220 190 220c86 0 151 -52 159 -126h-51z" />
    <glyph glyph-name="degree" unicode="&#xb0;" horiz-adv-x="329" 
d="M165 708c73 0 133 -60 133 -134c0 -73 -59 -133 -134 -133s-133 59 -133 133c0 75 60 134 134 134zM269 574c0 57 -47 104 -104 104c-58 0 -104 -46 -104 -104s47 -104 104 -104c58 0 104 47 104 104z" />
    <glyph glyph-name="divide" unicode="&#xf7;" horiz-adv-x="833" 
d="M417 515c27 0 48 -21 48 -48c0 -26 -21 -49 -48 -49s-48 22 -48 49s22 48 48 48zM709 318v-39h-585v39h585zM417 179c27 0 48 -23 48 -49c0 -27 -21 -48 -48 -48s-48 20 -48 48c0 26 22 49 48 49z" />
    <glyph glyph-name="eacute" unicode="&#xe9;" horiz-adv-x="444" 
d="M112 297h221c-3 88 -41 134 -109 134c-67 0 -105 -45 -112 -134zM385 63c-41 -49 -97 -75 -161 -75c-114 0 -179 89 -179 253c0 158 73 247 179 247c107 0 176 -84 176 -234v-10h-288v-23c0 -118 38 -175 121 -175c34 0 70 18 105 55zM161 543l102 170h87l-137 -170h-52z
" />
    <glyph glyph-name="ecircumflex" unicode="&#xea;" horiz-adv-x="444" 
d="M112 297h221c-3 88 -41 134 -109 134c-67 0 -105 -45 -112 -134zM385 63c-41 -49 -97 -75 -161 -75c-114 0 -179 89 -179 253c0 158 73 247 179 247c107 0 176 -84 176 -234v-10h-288v-23c0 -118 38 -175 121 -175c34 0 70 18 105 55zM88 543l96 170h87l96 -170h-52
l-87 118l-88 -118h-52z" />
    <glyph glyph-name="edieresis" unicode="&#xeb;" horiz-adv-x="444" 
d="M112 297h221c-3 88 -41 134 -109 134c-67 0 -105 -45 -112 -134zM385 63c-41 -49 -97 -75 -161 -75c-114 0 -179 89 -179 253c0 158 73 247 179 247c107 0 176 -84 176 -234v-10h-288v-23c0 -118 38 -175 121 -175c34 0 70 18 105 55zM111 574v92h78v-92h-78zM267 574v92
h78v-92h-78z" />
    <glyph glyph-name="egrave" unicode="&#xe8;" horiz-adv-x="444" 
d="M112 297h221c-3 88 -41 134 -109 134c-67 0 -105 -45 -112 -134zM385 63c-41 -49 -97 -75 -161 -75c-114 0 -179 89 -179 253c0 158 73 247 179 247c107 0 176 -84 176 -234v-10h-288v-23c0 -118 38 -175 121 -175c34 0 70 18 105 55zM295 543h-52l-137 170h87z" />
    <glyph glyph-name="eth" unicode="&#xf0;" horiz-adv-x="486" 
d="M243 426c-71 0 -115 -67 -115 -190s44 -190 115 -190s116 67 116 190s-45 190 -116 190zM316 445l7 5c-18 49 -41 90 -67 121l-120 -47l-14 41l106 41c-24 22 -47 41 -69 56l27 42c31 -14 64 -39 101 -76l112 44l14 -40l-97 -39c72 -93 110 -215 110 -355
c0 -158 -74 -250 -183 -250c-108 0 -182 92 -182 248c0 154 73 244 170 244c32 0 59 -12 85 -35z" />
    <glyph glyph-name="iacute" unicode="&#xed;" horiz-adv-x="278" 
d="M108 0v478h62v-478h-62zM72 543l102 170h87l-137 -170h-52z" />
    <glyph glyph-name="icircumflex" unicode="&#xee;" horiz-adv-x="278" 
d="M108 0v478h62v-478h-62zM-1 543l96 170h87l96 -170h-52l-87 118l-88 -118h-52z" />
    <glyph glyph-name="idieresis" unicode="&#xef;" horiz-adv-x="278" 
d="M108 0v478h62v-478h-62zM22 574v92h78v-92h-78zM178 574v92h78v-92h-78z" />
    <glyph glyph-name="igrave" unicode="&#xec;" horiz-adv-x="278" 
d="M108 0v478h62v-478h-62zM206 543h-52l-137 170h87z" />
    <glyph glyph-name="logicalnot" unicode="&#xac;" horiz-adv-x="833" 
d="M709 418v-245h-39v206h-546v39h585z" />
    <glyph glyph-name="minus" unicode="&#x2212;" horiz-adv-x="833" 
d="M709 318v-39h-585v39h585z" />
    <glyph glyph-name="mu" unicode="&#xb5;" horiz-adv-x="534" 
d="M159 519l-60 -288c-5 -25 -8 -47 -8 -69c0 -82 40 -126 114 -126c80 0 144 69 174 206l61 277h59l-81 -384c-7 -33 -12 -55 -12 -66c0 -20 11 -31 33 -31c2 0 8 0 19 1l-9 -47c-14 -3 -27 -6 -37 -6c-44 0 -65 20 -65 62c0 6 1 14 2 22c-28 -54 -82 -84 -152 -84
c-64 0 -113 31 -134 84l-58 -277h-59l154 726h59z" />
    <glyph glyph-name="multiply" unicode="&#xd7;" horiz-adv-x="833" 
d="M417 326l238 238l28 -28l-238 -238l238 -238l-28 -28l-238 238l-238 -238l-28 28l238 238l-238 238l28 28z" />
    <glyph glyph-name="ntilde" unicode="&#xf1;" 
d="M73 0v460l65 29v-107h8c55 71 109 107 165 107c76 0 117 -52 117 -153v-336h-65v325c0 76 -17 108 -69 108c-48 0 -102 -38 -156 -114v-319h-65zM392 673c-16 -62 -51 -93 -97 -93c-12 0 -22 2 -32 5l-39 13c-9 3 -18 4 -26 4c-22 0 -37 -9 -47 -31h-43
c14 60 48 91 97 91c10 0 20 -2 29 -5l38 -13c10 -3 21 -5 30 -5c23 0 39 11 47 34h43z" />
    <glyph glyph-name="oacute" unicode="&#xf3;" horiz-adv-x="486" 
d="M59 238c0 158 75 250 184 250s184 -92 184 -250s-75 -250 -184 -250s-184 92 -184 250zM126 238c0 -124 45 -192 117 -192s117 68 117 192s-45 193 -117 193s-117 -69 -117 -193zM176 543l102 170h87l-137 -170h-52z" />
    <glyph glyph-name="ocircumflex" unicode="&#xf4;" horiz-adv-x="486" 
d="M59 238c0 158 75 250 184 250s184 -92 184 -250s-75 -250 -184 -250s-184 92 -184 250zM126 238c0 -124 45 -192 117 -192s117 68 117 192s-45 193 -117 193s-117 -69 -117 -193zM103 543l96 170h87l96 -170h-52l-87 118l-88 -118h-52z" />
    <glyph glyph-name="odieresis" unicode="&#xf6;" horiz-adv-x="486" 
d="M59 238c0 158 75 250 184 250s184 -92 184 -250s-75 -250 -184 -250s-184 92 -184 250zM126 238c0 -124 45 -192 117 -192s117 68 117 192s-45 193 -117 193s-117 -69 -117 -193zM126 574v92h78v-92h-78zM282 574v92h78v-92h-78z" />
    <glyph glyph-name="ograve" unicode="&#xf2;" horiz-adv-x="486" 
d="M59 238c0 158 75 250 184 250s184 -92 184 -250s-75 -250 -184 -250s-184 92 -184 250zM126 238c0 -124 45 -192 117 -192s117 68 117 192s-45 193 -117 193s-117 -69 -117 -193zM310 543h-52l-137 170h87z" />
    <glyph glyph-name="onehalf" unicode="&#xbd;" horiz-adv-x="867" 
d="M77 271v34h87v277h-100v34h145v-311h83v-34h-215zM183 -16l447 648h53l-446 -648h-54zM570 0c7 51 26 90 61 120c27 23 61 44 94 69c28 22 43 48 43 70c0 35 -31 61 -72 61c-43 0 -74 -21 -91 -62l-34 20c26 51 67 76 124 76c71 0 117 -40 117 -95c0 -26 -10 -51 -30 -72
c-24 -25 -51 -42 -76 -60c-38 -27 -69 -50 -80 -93h191v-34h-247z" />
    <glyph glyph-name="onequarter" unicode="&#xbc;" horiz-adv-x="867" 
d="M77 271v34h87v277h-100v34h145v-311h83v-34h-215zM183 -16l447 648h53l-446 -648h-54zM740 0v100h-186v50l157 195h70v-212h49v-33h-49v-100h-41zM740 133v190l-148 -181v-9h148z" />
    <glyph glyph-name="onesuperior" unicode="&#xb9;" horiz-adv-x="367" 
d="M81 246v36h91v298h-105v36h151v-334h88v-36h-225z" />
    <glyph glyph-name="otilde" unicode="&#xf5;" horiz-adv-x="486" 
d="M59 238c0 158 75 250 184 250s184 -92 184 -250s-75 -250 -184 -250s-184 92 -184 250zM126 238c0 -124 45 -192 117 -192s117 68 117 192s-45 193 -117 193s-117 -69 -117 -193zM385 673c-16 -62 -51 -93 -97 -93c-12 0 -22 2 -32 5l-39 13c-9 3 -18 4 -26 4
c-22 0 -37 -9 -47 -31h-43c14 60 48 91 97 91c10 0 20 -2 29 -5l38 -13c10 -3 21 -5 30 -5c23 0 39 11 47 34h43z" />
    <glyph glyph-name="plusminus" unicode="&#xb1;" horiz-adv-x="833" 
d="M436 567v-173h273v-39h-273v-172h-39v172h-273v39h273v173h39zM709 69v-39h-585v39h585z" />
    <glyph glyph-name="registered" unicode="&#xae;" horiz-adv-x="833" 
d="M416 709c97 0 186 -37 254 -105c67 -67 103 -156 103 -252c0 -98 -36 -184 -103 -250c-70 -69 -160 -107 -254 -107c-95 0 -183 38 -251 106s-105 156 -105 251c0 94 37 184 106 254c66 67 153 103 250 103zM738 352c0 87 -33 167 -93 227c-62 62 -142 95 -229 95
s-166 -33 -225 -93c-62 -63 -96 -144 -96 -229s34 -165 95 -226s141 -95 226 -95c84 0 166 34 229 96c60 59 93 137 93 225zM427 564c114 0 170 -34 170 -114c0 -57 -38 -100 -99 -107l93 -192h-64l-89 184h-104v-184h-56v413h149zM416 526h-82v-153h82c87 0 124 16 124 79
c0 52 -41 74 -124 74z" />
    <glyph glyph-name="scaron" unicode="&#x161;" horiz-adv-x="389" 
d="M42 45l27 55c47 -36 88 -55 127 -55c59 0 100 38 100 86c0 35 -19 54 -60 71l-92 38c-60 25 -91 68 -91 124c0 71 62 125 155 125c43 0 84 -13 129 -38l-24 -56c-42 25 -79 39 -113 39c-54 0 -87 -28 -87 -65c0 -34 21 -57 63 -74l71 -28c74 -29 110 -67 110 -132
c0 -84 -64 -147 -158 -147c-60 0 -113 20 -157 57zM55 713h52l88 -119l87 119h52l-96 -170h-87z" />
    <glyph glyph-name="thorn" unicode="&#xfe;" 
d="M65 673l65 28v-315h8c43 68 93 103 146 103c101 0 160 -89 160 -251c0 -161 -60 -248 -160 -248c-53 0 -103 35 -146 103h-8v-267h-65v847zM262 48c71 0 114 65 114 190s-43 191 -114 191c-29 0 -62 -19 -86 -51c-30 -41 -46 -91 -46 -140s16 -99 46 -140
c24 -32 57 -50 86 -50z" />
    <glyph glyph-name="threequarters" unicode="&#xbe;" horiz-adv-x="868" 
d="M31 262v34c140 2 220 50 220 103c0 30 -25 52 -66 52c-15 0 -36 -3 -62 -11l-11 29c78 26 117 52 117 85c0 25 -18 40 -48 40c-36 0 -71 -14 -107 -42l-23 24c45 32 86 49 128 49c57 0 93 -30 93 -70c0 -28 -24 -53 -72 -78c63 -7 95 -32 95 -77
c0 -76 -94 -135 -264 -138zM183 -16l447 648h53l-446 -648h-54zM740 0v100h-186v50l157 195h70v-212h49v-33h-49v-100h-41zM740 133v190l-148 -181v-9h148z" />
    <glyph glyph-name="threesuperior" unicode="&#xb3;" horiz-adv-x="367" 
d="M32 236v36c148 3 231 54 231 111c0 33 -27 56 -69 56c-16 0 -38 -3 -65 -12l-12 31c82 28 123 56 123 92c0 26 -19 42 -51 42c-37 0 -74 -15 -111 -45l-25 25c48 35 90 53 134 53c60 0 98 -32 98 -74c0 -31 -25 -58 -76 -85c67 -6 100 -33 100 -81
c0 -83 -98 -145 -277 -149z" />
    <glyph glyph-name="trademark" unicode="&#x2122;" horiz-adv-x="833" 
d="M339 710v-25h-85v-234h-33v234h-87v25h205zM452 710l85 -215l79 215h50v-259h-29v234l-88 -234h-24l-93 234v-234h-29v259h49z" />
    <glyph glyph-name="twosuperior" unicode="&#xb2;" horiz-adv-x="367" 
d="M55 246c8 55 28 97 64 128c29 26 64 48 99 75c30 23 45 51 45 75c0 37 -32 65 -76 65s-77 -23 -95 -66l-36 21c28 54 71 81 130 81c75 0 124 -43 124 -101c0 -28 -12 -55 -33 -78c-24 -27 -53 -45 -79 -64c-40 -29 -73 -53 -84 -100h200v-36h-259z" />
    <glyph glyph-name="uacute" unicode="&#xfa;" 
d="M428 478v-450l-65 -28v106h-9c-55 -71 -108 -107 -164 -107c-76 0 -117 52 -117 153v326h65v-315c0 -76 17 -108 69 -108c48 0 102 39 156 115v308h65zM183 543l102 170h87l-137 -170h-52z" />
    <glyph glyph-name="ucircumflex" unicode="&#xfb;" 
d="M428 478v-450l-65 -28v106h-9c-55 -71 -108 -107 -164 -107c-76 0 -117 52 -117 153v326h65v-315c0 -76 17 -108 69 -108c48 0 102 39 156 115v308h65zM110 543l96 170h87l96 -170h-52l-87 118l-88 -118h-52z" />
    <glyph glyph-name="udieresis" unicode="&#xfc;" 
d="M428 478v-450l-65 -28v106h-9c-55 -71 -108 -107 -164 -107c-76 0 -117 52 -117 153v326h65v-315c0 -76 17 -108 69 -108c48 0 102 39 156 115v308h65zM133 574v92h78v-92h-78zM289 574v92h78v-92h-78z" />
    <glyph glyph-name="ugrave" unicode="&#xf9;" 
d="M428 478v-450l-65 -28v106h-9c-55 -71 -108 -107 -164 -107c-76 0 -117 52 -117 153v326h65v-315c0 -76 17 -108 69 -108c48 0 102 39 156 115v308h65zM317 543h-52l-137 170h87z" />
    <glyph glyph-name="yacute" unicode="&#xfd;" horiz-adv-x="444" 
d="M19 -149v79h24c17 -20 36 -30 57 -30c38 0 57 26 78 84l16 47l-167 447h67l127 -353h8l129 353h68l-196 -530c-28 -73 -68 -106 -138 -106c-21 0 -46 3 -73 9zM155 543l102 170h87l-137 -170h-52z" />
    <glyph glyph-name="ydieresis" unicode="&#xff;" horiz-adv-x="444" 
d="M19 -149v79h24c17 -20 36 -30 57 -30c38 0 57 26 78 84l16 47l-167 447h67l127 -353h8l129 353h68l-196 -530c-28 -73 -68 -106 -138 -106c-21 0 -46 3 -73 9zM105 574v92h78v-92h-78zM261 574v92h78v-92h-78z" />
    <glyph glyph-name="zcaron" unicode="&#x17e;" horiz-adv-x="444" 
d="M55 3v61l262 353h-253v58h329v-61l-263 -353h263v-58h-338zM82 713h52l88 -119l87 119h52l-96 -170h-87z" />
    </font>
</defs>
</svg>
